<svg width="398" height="603" viewBox="0 0 398 603" fill="none" xmlns="http://www.w3.org/2000/svg">
<rect width="398" height="603" fill="white"/>
<path d="M93.4028 102V89.9141H96.8145C97.8659 89.9141 98.7956 90.1465 99.6035 90.6113C100.411 91.0762 101.034 91.7375 101.471 92.5952C101.914 93.453 102.138 94.438 102.144 95.5503V96.3223C102.144 97.4622 101.922 98.4611 101.479 99.3188C101.042 100.177 100.414 100.835 99.5952 101.294C98.7817 101.754 97.8327 101.989 96.748 102H93.4028ZM94.9966 91.2256V100.697H96.6733C97.9019 100.697 98.8564 100.315 99.5371 99.5513C100.223 98.7876 100.566 97.7002 100.566 96.2891V95.5835C100.566 94.2111 100.243 93.1458 99.5952 92.3877C98.9533 91.624 98.0402 91.2367 96.856 91.2256H94.9966ZM109.863 102C109.775 101.823 109.703 101.507 109.647 101.054C108.934 101.795 108.081 102.166 107.091 102.166C106.205 102.166 105.478 101.917 104.908 101.419C104.343 100.915 104.061 100.279 104.061 99.5098C104.061 98.5745 104.415 97.8496 105.124 97.335C105.837 96.8148 106.839 96.5547 108.128 96.5547H109.623V95.8491C109.623 95.3123 109.462 94.8862 109.141 94.5708C108.82 94.2498 108.347 94.0894 107.722 94.0894C107.174 94.0894 106.715 94.2277 106.344 94.5044C105.973 94.7811 105.788 95.1159 105.788 95.5088H104.244C104.244 95.0605 104.401 94.6289 104.717 94.2139C105.038 93.7933 105.469 93.4613 106.012 93.2178C106.56 92.9743 107.16 92.8525 107.813 92.8525C108.848 92.8525 109.659 93.1126 110.245 93.6328C110.832 94.1475 111.136 94.8586 111.158 95.7661V99.8999C111.158 100.724 111.263 101.38 111.474 101.867V102H109.863ZM107.315 100.83C107.796 100.83 108.253 100.705 108.685 100.456C109.116 100.207 109.429 99.8833 109.623 99.4849V97.6421H108.419C106.537 97.6421 105.597 98.1927 105.597 99.2939C105.597 99.7754 105.757 100.152 106.078 100.423C106.399 100.694 106.811 100.83 107.315 100.83ZM116.371 99.7505L118.463 93.0186H120.106L116.496 103.386C115.937 104.88 115.049 105.627 113.831 105.627L113.541 105.603L112.968 105.495V104.25L113.383 104.283C113.903 104.283 114.307 104.178 114.595 103.967C114.888 103.757 115.129 103.372 115.317 102.813L115.657 101.9L112.453 93.0186H114.13L116.371 99.7505ZM123.568 90.8438V93.0186H125.245V94.2056H123.568V99.7754C123.568 100.135 123.643 100.406 123.792 100.589C123.941 100.766 124.196 100.854 124.556 100.854C124.733 100.854 124.976 100.821 125.286 100.755V102C124.882 102.111 124.489 102.166 124.107 102.166C123.421 102.166 122.904 101.958 122.555 101.543C122.207 101.128 122.032 100.539 122.032 99.7754V94.2056H120.397V93.0186H122.032V90.8438H123.568ZM128.714 102H127.179V93.0186H128.714V102ZM127.054 90.6362C127.054 90.3872 127.129 90.1769 127.278 90.0054C127.433 89.8338 127.66 89.748 127.959 89.748C128.258 89.748 128.485 89.8338 128.64 90.0054C128.795 90.1769 128.872 90.3872 128.872 90.6362C128.872 90.8853 128.795 91.0928 128.64 91.2588C128.485 91.4248 128.258 91.5078 127.959 91.5078C127.66 91.5078 127.433 91.4248 127.278 91.2588C127.129 91.0928 127.054 90.8853 127.054 90.6362ZM132.624 93.0186L132.666 94.0146C133.324 93.2399 134.212 92.8525 135.33 92.8525C136.586 92.8525 137.441 93.334 137.895 94.2969C138.194 93.8652 138.581 93.5166 139.057 93.251C139.539 92.9854 140.106 92.8525 140.759 92.8525C142.729 92.8525 143.73 93.8957 143.764 95.9819V102H142.228V96.0732C142.228 95.4313 142.081 94.9526 141.788 94.6372C141.495 94.3162 141.002 94.1558 140.311 94.1558C139.741 94.1558 139.267 94.3273 138.891 94.6704C138.515 95.008 138.296 95.4645 138.235 96.04V102H136.691V96.1147C136.691 94.8088 136.052 94.1558 134.774 94.1558C133.767 94.1558 133.078 94.5846 132.707 95.4424V102H131.171V93.0186H132.624ZM149.815 102.166C148.597 102.166 147.607 101.768 146.843 100.971C146.08 100.168 145.698 99.0975 145.698 97.7583V97.4761C145.698 96.5851 145.867 95.791 146.204 95.0938C146.547 94.391 147.023 93.8431 147.632 93.4502C148.246 93.0518 148.91 92.8525 149.624 92.8525C150.792 92.8525 151.699 93.2371 152.347 94.0063C152.994 94.7756 153.318 95.8768 153.318 97.3101V97.9492H147.233C147.256 98.8346 147.513 99.5513 148.005 100.099C148.503 100.641 149.134 100.913 149.898 100.913C150.44 100.913 150.9 100.802 151.276 100.581C151.652 100.359 151.981 100.066 152.264 99.7007L153.202 100.431C152.449 101.588 151.32 102.166 149.815 102.166ZM149.624 94.1143C149.004 94.1143 148.484 94.3411 148.063 94.7949C147.643 95.2432 147.383 95.874 147.283 96.6875H151.782V96.5713C151.738 95.791 151.528 95.1878 151.151 94.7617C150.775 94.3301 150.266 94.1143 149.624 94.1143ZM163.993 97.1108H161.154V102H159.552V89.9141H163.553C164.914 89.9141 165.96 90.224 166.69 90.8438C167.426 91.4635 167.794 92.3656 167.794 93.5498C167.794 94.3024 167.59 94.9582 167.18 95.5171C166.776 96.076 166.212 96.4938 165.487 96.7705L168.326 101.9V102H166.616L163.993 97.1108ZM161.154 95.8076H163.603C164.394 95.8076 165.022 95.6029 165.487 95.1934C165.957 94.7839 166.192 94.236 166.192 93.5498C166.192 92.8027 165.968 92.23 165.52 91.8315C165.077 91.4331 164.435 91.2311 163.594 91.2256H161.154V95.8076ZM173.522 102.166C172.305 102.166 171.314 101.768 170.55 100.971C169.787 100.168 169.405 99.0975 169.405 97.7583V97.4761C169.405 96.5851 169.574 95.791 169.911 95.0938C170.254 94.391 170.73 93.8431 171.339 93.4502C171.953 93.0518 172.617 92.8525 173.331 92.8525C174.499 92.8525 175.406 93.2371 176.054 94.0063C176.701 94.7756 177.025 95.8768 177.025 97.3101V97.9492H170.94C170.963 98.8346 171.22 99.5513 171.712 100.099C172.21 100.641 172.841 100.913 173.605 100.913C174.147 100.913 174.607 100.802 174.983 100.581C175.359 100.359 175.688 100.066 175.971 99.7007L176.909 100.431C176.156 101.588 175.027 102.166 173.522 102.166ZM173.331 94.1143C172.711 94.1143 172.191 94.3411 171.771 94.7949C171.35 95.2432 171.09 95.874 170.99 96.6875H175.489V96.5713C175.445 95.791 175.235 95.1878 174.858 94.7617C174.482 94.3301 173.973 94.1143 173.331 94.1143ZM180.254 93.0186L180.295 94.0146C180.954 93.2399 181.842 92.8525 182.96 92.8525C184.216 92.8525 185.071 93.334 185.525 94.2969C185.824 93.8652 186.211 93.5166 186.687 93.251C187.168 92.9854 187.736 92.8525 188.389 92.8525C190.359 92.8525 191.36 93.8957 191.394 95.9819V102H189.858V96.0732C189.858 95.4313 189.711 94.9526 189.418 94.6372C189.125 94.3162 188.632 94.1558 187.94 94.1558C187.37 94.1558 186.897 94.3273 186.521 94.6704C186.145 95.008 185.926 95.4645 185.865 96.04V102H184.321V96.1147C184.321 94.8088 183.682 94.1558 182.404 94.1558C181.397 94.1558 180.708 94.5846 180.337 95.4424V102H178.801V93.0186H180.254ZM195.386 102H193.851V93.0186H195.386V102ZM193.726 90.6362C193.726 90.3872 193.801 90.1769 193.95 90.0054C194.105 89.8338 194.332 89.748 194.631 89.748C194.93 89.748 195.157 89.8338 195.312 90.0054C195.466 90.1769 195.544 90.3872 195.544 90.6362C195.544 90.8853 195.466 91.0928 195.312 91.2588C195.157 91.4248 194.93 91.5078 194.631 91.5078C194.332 91.5078 194.105 91.4248 193.95 91.2588C193.801 91.0928 193.726 90.8853 193.726 90.6362ZM199.304 93.0186L199.354 94.1475C200.04 93.2842 200.937 92.8525 202.043 92.8525C203.942 92.8525 204.899 93.9233 204.916 96.0649V102H203.38V96.0566C203.374 95.4092 203.225 94.9305 202.932 94.6206C202.644 94.3107 202.193 94.1558 201.579 94.1558C201.081 94.1558 200.643 94.2886 200.267 94.5542C199.891 94.8198 199.597 95.1685 199.387 95.6001V102H197.852V93.0186H199.304ZM206.858 97.4346C206.858 96.0566 207.184 94.9499 207.837 94.1143C208.49 93.2731 209.345 92.8525 210.402 92.8525C211.454 92.8525 212.287 93.2122 212.901 93.9316V89.25H214.437V102H213.025L212.951 101.037C212.336 101.79 211.481 102.166 210.386 102.166C209.345 102.166 208.496 101.74 207.837 100.888C207.184 100.035 206.858 98.9232 206.858 97.5508V97.4346ZM208.394 97.6089C208.394 98.6271 208.604 99.424 209.024 99.9995C209.445 100.575 210.026 100.863 210.768 100.863C211.742 100.863 212.453 100.426 212.901 99.5513V95.4258C212.442 94.5791 211.736 94.1558 210.784 94.1558C210.032 94.1558 209.445 94.4463 209.024 95.0273C208.604 95.6084 208.394 96.4689 208.394 97.6089ZM220.554 102.166C219.337 102.166 218.346 101.768 217.583 100.971C216.819 100.168 216.437 99.0975 216.437 97.7583V97.4761C216.437 96.5851 216.606 95.791 216.943 95.0938C217.286 94.391 217.762 93.8431 218.371 93.4502C218.985 93.0518 219.649 92.8525 220.363 92.8525C221.531 92.8525 222.438 93.2371 223.086 94.0063C223.733 94.7756 224.057 95.8768 224.057 97.3101V97.9492H217.973C217.995 98.8346 218.252 99.5513 218.745 100.099C219.243 100.641 219.874 100.913 220.637 100.913C221.18 100.913 221.639 100.802 222.015 100.581C222.391 100.359 222.721 100.066 223.003 99.7007L223.941 100.431C223.188 101.588 222.059 102.166 220.554 102.166ZM220.363 94.1143C219.743 94.1143 219.223 94.3411 218.803 94.7949C218.382 95.2432 218.122 95.874 218.022 96.6875H222.521V96.5713C222.477 95.791 222.267 95.1878 221.891 94.7617C221.514 94.3301 221.005 94.1143 220.363 94.1143ZM230.183 94.3965C229.951 94.3577 229.699 94.3384 229.428 94.3384C228.421 94.3384 227.737 94.7673 227.377 95.625V102H225.842V93.0186H227.336L227.361 94.0562C227.864 93.2537 228.578 92.8525 229.502 92.8525C229.801 92.8525 230.028 92.8913 230.183 92.9688V94.3965Z" fill="black"/>
<path d="M134.619 562.846H129.556L128.418 566H126.775L131.39 553.914H132.785L137.408 566H135.773L134.619 562.846ZM130.037 561.534H134.146L132.087 555.881L130.037 561.534ZM138.421 561.435C138.421 560.057 138.747 558.95 139.4 558.114C140.053 557.273 140.908 556.853 141.965 556.853C143.017 556.853 143.85 557.212 144.464 557.932V553.25H146V566H144.588L144.514 565.037C143.899 565.79 143.044 566.166 141.949 566.166C140.908 566.166 140.059 565.74 139.4 564.888C138.747 564.035 138.421 562.923 138.421 561.551V561.435ZM139.957 561.609C139.957 562.627 140.167 563.424 140.587 564C141.008 564.575 141.589 564.863 142.331 564.863C143.305 564.863 144.016 564.426 144.464 563.551V559.426C144.005 558.579 143.299 558.156 142.347 558.156C141.595 558.156 141.008 558.446 140.587 559.027C140.167 559.608 139.957 560.469 139.957 561.609ZM148.017 561.435C148.017 560.057 148.343 558.95 148.996 558.114C149.649 557.273 150.504 556.853 151.561 556.853C152.612 556.853 153.445 557.212 154.06 557.932V553.25H155.595V566H154.184L154.109 565.037C153.495 565.79 152.64 566.166 151.544 566.166C150.504 566.166 149.655 565.74 148.996 564.888C148.343 564.035 148.017 562.923 148.017 561.551V561.435ZM149.552 561.609C149.552 562.627 149.763 563.424 150.183 564C150.604 564.575 151.185 564.863 151.926 564.863C152.9 564.863 153.611 564.426 154.06 563.551V559.426C153.6 558.579 152.895 558.156 151.943 558.156C151.19 558.156 150.604 558.446 150.183 559.027C149.763 559.608 149.552 560.469 149.552 561.609ZM171.732 566H170.13L164.045 556.687V566H162.443V553.914H164.045L170.146 563.269V553.914H171.732V566ZM178.049 566.166C176.831 566.166 175.841 565.768 175.077 564.971C174.313 564.168 173.932 563.097 173.932 561.758V561.476C173.932 560.585 174.1 559.791 174.438 559.094C174.781 558.391 175.257 557.843 175.866 557.45C176.48 557.052 177.144 556.853 177.858 556.853C179.026 556.853 179.933 557.237 180.581 558.006C181.228 558.776 181.552 559.877 181.552 561.31V561.949H175.467C175.489 562.835 175.747 563.551 176.239 564.099C176.737 564.641 177.368 564.913 178.132 564.913C178.674 564.913 179.133 564.802 179.51 564.581C179.886 564.359 180.215 564.066 180.498 563.701L181.436 564.431C180.683 565.588 179.554 566.166 178.049 566.166ZM177.858 558.114C177.238 558.114 176.718 558.341 176.297 558.795C175.877 559.243 175.617 559.874 175.517 560.688H180.016V560.571C179.972 559.791 179.762 559.188 179.385 558.762C179.009 558.33 178.5 558.114 177.858 558.114ZM191.289 563.883L193.015 557.019H194.551L191.936 566H190.691L188.508 559.193L186.383 566H185.138L182.531 557.019H184.059L185.827 563.742L187.918 557.019H189.155L191.289 563.883ZM205.01 561.111H202.171V566H200.569V553.914H204.57C205.931 553.914 206.977 554.224 207.708 554.844C208.444 555.464 208.812 556.366 208.812 557.55C208.812 558.302 208.607 558.958 208.197 559.517C207.793 560.076 207.229 560.494 206.504 560.771L209.343 565.9V566H207.633L205.01 561.111ZM202.171 559.808H204.62C205.411 559.808 206.039 559.603 206.504 559.193C206.974 558.784 207.209 558.236 207.209 557.55C207.209 556.803 206.985 556.23 206.537 555.832C206.094 555.433 205.452 555.231 204.611 555.226H202.171V559.808ZM214.539 566.166C213.322 566.166 212.331 565.768 211.567 564.971C210.804 564.168 210.422 563.097 210.422 561.758V561.476C210.422 560.585 210.591 559.791 210.928 559.094C211.271 558.391 211.747 557.843 212.356 557.45C212.97 557.052 213.634 556.853 214.348 556.853C215.516 556.853 216.423 557.237 217.071 558.006C217.718 558.776 218.042 559.877 218.042 561.31V561.949H211.958C211.98 562.835 212.237 563.551 212.729 564.099C213.228 564.641 213.858 564.913 214.622 564.913C215.164 564.913 215.624 564.802 216 564.581C216.376 564.359 216.706 564.066 216.988 563.701L217.926 564.431C217.173 565.588 216.044 566.166 214.539 566.166ZM214.348 558.114C213.728 558.114 213.208 558.341 212.788 558.795C212.367 559.243 212.107 559.874 212.007 560.688H216.506V560.571C216.462 559.791 216.252 559.188 215.875 558.762C215.499 558.33 214.99 558.114 214.348 558.114ZM221.271 557.019L221.312 558.015C221.971 557.24 222.859 556.853 223.977 556.853C225.233 556.853 226.088 557.334 226.542 558.297C226.841 557.865 227.228 557.517 227.704 557.251C228.186 556.985 228.753 556.853 229.406 556.853C231.376 556.853 232.377 557.896 232.411 559.982V566H230.875V560.073C230.875 559.431 230.728 558.953 230.435 558.637C230.142 558.316 229.649 558.156 228.958 558.156C228.388 558.156 227.914 558.327 227.538 558.67C227.162 559.008 226.943 559.465 226.882 560.04V566H225.338V560.115C225.338 558.809 224.699 558.156 223.421 558.156C222.414 558.156 221.725 558.585 221.354 559.442V566H219.818V557.019H221.271ZM236.403 566H234.868V557.019H236.403V566ZM234.743 554.636C234.743 554.387 234.818 554.177 234.967 554.005C235.122 553.834 235.349 553.748 235.648 553.748C235.947 553.748 236.174 553.834 236.329 554.005C236.484 554.177 236.561 554.387 236.561 554.636C236.561 554.885 236.484 555.093 236.329 555.259C236.174 555.425 235.947 555.508 235.648 555.508C235.349 555.508 235.122 555.425 234.967 555.259C234.818 555.093 234.743 554.885 234.743 554.636ZM240.321 557.019L240.371 558.147C241.057 557.284 241.954 556.853 243.061 556.853C244.959 556.853 245.916 557.923 245.933 560.065V566H244.397V560.057C244.391 559.409 244.242 558.931 243.949 558.621C243.661 558.311 243.21 558.156 242.596 558.156C242.098 558.156 241.66 558.289 241.284 558.554C240.908 558.82 240.615 559.168 240.404 559.6V566H238.869V557.019H240.321ZM247.875 561.435C247.875 560.057 248.201 558.95 248.854 558.114C249.507 557.273 250.362 556.853 251.419 556.853C252.471 556.853 253.304 557.212 253.918 557.932V553.25H255.454V566H254.042L253.968 565.037C253.354 565.79 252.499 566.166 251.403 566.166C250.362 566.166 249.513 565.74 248.854 564.888C248.201 564.035 247.875 562.923 247.875 561.551V561.435ZM249.411 561.609C249.411 562.627 249.621 563.424 250.042 564C250.462 564.575 251.043 564.863 251.785 564.863C252.759 564.863 253.47 564.426 253.918 563.551V559.426C253.459 558.579 252.753 558.156 251.801 558.156C251.049 558.156 250.462 558.446 250.042 559.027C249.621 559.608 249.411 560.469 249.411 561.609ZM261.571 566.166C260.354 566.166 259.363 565.768 258.6 564.971C257.836 564.168 257.454 563.097 257.454 561.758V561.476C257.454 560.585 257.623 559.791 257.96 559.094C258.304 558.391 258.779 557.843 259.388 557.45C260.002 557.052 260.667 556.853 261.38 556.853C262.548 556.853 263.456 557.237 264.103 558.006C264.75 558.776 265.074 559.877 265.074 561.31V561.949H258.99C259.012 562.835 259.269 563.551 259.762 564.099C260.26 564.641 260.891 564.913 261.654 564.913C262.197 564.913 262.656 564.802 263.032 564.581C263.409 564.359 263.738 564.066 264.02 563.701L264.958 564.431C264.205 565.588 263.076 566.166 261.571 566.166ZM261.38 558.114C260.761 558.114 260.24 558.341 259.82 558.795C259.399 559.243 259.139 559.874 259.04 560.688H263.539V560.571C263.494 559.791 263.284 559.188 262.908 558.762C262.531 558.33 262.022 558.114 261.38 558.114ZM271.2 558.396C270.968 558.358 270.716 558.338 270.445 558.338C269.438 558.338 268.754 558.767 268.395 559.625V566H266.859V557.019H268.353L268.378 558.056C268.882 557.254 269.595 556.853 270.52 556.853C270.818 556.853 271.045 556.891 271.2 556.969V558.396Z" fill="black"/>
<path d="M74.4766 325.842C74.3535 326.895 73.9639 327.708 73.3076 328.282C72.6559 328.852 71.7878 329.137 70.7031 329.137C69.5273 329.137 68.584 328.715 67.873 327.872C67.1667 327.029 66.8135 325.901 66.8135 324.488V323.531C66.8135 322.606 66.9775 321.793 67.3057 321.091C67.6383 320.389 68.1077 319.851 68.7139 319.478C69.32 319.099 70.0218 318.91 70.8193 318.91C71.8766 318.91 72.7243 319.206 73.3623 319.799C74.0003 320.387 74.3717 321.202 74.4766 322.246H73.1572C73.0433 321.453 72.7949 320.879 72.4121 320.523C72.0339 320.168 71.5029 319.99 70.8193 319.99C69.9808 319.99 69.3223 320.3 68.8438 320.92C68.3698 321.54 68.1328 322.422 68.1328 323.565V324.529C68.1328 325.609 68.3584 326.468 68.8096 327.106C69.2607 327.744 69.8919 328.063 70.7031 328.063C71.4323 328.063 71.9906 327.899 72.3779 327.571C72.7699 327.239 73.0296 326.662 73.1572 325.842H74.4766ZM79.6514 322.738C79.46 322.706 79.2526 322.69 79.0293 322.69C78.1999 322.69 77.637 323.044 77.3408 323.75V329H76.0762V321.604H77.3066L77.3271 322.458C77.7419 321.797 78.3298 321.467 79.0908 321.467C79.3369 321.467 79.5238 321.499 79.6514 321.562V322.738ZM83.7529 329.137C82.7503 329.137 81.9346 328.809 81.3057 328.152C80.6768 327.492 80.3623 326.61 80.3623 325.507V325.274C80.3623 324.541 80.5013 323.887 80.7793 323.312C81.0618 322.734 81.4538 322.283 81.9551 321.959C82.4609 321.631 83.0078 321.467 83.5957 321.467C84.5573 321.467 85.3047 321.784 85.8379 322.417C86.3711 323.05 86.6377 323.957 86.6377 325.138V325.664H81.627C81.6452 326.393 81.8571 326.983 82.2627 327.435C82.6729 327.881 83.1924 328.104 83.8213 328.104C84.2679 328.104 84.6462 328.013 84.9561 327.831C85.266 327.649 85.5371 327.407 85.7695 327.106L86.542 327.708C85.9222 328.66 84.9925 329.137 83.7529 329.137ZM83.5957 322.506C83.0853 322.506 82.6569 322.693 82.3105 323.066C81.9642 323.436 81.75 323.955 81.668 324.625H85.373V324.529C85.3366 323.887 85.1634 323.39 84.8535 323.039C84.5436 322.684 84.1243 322.506 83.5957 322.506ZM92.6738 329C92.6009 328.854 92.5417 328.594 92.4961 328.221C91.9082 328.831 91.2064 329.137 90.3906 329.137C89.6615 329.137 89.0622 328.932 88.5928 328.521C88.1279 328.107 87.8955 327.583 87.8955 326.949C87.8955 326.179 88.1872 325.582 88.7705 325.158C89.3584 324.73 90.1833 324.516 91.2451 324.516H92.4756V323.935C92.4756 323.493 92.3434 323.142 92.0791 322.882C91.8148 322.618 91.4251 322.485 90.9102 322.485C90.459 322.485 90.0807 322.599 89.7754 322.827C89.4701 323.055 89.3174 323.331 89.3174 323.654H88.0459C88.0459 323.285 88.1758 322.93 88.4355 322.588C88.6999 322.242 89.0553 321.968 89.502 321.768C89.9531 321.567 90.4476 321.467 90.9854 321.467C91.8376 321.467 92.5052 321.681 92.9883 322.109C93.4714 322.533 93.722 323.119 93.7402 323.866V327.271C93.7402 327.95 93.8268 328.49 94 328.891V329H92.6738ZM90.5752 328.036C90.9717 328.036 91.3477 327.934 91.7031 327.729C92.0586 327.523 92.3161 327.257 92.4756 326.929V325.411H91.4844C89.9349 325.411 89.1602 325.865 89.1602 326.771C89.1602 327.168 89.2923 327.478 89.5566 327.701C89.821 327.924 90.1605 328.036 90.5752 328.036ZM97.4385 319.812V321.604H98.8193V322.581H97.4385V327.168C97.4385 327.464 97.5 327.688 97.623 327.838C97.7461 327.984 97.9557 328.057 98.252 328.057C98.3978 328.057 98.5983 328.029 98.8535 327.975V329C98.5208 329.091 98.1973 329.137 97.8828 329.137C97.3177 329.137 96.8916 328.966 96.6045 328.624C96.3174 328.282 96.1738 327.797 96.1738 327.168V322.581H94.8271V321.604H96.1738V319.812H97.4385ZM103.372 329.137C102.369 329.137 101.554 328.809 100.925 328.152C100.296 327.492 99.9814 326.61 99.9814 325.507V325.274C99.9814 324.541 100.12 323.887 100.398 323.312C100.681 322.734 101.073 322.283 101.574 321.959C102.08 321.631 102.627 321.467 103.215 321.467C104.176 321.467 104.924 321.784 105.457 322.417C105.99 323.05 106.257 323.957 106.257 325.138V325.664H101.246C101.264 326.393 101.476 326.983 101.882 327.435C102.292 327.881 102.812 328.104 103.44 328.104C103.887 328.104 104.265 328.013 104.575 327.831C104.885 327.649 105.156 327.407 105.389 327.106L106.161 327.708C105.541 328.66 104.612 329.137 103.372 329.137ZM103.215 322.506C102.704 322.506 102.276 322.693 101.93 323.066C101.583 323.436 101.369 323.955 101.287 324.625H104.992V324.529C104.956 323.887 104.783 323.39 104.473 323.039C104.163 322.684 103.743 322.506 103.215 322.506ZM119.047 329H117.728L112.717 321.33V329H111.397V319.047H112.717L117.741 326.751V319.047H119.047V329ZM120.845 325.233C120.845 324.509 120.986 323.857 121.269 323.278C121.556 322.7 121.952 322.253 122.458 321.938C122.968 321.624 123.549 321.467 124.201 321.467C125.208 321.467 126.022 321.815 126.642 322.513C127.266 323.21 127.578 324.137 127.578 325.295V325.384C127.578 326.104 127.439 326.751 127.161 327.325C126.888 327.895 126.493 328.339 125.979 328.658C125.468 328.977 124.88 329.137 124.215 329.137C123.212 329.137 122.399 328.788 121.774 328.091C121.155 327.394 120.845 326.471 120.845 325.322V325.233ZM122.116 325.384C122.116 326.204 122.305 326.863 122.684 327.359C123.066 327.856 123.577 328.104 124.215 328.104C124.857 328.104 125.368 327.854 125.746 327.353C126.124 326.847 126.313 326.14 126.313 325.233C126.313 324.422 126.12 323.766 125.732 323.265C125.35 322.759 124.839 322.506 124.201 322.506C123.577 322.506 123.073 322.754 122.69 323.251C122.308 323.748 122.116 324.459 122.116 325.384ZM130.88 319.812V321.604H132.261V322.581H130.88V327.168C130.88 327.464 130.941 327.688 131.064 327.838C131.188 327.984 131.397 328.057 131.693 328.057C131.839 328.057 132.04 328.029 132.295 327.975V329C131.962 329.091 131.639 329.137 131.324 329.137C130.759 329.137 130.333 328.966 130.046 328.624C129.759 328.282 129.615 327.797 129.615 327.168V322.581H128.269V321.604H129.615V319.812H130.88ZM135.118 329H133.854V321.604H135.118V329ZM133.751 319.642C133.751 319.437 133.812 319.263 133.936 319.122C134.063 318.981 134.25 318.91 134.496 318.91C134.742 318.91 134.929 318.981 135.057 319.122C135.184 319.263 135.248 319.437 135.248 319.642C135.248 319.847 135.184 320.018 135.057 320.154C134.929 320.291 134.742 320.359 134.496 320.359C134.25 320.359 134.063 320.291 133.936 320.154C133.812 320.018 133.751 319.847 133.751 319.642ZM137.572 329V322.581H136.403V321.604H137.572V320.975C137.572 320.15 137.807 319.507 138.276 319.047C138.75 318.587 139.418 318.356 140.279 318.356C140.79 318.356 141.435 318.495 142.214 318.773L142.002 319.84C141.432 319.612 140.89 319.498 140.375 319.498C139.833 319.498 139.441 319.621 139.199 319.867C138.962 320.109 138.844 320.473 138.844 320.961V321.604H140.354V322.581H138.844V329H137.572ZM142.843 329H141.571V321.604H142.843V329ZM147.867 328.104C148.318 328.104 148.713 327.968 149.05 327.694C149.387 327.421 149.574 327.079 149.61 326.669H150.807C150.784 327.093 150.638 327.496 150.369 327.879C150.1 328.262 149.74 328.567 149.289 328.795C148.842 329.023 148.368 329.137 147.867 329.137C146.86 329.137 146.058 328.802 145.461 328.132C144.868 327.457 144.572 326.537 144.572 325.37V325.158C144.572 324.438 144.704 323.798 144.969 323.237C145.233 322.677 145.611 322.242 146.104 321.932C146.6 321.622 147.186 321.467 147.86 321.467C148.69 321.467 149.378 321.715 149.925 322.212C150.476 322.709 150.77 323.354 150.807 324.146H149.61C149.574 323.668 149.392 323.276 149.063 322.971C148.74 322.661 148.339 322.506 147.86 322.506C147.218 322.506 146.719 322.738 146.363 323.203C146.012 323.663 145.837 324.331 145.837 325.206V325.445C145.837 326.298 146.012 326.954 146.363 327.414C146.714 327.874 147.215 328.104 147.867 328.104ZM156.795 329C156.722 328.854 156.663 328.594 156.617 328.221C156.029 328.831 155.327 329.137 154.512 329.137C153.783 329.137 153.183 328.932 152.714 328.521C152.249 328.107 152.017 327.583 152.017 326.949C152.017 326.179 152.308 325.582 152.892 325.158C153.479 324.73 154.304 324.516 155.366 324.516H156.597V323.935C156.597 323.493 156.465 323.142 156.2 322.882C155.936 322.618 155.546 322.485 155.031 322.485C154.58 322.485 154.202 322.599 153.896 322.827C153.591 323.055 153.438 323.331 153.438 323.654H152.167C152.167 323.285 152.297 322.93 152.557 322.588C152.821 322.242 153.176 321.968 153.623 321.768C154.074 321.567 154.569 321.467 155.106 321.467C155.959 321.467 156.626 321.681 157.109 322.109C157.592 322.533 157.843 323.119 157.861 323.866V327.271C157.861 327.95 157.948 328.49 158.121 328.891V329H156.795ZM154.696 328.036C155.093 328.036 155.469 327.934 155.824 327.729C156.18 327.523 156.437 327.257 156.597 326.929V325.411H155.605C154.056 325.411 153.281 325.865 153.281 326.771C153.281 327.168 153.413 327.478 153.678 327.701C153.942 327.924 154.282 328.036 154.696 328.036ZM161.56 319.812V321.604H162.94V322.581H161.56V327.168C161.56 327.464 161.621 327.688 161.744 327.838C161.867 327.984 162.077 328.057 162.373 328.057C162.519 328.057 162.719 328.029 162.975 327.975V329C162.642 329.091 162.318 329.137 162.004 329.137C161.439 329.137 161.013 328.966 160.726 328.624C160.438 328.282 160.295 327.797 160.295 327.168V322.581H158.948V321.604H160.295V319.812H161.56ZM165.798 329H164.533V321.604H165.798V329ZM164.431 319.642C164.431 319.437 164.492 319.263 164.615 319.122C164.743 318.981 164.93 318.91 165.176 318.91C165.422 318.91 165.609 318.981 165.736 319.122C165.864 319.263 165.928 319.437 165.928 319.642C165.928 319.847 165.864 320.018 165.736 320.154C165.609 320.291 165.422 320.359 165.176 320.359C164.93 320.359 164.743 320.291 164.615 320.154C164.492 320.018 164.431 319.847 164.431 319.642ZM167.493 325.233C167.493 324.509 167.634 323.857 167.917 323.278C168.204 322.7 168.601 322.253 169.106 321.938C169.617 321.624 170.198 321.467 170.85 321.467C171.857 321.467 172.67 321.815 173.29 322.513C173.914 323.21 174.227 324.137 174.227 325.295V325.384C174.227 326.104 174.088 326.751 173.81 327.325C173.536 327.895 173.142 328.339 172.627 328.658C172.117 328.977 171.529 329.137 170.863 329.137C169.861 329.137 169.047 328.788 168.423 328.091C167.803 327.394 167.493 326.471 167.493 325.322V325.233ZM168.765 325.384C168.765 326.204 168.954 326.863 169.332 327.359C169.715 327.856 170.225 328.104 170.863 328.104C171.506 328.104 172.016 327.854 172.395 327.353C172.773 326.847 172.962 326.14 172.962 325.233C172.962 324.422 172.768 323.766 172.381 323.265C171.998 322.759 171.488 322.506 170.85 322.506C170.225 322.506 169.722 322.754 169.339 323.251C168.956 323.748 168.765 324.459 168.765 325.384ZM177.009 321.604L177.05 322.533C177.615 321.822 178.353 321.467 179.265 321.467C180.828 321.467 181.616 322.349 181.63 324.112V329H180.365V324.105C180.361 323.572 180.238 323.178 179.996 322.923C179.759 322.668 179.388 322.54 178.882 322.54C178.472 322.54 178.112 322.649 177.802 322.868C177.492 323.087 177.25 323.374 177.077 323.729V329H175.812V321.604H177.009ZM187.844 327.038C187.844 326.696 187.714 326.432 187.454 326.245C187.199 326.054 186.75 325.89 186.107 325.753C185.469 325.616 184.961 325.452 184.583 325.261C184.209 325.069 183.931 324.841 183.749 324.577C183.571 324.313 183.482 323.998 183.482 323.634C183.482 323.028 183.738 322.515 184.248 322.096C184.763 321.676 185.419 321.467 186.217 321.467C187.055 321.467 187.734 321.683 188.254 322.116C188.778 322.549 189.04 323.103 189.04 323.777H187.769C187.769 323.431 187.62 323.132 187.324 322.882C187.033 322.631 186.663 322.506 186.217 322.506C185.757 322.506 185.396 322.606 185.137 322.807C184.877 323.007 184.747 323.269 184.747 323.593C184.747 323.898 184.868 324.128 185.109 324.283C185.351 324.438 185.786 324.586 186.415 324.728C187.049 324.869 187.561 325.037 187.953 325.233C188.345 325.429 188.634 325.666 188.821 325.944C189.013 326.218 189.108 326.553 189.108 326.949C189.108 327.61 188.844 328.141 188.315 328.542C187.787 328.938 187.101 329.137 186.258 329.137C185.665 329.137 185.141 329.032 184.686 328.822C184.23 328.613 183.872 328.321 183.612 327.947C183.357 327.569 183.229 327.161 183.229 326.724H184.494C184.517 327.147 184.686 327.485 185 327.735C185.319 327.981 185.738 328.104 186.258 328.104C186.736 328.104 187.119 328.009 187.406 327.817C187.698 327.621 187.844 327.362 187.844 327.038Z" fill="#2D3E50"/>
<path d="M70.6445 363.604H66.4678V368H65.1553V358.047H71.3213V359.127H66.4678V362.531H70.6445V363.604ZM77.1113 367.269C76.6191 367.847 75.8968 368.137 74.9443 368.137C74.1559 368.137 73.5544 367.909 73.1396 367.453C72.7295 366.993 72.5221 366.314 72.5176 365.416V360.604H73.7822V365.382C73.7822 366.503 74.238 367.063 75.1494 367.063C76.1156 367.063 76.7581 366.703 77.0771 365.983V360.604H78.3418V368H77.1387L77.1113 367.269ZM81.6436 368H80.3789V357.5H81.6436V368ZM85.0479 368H83.7832V357.5H85.0479V368ZM94.8574 366.038C94.8574 365.696 94.7275 365.432 94.4678 365.245C94.2126 365.054 93.7637 364.89 93.1211 364.753C92.4831 364.616 91.9749 364.452 91.5967 364.261C91.223 364.069 90.945 363.841 90.7627 363.577C90.585 363.313 90.4961 362.998 90.4961 362.634C90.4961 362.028 90.7513 361.515 91.2617 361.096C91.7767 360.676 92.4329 360.467 93.2305 360.467C94.069 360.467 94.748 360.683 95.2676 361.116C95.7917 361.549 96.0537 362.103 96.0537 362.777H94.7822C94.7822 362.431 94.6341 362.132 94.3379 361.882C94.0462 361.631 93.6771 361.506 93.2305 361.506C92.7702 361.506 92.4102 361.606 92.1504 361.807C91.8906 362.007 91.7607 362.269 91.7607 362.593C91.7607 362.898 91.8815 363.128 92.123 363.283C92.3646 363.438 92.7998 363.586 93.4287 363.728C94.0622 363.869 94.5749 364.037 94.9668 364.233C95.3587 364.429 95.6481 364.666 95.835 364.944C96.0264 365.218 96.1221 365.553 96.1221 365.949C96.1221 366.61 95.8577 367.141 95.3291 367.542C94.8005 367.938 94.1146 368.137 93.2715 368.137C92.679 368.137 92.1549 368.032 91.6992 367.822C91.2435 367.613 90.8857 367.321 90.626 366.947C90.3708 366.569 90.2432 366.161 90.2432 365.724H91.5078C91.5306 366.147 91.6992 366.485 92.0137 366.735C92.3327 366.981 92.752 367.104 93.2715 367.104C93.75 367.104 94.1328 367.009 94.4199 366.817C94.7116 366.621 94.8574 366.362 94.8574 366.038ZM100.736 367.104C101.188 367.104 101.582 366.968 101.919 366.694C102.256 366.421 102.443 366.079 102.479 365.669H103.676C103.653 366.093 103.507 366.496 103.238 366.879C102.969 367.262 102.609 367.567 102.158 367.795C101.712 368.023 101.238 368.137 100.736 368.137C99.7292 368.137 98.9271 367.802 98.3301 367.132C97.7376 366.457 97.4414 365.537 97.4414 364.37V364.158C97.4414 363.438 97.5736 362.798 97.8379 362.237C98.1022 361.677 98.4805 361.242 98.9727 360.932C99.4694 360.622 100.055 360.467 100.729 360.467C101.559 360.467 102.247 360.715 102.794 361.212C103.345 361.709 103.639 362.354 103.676 363.146H102.479C102.443 362.668 102.261 362.276 101.933 361.971C101.609 361.661 101.208 361.506 100.729 361.506C100.087 361.506 99.5879 361.738 99.2324 362.203C98.8815 362.663 98.7061 363.331 98.7061 364.206V364.445C98.7061 365.298 98.8815 365.954 99.2324 366.414C99.5833 366.874 100.085 367.104 100.736 367.104ZM108.673 361.738C108.481 361.706 108.274 361.69 108.051 361.69C107.221 361.69 106.659 362.044 106.362 362.75V368H105.098V360.604H106.328L106.349 361.458C106.763 360.797 107.351 360.467 108.112 360.467C108.358 360.467 108.545 360.499 108.673 360.562V361.738ZM112.774 368.137C111.772 368.137 110.956 367.809 110.327 367.152C109.698 366.492 109.384 365.61 109.384 364.507V364.274C109.384 363.541 109.523 362.887 109.801 362.312C110.083 361.734 110.475 361.283 110.977 360.959C111.482 360.631 112.029 360.467 112.617 360.467C113.579 360.467 114.326 360.784 114.859 361.417C115.393 362.05 115.659 362.957 115.659 364.138V364.664H110.648C110.667 365.393 110.879 365.983 111.284 366.435C111.694 366.881 112.214 367.104 112.843 367.104C113.289 367.104 113.668 367.013 113.978 366.831C114.287 366.649 114.559 366.407 114.791 366.106L115.563 366.708C114.944 367.66 114.014 368.137 112.774 368.137ZM112.617 361.506C112.107 361.506 111.678 361.693 111.332 362.066C110.986 362.436 110.771 362.955 110.689 363.625H114.395V363.529C114.358 362.887 114.185 362.39 113.875 362.039C113.565 361.684 113.146 361.506 112.617 361.506ZM120.198 368.137C119.196 368.137 118.38 367.809 117.751 367.152C117.122 366.492 116.808 365.61 116.808 364.507V364.274C116.808 363.541 116.947 362.887 117.225 362.312C117.507 361.734 117.899 361.283 118.4 360.959C118.906 360.631 119.453 360.467 120.041 360.467C121.003 360.467 121.75 360.784 122.283 361.417C122.816 362.05 123.083 362.957 123.083 364.138V364.664H118.072C118.09 365.393 118.302 365.983 118.708 366.435C119.118 366.881 119.638 367.104 120.267 367.104C120.713 367.104 121.091 367.013 121.401 366.831C121.711 366.649 121.982 366.407 122.215 366.106L122.987 366.708C122.368 367.66 121.438 368.137 120.198 368.137ZM120.041 361.506C119.531 361.506 119.102 361.693 118.756 362.066C118.41 362.436 118.195 362.955 118.113 363.625H121.818V363.529C121.782 362.887 121.609 362.39 121.299 362.039C120.989 361.684 120.57 361.506 120.041 361.506ZM125.749 360.604L125.79 361.533C126.355 360.822 127.093 360.467 128.005 360.467C129.568 360.467 130.356 361.349 130.37 363.112V368H129.105V363.105C129.101 362.572 128.978 362.178 128.736 361.923C128.499 361.668 128.128 361.54 127.622 361.54C127.212 361.54 126.852 361.649 126.542 361.868C126.232 362.087 125.991 362.374 125.817 362.729V368H124.553V360.604H125.749ZM141.998 364.384C141.998 365.509 141.741 366.416 141.226 367.104C140.711 367.793 140.013 368.137 139.134 368.137C138.236 368.137 137.53 367.852 137.015 367.282V370.844H135.75V360.604H136.905L136.967 361.424C137.482 360.786 138.197 360.467 139.113 360.467C140.002 360.467 140.704 360.802 141.219 361.472C141.738 362.142 141.998 363.074 141.998 364.268V364.384ZM140.733 364.24C140.733 363.406 140.556 362.748 140.2 362.265C139.845 361.782 139.357 361.54 138.737 361.54C137.972 361.54 137.397 361.88 137.015 362.559V366.093C137.393 366.767 137.972 367.104 138.751 367.104C139.357 367.104 139.838 366.865 140.193 366.387C140.553 365.904 140.733 365.188 140.733 364.24ZM143.276 364.233C143.276 363.509 143.418 362.857 143.7 362.278C143.987 361.7 144.384 361.253 144.89 360.938C145.4 360.624 145.981 360.467 146.633 360.467C147.64 360.467 148.453 360.815 149.073 361.513C149.698 362.21 150.01 363.137 150.01 364.295V364.384C150.01 365.104 149.871 365.751 149.593 366.325C149.319 366.895 148.925 367.339 148.41 367.658C147.9 367.977 147.312 368.137 146.646 368.137C145.644 368.137 144.83 367.788 144.206 367.091C143.586 366.394 143.276 365.471 143.276 364.322V364.233ZM144.548 364.384C144.548 365.204 144.737 365.863 145.115 366.359C145.498 366.856 146.008 367.104 146.646 367.104C147.289 367.104 147.799 366.854 148.178 366.353C148.556 365.847 148.745 365.14 148.745 364.233C148.745 363.422 148.551 362.766 148.164 362.265C147.781 361.759 147.271 361.506 146.633 361.506C146.008 361.506 145.505 361.754 145.122 362.251C144.739 362.748 144.548 363.459 144.548 364.384ZM157.844 364.384C157.844 365.509 157.586 366.416 157.071 367.104C156.556 367.793 155.859 368.137 154.979 368.137C154.082 368.137 153.375 367.852 152.86 367.282V370.844H151.596V360.604H152.751L152.812 361.424C153.327 360.786 154.043 360.467 154.959 360.467C155.848 360.467 156.549 360.802 157.064 361.472C157.584 362.142 157.844 363.074 157.844 364.268V364.384ZM156.579 364.24C156.579 363.406 156.401 362.748 156.046 362.265C155.69 361.782 155.203 361.54 154.583 361.54C153.817 361.54 153.243 361.88 152.86 362.559V366.093C153.239 366.767 153.817 367.104 154.597 367.104C155.203 367.104 155.684 366.865 156.039 366.387C156.399 365.904 156.579 365.188 156.579 364.24ZM164.023 367.269C163.531 367.847 162.809 368.137 161.856 368.137C161.068 368.137 160.466 367.909 160.052 367.453C159.642 366.993 159.434 366.314 159.43 365.416V360.604H160.694V365.382C160.694 366.503 161.15 367.063 162.062 367.063C163.028 367.063 163.67 366.703 163.989 365.983V360.604H165.254V368H164.051L164.023 367.269ZM173.43 364.384C173.43 365.509 173.172 366.416 172.657 367.104C172.142 367.793 171.445 368.137 170.565 368.137C169.668 368.137 168.961 367.852 168.446 367.282V370.844H167.182V360.604H168.337L168.398 361.424C168.913 360.786 169.629 360.467 170.545 360.467C171.434 360.467 172.135 360.802 172.65 361.472C173.17 362.142 173.43 363.074 173.43 364.268V364.384ZM172.165 364.24C172.165 363.406 171.987 362.748 171.632 362.265C171.276 361.782 170.789 361.54 170.169 361.54C169.403 361.54 168.829 361.88 168.446 362.559V366.093C168.825 366.767 169.403 367.104 170.183 367.104C170.789 367.104 171.27 366.865 171.625 366.387C171.985 365.904 172.165 365.188 172.165 364.24ZM179.35 366.038C179.35 365.696 179.22 365.432 178.96 365.245C178.705 365.054 178.256 364.89 177.613 364.753C176.975 364.616 176.467 364.452 176.089 364.261C175.715 364.069 175.437 363.841 175.255 363.577C175.077 363.313 174.988 362.998 174.988 362.634C174.988 362.028 175.243 361.515 175.754 361.096C176.269 360.676 176.925 360.467 177.723 360.467C178.561 360.467 179.24 360.683 179.76 361.116C180.284 361.549 180.546 362.103 180.546 362.777H179.274C179.274 362.431 179.126 362.132 178.83 361.882C178.538 361.631 178.169 361.506 177.723 361.506C177.262 361.506 176.902 361.606 176.643 361.807C176.383 362.007 176.253 362.269 176.253 362.593C176.253 362.898 176.374 363.128 176.615 363.283C176.857 363.438 177.292 363.586 177.921 363.728C178.554 363.869 179.067 364.037 179.459 364.233C179.851 364.429 180.14 364.666 180.327 364.944C180.519 365.218 180.614 365.553 180.614 365.949C180.614 366.61 180.35 367.141 179.821 367.542C179.293 367.938 178.607 368.137 177.764 368.137C177.171 368.137 176.647 368.032 176.191 367.822C175.736 367.613 175.378 367.321 175.118 366.947C174.863 366.569 174.735 366.161 174.735 365.724H176C176.023 366.147 176.191 366.485 176.506 366.735C176.825 366.981 177.244 367.104 177.764 367.104C178.242 367.104 178.625 367.009 178.912 366.817C179.204 366.621 179.35 366.362 179.35 366.038Z" fill="#2D3E50"/>
<path d="M72.8047 409H71.4854V404.399H66.4678V409H65.1553V399.047H66.4678V403.326H71.4854V399.047H72.8047V409ZM76.3115 409H75.0469V401.604H76.3115V409ZM74.9443 399.642C74.9443 399.437 75.0059 399.263 75.1289 399.122C75.2565 398.981 75.4434 398.91 75.6895 398.91C75.9355 398.91 76.1224 398.981 76.25 399.122C76.3776 399.263 76.4414 399.437 76.4414 399.642C76.4414 399.847 76.3776 400.018 76.25 400.154C76.1224 400.291 75.9355 400.359 75.6895 400.359C75.4434 400.359 75.2565 400.291 75.1289 400.154C75.0059 400.018 74.9443 399.847 74.9443 399.642ZM78.0342 405.24C78.0342 404.105 78.3031 403.194 78.8408 402.506C79.3786 401.813 80.0827 401.467 80.9531 401.467C81.819 401.467 82.5049 401.763 83.0107 402.355V398.5H84.2754V409H83.1133L83.0518 408.207C82.5459 408.827 81.8418 409.137 80.9395 409.137C80.0827 409.137 79.3831 408.786 78.8408 408.084C78.3031 407.382 78.0342 406.466 78.0342 405.336V405.24ZM79.2988 405.384C79.2988 406.222 79.472 406.879 79.8184 407.353C80.1647 407.826 80.6432 408.063 81.2539 408.063C82.056 408.063 82.6416 407.703 83.0107 406.983V403.586C82.6325 402.889 82.0514 402.54 81.2676 402.54C80.6478 402.54 80.1647 402.779 79.8184 403.258C79.472 403.736 79.2988 404.445 79.2988 405.384ZM89.3135 409.137C88.3109 409.137 87.4951 408.809 86.8662 408.152C86.2373 407.492 85.9229 406.61 85.9229 405.507V405.274C85.9229 404.541 86.0618 403.887 86.3398 403.312C86.6224 402.734 87.0143 402.283 87.5156 401.959C88.0215 401.631 88.5684 401.467 89.1562 401.467C90.1178 401.467 90.8652 401.784 91.3984 402.417C91.9316 403.05 92.1982 403.957 92.1982 405.138V405.664H87.1875C87.2057 406.393 87.4176 406.983 87.8232 407.435C88.2334 407.881 88.7529 408.104 89.3818 408.104C89.8285 408.104 90.2067 408.013 90.5166 407.831C90.8265 407.649 91.0977 407.407 91.3301 407.106L92.1025 407.708C91.4827 408.66 90.5531 409.137 89.3135 409.137ZM89.1562 402.506C88.6458 402.506 88.2174 402.693 87.8711 403.066C87.5247 403.436 87.3105 403.955 87.2285 404.625H90.9336V404.529C90.8971 403.887 90.724 403.39 90.4141 403.039C90.1042 402.684 89.6849 402.506 89.1562 402.506ZM100.107 408.104C100.559 408.104 100.953 407.968 101.29 407.694C101.627 407.421 101.814 407.079 101.851 406.669H103.047C103.024 407.093 102.878 407.496 102.609 407.879C102.34 408.262 101.98 408.567 101.529 408.795C101.083 409.023 100.609 409.137 100.107 409.137C99.1003 409.137 98.2982 408.802 97.7012 408.132C97.1087 407.457 96.8125 406.537 96.8125 405.37V405.158C96.8125 404.438 96.9447 403.798 97.209 403.237C97.4733 402.677 97.8516 402.242 98.3438 401.932C98.8405 401.622 99.4261 401.467 100.101 401.467C100.93 401.467 101.618 401.715 102.165 402.212C102.716 402.709 103.01 403.354 103.047 404.146H101.851C101.814 403.668 101.632 403.276 101.304 402.971C100.98 402.661 100.579 402.506 100.101 402.506C99.458 402.506 98.959 402.738 98.6035 403.203C98.2526 403.663 98.0771 404.331 98.0771 405.206V405.445C98.0771 406.298 98.2526 406.954 98.6035 407.414C98.9544 407.874 99.4557 408.104 100.107 408.104ZM104.134 405.233C104.134 404.509 104.275 403.857 104.558 403.278C104.845 402.7 105.241 402.253 105.747 401.938C106.257 401.624 106.839 401.467 107.49 401.467C108.497 401.467 109.311 401.815 109.931 402.513C110.555 403.21 110.867 404.137 110.867 405.295V405.384C110.867 406.104 110.728 406.751 110.45 407.325C110.177 407.895 109.783 408.339 109.268 408.658C108.757 408.977 108.169 409.137 107.504 409.137C106.501 409.137 105.688 408.788 105.063 408.091C104.444 407.394 104.134 406.471 104.134 405.322V405.233ZM105.405 405.384C105.405 406.204 105.594 406.863 105.973 407.359C106.355 407.856 106.866 408.104 107.504 408.104C108.146 408.104 108.657 407.854 109.035 407.353C109.413 406.847 109.603 406.14 109.603 405.233C109.603 404.422 109.409 403.766 109.021 403.265C108.639 402.759 108.128 402.506 107.49 402.506C106.866 402.506 106.362 402.754 105.979 403.251C105.597 403.748 105.405 404.459 105.405 405.384ZM113.649 401.604L113.69 402.533C114.256 401.822 114.994 401.467 115.905 401.467C117.468 401.467 118.257 402.349 118.271 404.112V409H117.006V404.105C117.001 403.572 116.878 403.178 116.637 402.923C116.4 402.668 116.028 402.54 115.522 402.54C115.112 402.54 114.752 402.649 114.442 402.868C114.132 403.087 113.891 403.374 113.718 403.729V409H112.453V401.604H113.649ZM121.894 399.812V401.604H123.274V402.581H121.894V407.168C121.894 407.464 121.955 407.688 122.078 407.838C122.201 407.984 122.411 408.057 122.707 408.057C122.853 408.057 123.053 408.029 123.309 407.975V409C122.976 409.091 122.652 409.137 122.338 409.137C121.773 409.137 121.347 408.966 121.06 408.624C120.772 408.282 120.629 407.797 120.629 407.168V402.581H119.282V401.604H120.629V399.812H121.894ZM127.827 409.137C126.825 409.137 126.009 408.809 125.38 408.152C124.751 407.492 124.437 406.61 124.437 405.507V405.274C124.437 404.541 124.576 403.887 124.854 403.312C125.136 402.734 125.528 402.283 126.029 401.959C126.535 401.631 127.082 401.467 127.67 401.467C128.632 401.467 129.379 401.784 129.912 402.417C130.445 403.05 130.712 403.957 130.712 405.138V405.664H125.701C125.719 406.393 125.931 406.983 126.337 407.435C126.747 407.881 127.267 408.104 127.896 408.104C128.342 408.104 128.72 408.013 129.03 407.831C129.34 407.649 129.611 407.407 129.844 407.106L130.616 407.708C129.996 408.66 129.067 409.137 127.827 409.137ZM127.67 402.506C127.16 402.506 126.731 402.693 126.385 403.066C126.038 403.436 125.824 403.955 125.742 404.625H129.447V404.529C129.411 403.887 129.238 403.39 128.928 403.039C128.618 402.684 128.199 402.506 127.67 402.506ZM133.378 401.604L133.419 402.533C133.984 401.822 134.722 401.467 135.634 401.467C137.197 401.467 137.985 402.349 137.999 404.112V409H136.734V404.105C136.73 403.572 136.607 403.178 136.365 402.923C136.128 402.668 135.757 402.54 135.251 402.54C134.841 402.54 134.481 402.649 134.171 402.868C133.861 403.087 133.619 403.374 133.446 403.729V409H132.182V401.604H133.378ZM141.622 399.812V401.604H143.003V402.581H141.622V407.168C141.622 407.464 141.684 407.688 141.807 407.838C141.93 407.984 142.139 408.057 142.436 408.057C142.581 408.057 142.782 408.029 143.037 407.975V409C142.704 409.091 142.381 409.137 142.066 409.137C141.501 409.137 141.075 408.966 140.788 408.624C140.501 408.282 140.357 407.797 140.357 407.168V402.581H139.011V401.604H140.357V399.812H141.622ZM147.911 404.96C147.911 403.93 148.048 402.941 148.321 401.993C148.599 401.045 149.012 400.184 149.559 399.409C150.105 398.634 150.673 398.088 151.261 397.769L151.521 398.603C150.855 399.113 150.308 399.892 149.88 400.94C149.456 401.989 149.224 403.162 149.183 404.461L149.176 405.042C149.176 406.801 149.497 408.328 150.14 409.622C150.527 410.397 150.987 411.003 151.521 411.44L151.261 412.213C150.655 411.876 150.076 411.311 149.524 410.518C148.449 408.968 147.911 407.116 147.911 404.96ZM158.992 405.384C158.992 406.509 158.735 407.416 158.22 408.104C157.705 408.793 157.007 409.137 156.128 409.137C155.23 409.137 154.524 408.852 154.009 408.282V411.844H152.744V401.604H153.899L153.961 402.424C154.476 401.786 155.191 401.467 156.107 401.467C156.996 401.467 157.698 401.802 158.213 402.472C158.732 403.142 158.992 404.074 158.992 405.268V405.384ZM157.728 405.24C157.728 404.406 157.55 403.748 157.194 403.265C156.839 402.782 156.351 402.54 155.731 402.54C154.966 402.54 154.392 402.88 154.009 403.559V407.093C154.387 407.767 154.966 408.104 155.745 408.104C156.351 408.104 156.832 407.865 157.188 407.387C157.548 406.904 157.728 406.188 157.728 405.24ZM164.181 402.738C163.989 402.706 163.782 402.69 163.559 402.69C162.729 402.69 162.166 403.044 161.87 403.75V409H160.605V401.604H161.836L161.856 402.458C162.271 401.797 162.859 401.467 163.62 401.467C163.866 401.467 164.053 401.499 164.181 401.562V402.738ZM168.282 409.137C167.28 409.137 166.464 408.809 165.835 408.152C165.206 407.492 164.892 406.61 164.892 405.507V405.274C164.892 404.541 165.031 403.887 165.309 403.312C165.591 402.734 165.983 402.283 166.484 401.959C166.99 401.631 167.537 401.467 168.125 401.467C169.087 401.467 169.834 401.784 170.367 402.417C170.9 403.05 171.167 403.957 171.167 405.138V405.664H166.156C166.174 406.393 166.386 406.983 166.792 407.435C167.202 407.881 167.722 408.104 168.351 408.104C168.797 408.104 169.175 408.013 169.485 407.831C169.795 407.649 170.066 407.407 170.299 407.106L171.071 407.708C170.451 408.66 169.522 409.137 168.282 409.137ZM168.125 402.506C167.615 402.506 167.186 402.693 166.84 403.066C166.493 403.436 166.279 403.955 166.197 404.625H169.902V404.529C169.866 403.887 169.693 403.39 169.383 403.039C169.073 402.684 168.654 402.506 168.125 402.506ZM174.353 399.812V401.604H175.733V402.581H174.353V407.168C174.353 407.464 174.414 407.688 174.537 407.838C174.66 407.984 174.87 408.057 175.166 408.057C175.312 408.057 175.512 408.029 175.768 407.975V409C175.435 409.091 175.111 409.137 174.797 409.137C174.232 409.137 173.806 408.966 173.519 408.624C173.231 408.282 173.088 407.797 173.088 407.168V402.581H171.741V401.604H173.088V399.812H174.353ZM180.286 409.137C179.284 409.137 178.468 408.809 177.839 408.152C177.21 407.492 176.896 406.61 176.896 405.507V405.274C176.896 404.541 177.035 403.887 177.312 403.312C177.595 402.734 177.987 402.283 178.488 401.959C178.994 401.631 179.541 401.467 180.129 401.467C181.09 401.467 181.838 401.784 182.371 402.417C182.904 403.05 183.171 403.957 183.171 405.138V405.664H178.16C178.178 406.393 178.39 406.983 178.796 407.435C179.206 407.881 179.726 408.104 180.354 408.104C180.801 408.104 181.179 408.013 181.489 407.831C181.799 407.649 182.07 407.407 182.303 407.106L183.075 407.708C182.455 408.66 181.526 409.137 180.286 409.137ZM180.129 402.506C179.618 402.506 179.19 402.693 178.844 403.066C178.497 403.436 178.283 403.955 178.201 404.625H181.906V404.529C181.87 403.887 181.697 403.39 181.387 403.039C181.077 402.684 180.658 402.506 180.129 402.506ZM185.837 401.604L185.878 402.533C186.443 401.822 187.181 401.467 188.093 401.467C189.656 401.467 190.444 402.349 190.458 404.112V409H189.193V404.105C189.189 403.572 189.066 403.178 188.824 402.923C188.587 402.668 188.216 402.54 187.71 402.54C187.3 402.54 186.94 402.649 186.63 402.868C186.32 403.087 186.078 403.374 185.905 403.729V409H184.641V401.604H185.837ZM192.058 405.24C192.058 404.105 192.326 403.194 192.864 402.506C193.402 401.813 194.106 401.467 194.977 401.467C195.842 401.467 196.528 401.763 197.034 402.355V398.5H198.299V409H197.137L197.075 408.207C196.569 408.827 195.865 409.137 194.963 409.137C194.106 409.137 193.407 408.786 192.864 408.084C192.326 407.382 192.058 406.466 192.058 405.336V405.24ZM193.322 405.384C193.322 406.222 193.495 406.879 193.842 407.353C194.188 407.826 194.667 408.063 195.277 408.063C196.079 408.063 196.665 407.703 197.034 406.983V403.586C196.656 402.889 196.075 402.54 195.291 402.54C194.671 402.54 194.188 402.779 193.842 403.258C193.495 403.736 193.322 404.445 193.322 405.384ZM205.456 399.812V401.604H206.837V402.581H205.456V407.168C205.456 407.464 205.518 407.688 205.641 407.838C205.764 407.984 205.973 408.057 206.27 408.057C206.415 408.057 206.616 408.029 206.871 407.975V409C206.538 409.091 206.215 409.137 205.9 409.137C205.335 409.137 204.909 408.966 204.622 408.624C204.335 408.282 204.191 407.797 204.191 407.168V402.581H202.845V401.604H204.191V399.812H205.456ZM207.849 405.233C207.849 404.509 207.99 403.857 208.272 403.278C208.56 402.7 208.956 402.253 209.462 401.938C209.972 401.624 210.553 401.467 211.205 401.467C212.212 401.467 213.026 401.815 213.646 402.513C214.27 403.21 214.582 404.137 214.582 405.295V405.384C214.582 406.104 214.443 406.751 214.165 407.325C213.892 407.895 213.497 408.339 212.982 408.658C212.472 408.977 211.884 409.137 211.219 409.137C210.216 409.137 209.403 408.788 208.778 408.091C208.159 407.394 207.849 406.471 207.849 405.322V405.233ZM209.12 405.384C209.12 406.204 209.309 406.863 209.688 407.359C210.07 407.856 210.581 408.104 211.219 408.104C211.861 408.104 212.372 407.854 212.75 407.353C213.128 406.847 213.317 406.14 213.317 405.233C213.317 404.422 213.124 403.766 212.736 403.265C212.354 402.759 211.843 402.506 211.205 402.506C210.581 402.506 210.077 402.754 209.694 403.251C209.312 403.748 209.12 404.459 209.12 405.384ZM225.902 405.384C225.902 406.514 225.643 407.423 225.123 408.111C224.604 408.795 223.906 409.137 223.031 409.137C222.097 409.137 221.375 408.806 220.864 408.146L220.803 409H219.641V398.5H220.905V402.417C221.416 401.784 222.12 401.467 223.018 401.467C223.915 401.467 224.619 401.806 225.13 402.485C225.645 403.164 225.902 404.094 225.902 405.274V405.384ZM224.638 405.24C224.638 404.379 224.471 403.714 224.139 403.244C223.806 402.775 223.327 402.54 222.703 402.54C221.869 402.54 221.27 402.927 220.905 403.702V406.901C221.293 407.676 221.896 408.063 222.717 408.063C223.323 408.063 223.795 407.829 224.132 407.359C224.469 406.89 224.638 406.184 224.638 405.24ZM230.571 409.137C229.569 409.137 228.753 408.809 228.124 408.152C227.495 407.492 227.181 406.61 227.181 405.507V405.274C227.181 404.541 227.32 403.887 227.598 403.312C227.88 402.734 228.272 402.283 228.773 401.959C229.279 401.631 229.826 401.467 230.414 401.467C231.376 401.467 232.123 401.784 232.656 402.417C233.189 403.05 233.456 403.957 233.456 405.138V405.664H228.445C228.464 406.393 228.675 406.983 229.081 407.435C229.491 407.881 230.011 408.104 230.64 408.104C231.086 408.104 231.465 408.013 231.774 407.831C232.084 407.649 232.355 407.407 232.588 407.106L233.36 407.708C232.741 408.66 231.811 409.137 230.571 409.137ZM230.414 402.506C229.904 402.506 229.475 402.693 229.129 403.066C228.783 403.436 228.568 403.955 228.486 404.625H232.191V404.529C232.155 403.887 231.982 403.39 231.672 403.039C231.362 402.684 230.943 402.506 230.414 402.506ZM242.965 409C242.892 408.854 242.833 408.594 242.787 408.221C242.199 408.831 241.497 409.137 240.682 409.137C239.952 409.137 239.353 408.932 238.884 408.521C238.419 408.107 238.187 407.583 238.187 406.949C238.187 406.179 238.478 405.582 239.062 405.158C239.649 404.73 240.474 404.516 241.536 404.516H242.767V403.935C242.767 403.493 242.634 403.142 242.37 402.882C242.106 402.618 241.716 402.485 241.201 402.485C240.75 402.485 240.372 402.599 240.066 402.827C239.761 403.055 239.608 403.331 239.608 403.654H238.337C238.337 403.285 238.467 402.93 238.727 402.588C238.991 402.242 239.346 401.968 239.793 401.768C240.244 401.567 240.739 401.467 241.276 401.467C242.129 401.467 242.796 401.681 243.279 402.109C243.762 402.533 244.013 403.119 244.031 403.866V407.271C244.031 407.95 244.118 408.49 244.291 408.891V409H242.965ZM240.866 408.036C241.263 408.036 241.639 407.934 241.994 407.729C242.35 407.523 242.607 407.257 242.767 406.929V405.411H241.775C240.226 405.411 239.451 405.865 239.451 406.771C239.451 407.168 239.583 407.478 239.848 407.701C240.112 407.924 240.451 408.036 240.866 408.036ZM247.21 401.604L247.251 402.533C247.816 401.822 248.554 401.467 249.466 401.467C251.029 401.467 251.817 402.349 251.831 404.112V409H250.566V404.105C250.562 403.572 250.439 403.178 250.197 402.923C249.96 402.668 249.589 402.54 249.083 402.54C248.673 402.54 248.313 402.649 248.003 402.868C247.693 403.087 247.451 403.374 247.278 403.729V409H246.014V401.604H247.21ZM253.403 405.233C253.403 404.509 253.545 403.857 253.827 403.278C254.114 402.7 254.511 402.253 255.017 401.938C255.527 401.624 256.108 401.467 256.76 401.467C257.767 401.467 258.58 401.815 259.2 402.513C259.825 403.21 260.137 404.137 260.137 405.295V405.384C260.137 406.104 259.998 406.751 259.72 407.325C259.446 407.895 259.052 408.339 258.537 408.658C258.027 408.977 257.439 409.137 256.773 409.137C255.771 409.137 254.957 408.788 254.333 408.091C253.713 407.394 253.403 406.471 253.403 405.322V405.233ZM254.675 405.384C254.675 406.204 254.864 406.863 255.242 407.359C255.625 407.856 256.135 408.104 256.773 408.104C257.416 408.104 257.926 407.854 258.305 407.353C258.683 406.847 258.872 406.14 258.872 405.233C258.872 404.422 258.678 403.766 258.291 403.265C257.908 402.759 257.398 402.506 256.76 402.506C256.135 402.506 255.632 402.754 255.249 403.251C254.866 403.748 254.675 404.459 254.675 405.384ZM263.438 399.812V401.604H264.819V402.581H263.438V407.168C263.438 407.464 263.5 407.688 263.623 407.838C263.746 407.984 263.956 408.057 264.252 408.057C264.398 408.057 264.598 408.029 264.854 407.975V409C264.521 409.091 264.197 409.137 263.883 409.137C263.318 409.137 262.892 408.966 262.604 408.624C262.317 408.282 262.174 407.797 262.174 407.168V402.581H260.827V401.604H262.174V399.812H263.438ZM267.567 402.499C268.128 401.811 268.857 401.467 269.755 401.467C271.318 401.467 272.106 402.349 272.12 404.112V409H270.855V404.105C270.851 403.572 270.728 403.178 270.486 402.923C270.249 402.668 269.878 402.54 269.372 402.54C268.962 402.54 268.602 402.649 268.292 402.868C267.982 403.087 267.741 403.374 267.567 403.729V409H266.303V398.5H267.567V402.499ZM277.083 409.137C276.08 409.137 275.265 408.809 274.636 408.152C274.007 407.492 273.692 406.61 273.692 405.507V405.274C273.692 404.541 273.831 403.887 274.109 403.312C274.392 402.734 274.784 402.283 275.285 401.959C275.791 401.631 276.338 401.467 276.926 401.467C277.887 401.467 278.635 401.784 279.168 402.417C279.701 403.05 279.968 403.957 279.968 405.138V405.664H274.957C274.975 406.393 275.187 406.983 275.593 407.435C276.003 407.881 276.522 408.104 277.151 408.104C277.598 408.104 277.976 408.013 278.286 407.831C278.596 407.649 278.867 407.407 279.1 407.106L279.872 407.708C279.252 408.66 278.323 409.137 277.083 409.137ZM276.926 402.506C276.415 402.506 275.987 402.693 275.641 403.066C275.294 403.436 275.08 403.955 274.998 404.625H278.703V404.529C278.667 403.887 278.493 403.39 278.184 403.039C277.874 402.684 277.454 402.506 276.926 402.506ZM285.013 402.738C284.821 402.706 284.614 402.69 284.391 402.69C283.561 402.69 282.998 403.044 282.702 403.75V409H281.438V401.604H282.668L282.688 402.458C283.103 401.797 283.691 401.467 284.452 401.467C284.698 401.467 284.885 401.499 285.013 401.562V402.738ZM294.221 409C294.148 408.854 294.089 408.594 294.043 408.221C293.455 408.831 292.753 409.137 291.938 409.137C291.208 409.137 290.609 408.932 290.14 408.521C289.675 408.107 289.442 407.583 289.442 406.949C289.442 406.179 289.734 405.582 290.317 405.158C290.905 404.73 291.73 404.516 292.792 404.516H294.022V403.935C294.022 403.493 293.89 403.142 293.626 402.882C293.362 402.618 292.972 402.485 292.457 402.485C292.006 402.485 291.628 402.599 291.322 402.827C291.017 403.055 290.864 403.331 290.864 403.654H289.593C289.593 403.285 289.723 402.93 289.982 402.588C290.247 402.242 290.602 401.968 291.049 401.768C291.5 401.567 291.994 401.467 292.532 401.467C293.384 401.467 294.052 401.681 294.535 402.109C295.018 402.533 295.269 403.119 295.287 403.866V407.271C295.287 407.95 295.374 408.49 295.547 408.891V409H294.221ZM292.122 408.036C292.519 408.036 292.895 407.934 293.25 407.729C293.605 407.523 293.863 407.257 294.022 406.929V405.411H293.031C291.482 405.411 290.707 405.865 290.707 406.771C290.707 407.168 290.839 407.478 291.104 407.701C291.368 407.924 291.707 408.036 292.122 408.036ZM303.518 405.384C303.518 406.509 303.26 407.416 302.745 408.104C302.23 408.793 301.533 409.137 300.653 409.137C299.756 409.137 299.049 408.852 298.534 408.282V411.844H297.27V401.604H298.425L298.486 402.424C299.001 401.786 299.717 401.467 300.633 401.467C301.521 401.467 302.223 401.802 302.738 402.472C303.258 403.142 303.518 404.074 303.518 405.268V405.384ZM302.253 405.24C302.253 404.406 302.075 403.748 301.72 403.265C301.364 402.782 300.877 402.54 300.257 402.54C299.491 402.54 298.917 402.88 298.534 403.559V407.093C298.912 407.767 299.491 408.104 300.271 408.104C300.877 408.104 301.357 407.865 301.713 407.387C302.073 406.904 302.253 406.188 302.253 405.24ZM311.379 405.384C311.379 406.509 311.121 407.416 310.606 408.104C310.091 408.793 309.394 409.137 308.515 409.137C307.617 409.137 306.91 408.852 306.396 408.282V411.844H305.131V401.604H306.286L306.348 402.424C306.863 401.786 307.578 401.467 308.494 401.467C309.383 401.467 310.085 401.802 310.6 402.472C311.119 403.142 311.379 404.074 311.379 405.268V405.384ZM310.114 405.24C310.114 404.406 309.937 403.748 309.581 403.265C309.226 402.782 308.738 402.54 308.118 402.54C307.353 402.54 306.778 402.88 306.396 403.559V407.093C306.774 407.767 307.353 408.104 308.132 408.104C308.738 408.104 309.219 407.865 309.574 407.387C309.934 406.904 310.114 406.188 310.114 405.24ZM315.911 405.028C315.911 406.045 315.777 407.02 315.508 407.954C315.243 408.884 314.836 409.743 314.284 410.531C313.737 411.32 313.163 411.88 312.562 412.213L312.295 411.44C312.997 410.903 313.56 410.069 313.983 408.938C314.412 407.804 314.631 406.546 314.64 405.165V404.946C314.64 403.989 314.539 403.101 314.339 402.28C314.138 401.455 313.858 400.717 313.498 400.065C313.143 399.414 312.742 398.906 312.295 398.541L312.562 397.769C313.163 398.101 313.735 398.657 314.277 399.437C314.824 400.216 315.232 401.075 315.501 402.014C315.774 402.952 315.911 403.957 315.911 405.028Z" fill="#2D3E50"/>
<path d="M85.2148 183.648C85.2148 184.435 85.0521 185.036 84.7266 185.453C84.401 185.87 83.9245 186.078 83.2969 186.078C82.6771 186.078 82.2031 185.874 81.875 185.465C81.5469 185.056 81.3789 184.47 81.3711 183.707V182.66C81.3711 181.866 81.5352 181.263 81.8633 180.852C82.194 180.44 82.6693 180.234 83.2891 180.234C83.9089 180.234 84.3828 180.439 84.7109 180.848C85.0391 181.254 85.207 181.839 85.2148 182.602V183.648ZM84.0859 182.5C84.0859 182.029 84.0208 181.686 83.8906 181.473C83.763 181.257 83.5625 181.148 83.2891 181.148C83.0234 181.148 82.8268 181.251 82.6992 181.457C82.5742 181.66 82.5078 181.979 82.5 182.414V183.797C82.5 184.26 82.5625 184.605 82.6875 184.832C82.8151 185.056 83.0182 185.168 83.2969 185.168C83.5729 185.168 83.7721 185.06 83.8945 184.844C84.0169 184.628 84.0807 184.297 84.0859 183.852V182.5ZM89.8477 180.945L87.6484 186H86.457L88.6602 181.227H85.832V180.312H89.8477V180.945ZM90.6758 185.445C90.6758 185.266 90.7357 185.12 90.8555 185.008C90.9779 184.896 91.1302 184.84 91.3125 184.84C91.4974 184.84 91.6497 184.896 91.7695 185.008C91.8919 185.12 91.9531 185.266 91.9531 185.445C91.9531 185.622 91.8932 185.767 91.7734 185.879C91.6536 185.988 91.5 186.043 91.3125 186.043C91.1276 186.043 90.9753 185.988 90.8555 185.879C90.7357 185.767 90.6758 185.622 90.6758 185.445ZM90.6758 182.246C90.6758 182.066 90.7357 181.921 90.8555 181.809C90.9779 181.697 91.1302 181.641 91.3125 181.641C91.4974 181.641 91.6497 181.697 91.7695 181.809C91.8919 181.921 91.9531 182.066 91.9531 182.246C91.9531 182.423 91.8932 182.568 91.7734 182.68C91.6536 182.789 91.5 182.844 91.3125 182.844C91.1276 182.844 90.9753 182.789 90.8555 182.68C90.7357 182.568 90.6758 182.423 90.6758 182.246ZM96.6602 183.648C96.6602 184.435 96.4974 185.036 96.1719 185.453C95.8464 185.87 95.3698 186.078 94.7422 186.078C94.1224 186.078 93.6484 185.874 93.3203 185.465C92.9922 185.056 92.8242 184.47 92.8164 183.707V182.66C92.8164 181.866 92.9805 181.263 93.3086 180.852C93.6393 180.44 94.1146 180.234 94.7344 180.234C95.3542 180.234 95.8281 180.439 96.1562 180.848C96.4844 181.254 96.6523 181.839 96.6602 182.602V183.648ZM95.5312 182.5C95.5312 182.029 95.4661 181.686 95.3359 181.473C95.2083 181.257 95.0078 181.148 94.7344 181.148C94.4688 181.148 94.2721 181.251 94.1445 181.457C94.0195 181.66 93.9531 181.979 93.9453 182.414V183.797C93.9453 184.26 94.0078 184.605 94.1328 184.832C94.2604 185.056 94.4635 185.168 94.7422 185.168C95.0182 185.168 95.2174 185.06 95.3398 184.844C95.4622 184.628 95.526 184.297 95.5312 183.852V182.5ZM101.254 183.648C101.254 184.435 101.091 185.036 100.766 185.453C100.44 185.87 99.9635 186.078 99.3359 186.078C98.7161 186.078 98.2422 185.874 97.9141 185.465C97.5859 185.056 97.418 184.47 97.4102 183.707V182.66C97.4102 181.866 97.5742 181.263 97.9023 180.852C98.2331 180.44 98.7083 180.234 99.3281 180.234C99.9479 180.234 100.422 180.439 100.75 180.848C101.078 181.254 101.246 181.839 101.254 182.602V183.648ZM100.125 182.5C100.125 182.029 100.06 181.686 99.9297 181.473C99.8021 181.257 99.6016 181.148 99.3281 181.148C99.0625 181.148 98.8659 181.251 98.7383 181.457C98.6133 181.66 98.5469 181.979 98.5391 182.414V183.797C98.5391 184.26 98.6016 184.605 98.7266 184.832C98.8542 185.056 99.0573 185.168 99.3359 185.168C99.612 185.168 99.8112 185.06 99.9336 184.844C100.056 184.628 100.12 184.297 100.125 183.852V182.5Z" fill="#2D3E50"/>
<path d="M168.129 186H167V181.648L165.652 182.066V181.148L168.008 180.305H168.129V186ZM171.129 182.656H171.73C172.017 182.656 172.229 182.585 172.367 182.441C172.505 182.298 172.574 182.108 172.574 181.871C172.574 181.642 172.505 181.464 172.367 181.336C172.232 181.208 172.044 181.145 171.805 181.145C171.589 181.145 171.408 181.204 171.262 181.324C171.116 181.441 171.043 181.595 171.043 181.785H169.914C169.914 181.488 169.993 181.223 170.152 180.988C170.314 180.751 170.538 180.566 170.824 180.434C171.113 180.301 171.431 180.234 171.777 180.234C172.379 180.234 172.85 180.379 173.191 180.668C173.533 180.954 173.703 181.35 173.703 181.855C173.703 182.116 173.624 182.355 173.465 182.574C173.306 182.793 173.098 182.961 172.84 183.078C173.16 183.193 173.398 183.365 173.555 183.594C173.714 183.823 173.793 184.094 173.793 184.406C173.793 184.911 173.608 185.316 173.238 185.621C172.871 185.926 172.384 186.078 171.777 186.078C171.21 186.078 170.745 185.928 170.383 185.629C170.023 185.329 169.844 184.934 169.844 184.441H170.973C170.973 184.655 171.052 184.829 171.211 184.965C171.372 185.1 171.57 185.168 171.805 185.168C172.073 185.168 172.283 185.098 172.434 184.957C172.587 184.814 172.664 184.625 172.664 184.391C172.664 183.823 172.352 183.539 171.727 183.539H171.129V182.656ZM174.676 185.445C174.676 185.266 174.736 185.12 174.855 185.008C174.978 184.896 175.13 184.84 175.312 184.84C175.497 184.84 175.65 184.896 175.77 185.008C175.892 185.12 175.953 185.266 175.953 185.445C175.953 185.622 175.893 185.767 175.773 185.879C175.654 185.988 175.5 186.043 175.312 186.043C175.128 186.043 174.975 185.988 174.855 185.879C174.736 185.767 174.676 185.622 174.676 185.445ZM174.676 182.246C174.676 182.066 174.736 181.921 174.855 181.809C174.978 181.697 175.13 181.641 175.312 181.641C175.497 181.641 175.65 181.697 175.77 181.809C175.892 181.921 175.953 182.066 175.953 182.246C175.953 182.423 175.893 182.568 175.773 182.68C175.654 182.789 175.5 182.844 175.312 182.844C175.128 182.844 174.975 182.789 174.855 182.68C174.736 182.568 174.676 182.423 174.676 182.246ZM180.66 183.648C180.66 184.435 180.497 185.036 180.172 185.453C179.846 185.87 179.37 186.078 178.742 186.078C178.122 186.078 177.648 185.874 177.32 185.465C176.992 185.056 176.824 184.47 176.816 183.707V182.66C176.816 181.866 176.98 181.263 177.309 180.852C177.639 180.44 178.115 180.234 178.734 180.234C179.354 180.234 179.828 180.439 180.156 180.848C180.484 181.254 180.652 181.839 180.66 182.602V183.648ZM179.531 182.5C179.531 182.029 179.466 181.686 179.336 181.473C179.208 181.257 179.008 181.148 178.734 181.148C178.469 181.148 178.272 181.251 178.145 181.457C178.02 181.66 177.953 181.979 177.945 182.414V183.797C177.945 184.26 178.008 184.605 178.133 184.832C178.26 185.056 178.464 185.168 178.742 185.168C179.018 185.168 179.217 185.06 179.34 184.844C179.462 184.628 179.526 184.297 179.531 183.852V182.5ZM185.254 183.648C185.254 184.435 185.091 185.036 184.766 185.453C184.44 185.87 183.964 186.078 183.336 186.078C182.716 186.078 182.242 185.874 181.914 185.465C181.586 185.056 181.418 184.47 181.41 183.707V182.66C181.41 181.866 181.574 181.263 181.902 180.852C182.233 180.44 182.708 180.234 183.328 180.234C183.948 180.234 184.422 180.439 184.75 180.848C185.078 181.254 185.246 181.839 185.254 182.602V183.648ZM184.125 182.5C184.125 182.029 184.06 181.686 183.93 181.473C183.802 181.257 183.602 181.148 183.328 181.148C183.062 181.148 182.866 181.251 182.738 181.457C182.613 181.66 182.547 181.979 182.539 182.414V183.797C182.539 184.26 182.602 184.605 182.727 184.832C182.854 185.056 183.057 185.168 183.336 185.168C183.612 185.168 183.811 185.06 183.934 184.844C184.056 184.628 184.12 184.297 184.125 183.852V182.5Z" fill="#2D3E50"/>
<rect width="398" height="62" fill="#2DCC70"/>
<path d="M129.513 34.0552H127.295V39H124.512V25.4922H129.531C131.127 25.4922 132.358 25.8478 133.224 26.5591C134.09 27.2703 134.522 28.2754 134.522 29.5742C134.522 30.4958 134.321 31.2658 133.919 31.8843C133.524 32.4966 132.921 32.9852 132.11 33.3501L135.033 38.8701V39H132.045L129.513 34.0552ZM127.295 31.8008H129.541C130.239 31.8008 130.781 31.6245 131.164 31.272C131.548 30.9132 131.739 30.4215 131.739 29.7969C131.739 29.1598 131.557 28.6589 131.192 28.2939C130.833 27.929 130.28 27.7466 129.531 27.7466H127.295V31.8008ZM141.091 39.1855C139.619 39.1855 138.419 38.734 137.491 37.8311C136.57 36.9281 136.109 35.7251 136.109 34.2222V33.9624C136.109 32.9543 136.304 32.0544 136.693 31.2627C137.083 30.4648 137.633 29.8525 138.345 29.4258C139.062 28.9928 139.879 28.7764 140.794 28.7764C142.167 28.7764 143.246 29.2093 144.032 30.0752C144.823 30.9411 145.219 32.1688 145.219 33.7583V34.853H138.827C138.914 35.5086 139.174 36.0343 139.606 36.4302C140.046 36.826 140.599 37.0239 141.267 37.0239C142.3 37.0239 143.107 36.6497 143.688 35.9014L145.006 37.3765C144.604 37.9455 144.06 38.3908 143.373 38.7124C142.687 39.0278 141.926 39.1855 141.091 39.1855ZM140.785 30.9473C140.253 30.9473 139.82 31.1266 139.486 31.4854C139.158 31.8441 138.948 32.3574 138.855 33.0254H142.584V32.812C142.572 32.2183 142.411 31.7606 142.102 31.439C141.793 31.1112 141.354 30.9473 140.785 30.9473ZM149.264 28.9619L149.348 30.0845C150.059 29.2124 151.021 28.7764 152.233 28.7764C153.526 28.7764 154.413 29.2866 154.896 30.3071C155.601 29.2866 156.606 28.7764 157.911 28.7764C158.999 28.7764 159.809 29.0949 160.341 29.7319C160.873 30.3628 161.139 31.3153 161.139 32.5894V39H158.449V32.5986C158.449 32.0296 158.337 31.6152 158.115 31.3555C157.892 31.0895 157.499 30.9565 156.937 30.9565C156.132 30.9565 155.576 31.34 155.267 32.1069L155.276 39H152.595V32.6079C152.595 32.0265 152.48 31.606 152.251 31.3462C152.023 31.0864 151.633 30.9565 151.083 30.9565C150.322 30.9565 149.771 31.272 149.431 31.9028V39H146.75V28.9619H149.264ZM166.038 39H163.347V28.9619H166.038V39ZM163.189 26.3643C163.189 25.9622 163.322 25.6313 163.588 25.3716C163.861 25.1118 164.229 24.9819 164.692 24.9819C165.15 24.9819 165.515 25.1118 165.787 25.3716C166.059 25.6313 166.195 25.9622 166.195 26.3643C166.195 26.7725 166.056 27.1064 165.778 27.3662C165.506 27.626 165.144 27.7559 164.692 27.7559C164.241 27.7559 163.876 27.626 163.598 27.3662C163.326 27.1064 163.189 26.7725 163.189 26.3643ZM170.723 28.9619L170.806 30.1216C171.524 29.2248 172.485 28.7764 173.691 28.7764C174.755 28.7764 175.547 29.0887 176.066 29.7134C176.586 30.3381 176.852 31.272 176.864 32.5151V39H174.183V32.5801C174.183 32.0111 174.059 31.5998 173.812 31.3462C173.565 31.0864 173.153 30.9565 172.578 30.9565C171.824 30.9565 171.258 31.2782 170.88 31.9214V39H168.199V28.9619H170.723ZM178.488 33.9067C178.488 32.342 178.837 31.0957 179.536 30.168C180.241 29.2402 181.203 28.7764 182.421 28.7764C183.399 28.7764 184.206 29.1413 184.843 29.8711V24.75H187.533V39H185.112L184.982 37.9331C184.314 38.7681 183.454 39.1855 182.403 39.1855C181.222 39.1855 180.272 38.7217 179.555 37.7939C178.843 36.86 178.488 35.5643 178.488 33.9067ZM181.169 34.1016C181.169 35.0417 181.333 35.7622 181.661 36.2632C181.988 36.7642 182.465 37.0146 183.089 37.0146C183.918 37.0146 184.503 36.6652 184.843 35.9663V32.0049C184.509 31.306 183.931 30.9565 183.108 30.9565C181.815 30.9565 181.169 32.0049 181.169 34.1016ZM194.231 39.1855C192.759 39.1855 191.56 38.734 190.632 37.8311C189.71 36.9281 189.25 35.7251 189.25 34.2222V33.9624C189.25 32.9543 189.444 32.0544 189.834 31.2627C190.224 30.4648 190.774 29.8525 191.485 29.4258C192.203 28.9928 193.019 28.7764 193.935 28.7764C195.308 28.7764 196.387 29.2093 197.172 30.0752C197.964 30.9411 198.36 32.1688 198.36 33.7583V34.853H191.968C192.054 35.5086 192.314 36.0343 192.747 36.4302C193.186 36.826 193.74 37.0239 194.408 37.0239C195.441 37.0239 196.248 36.6497 196.829 35.9014L198.146 37.3765C197.744 37.9455 197.2 38.3908 196.514 38.7124C195.827 39.0278 195.066 39.1855 194.231 39.1855ZM193.925 30.9473C193.393 30.9473 192.96 31.1266 192.626 31.4854C192.299 31.8441 192.088 32.3574 191.996 33.0254H195.725V32.812C195.713 32.2183 195.552 31.7606 195.243 31.439C194.933 31.1112 194.494 30.9473 193.925 30.9473ZM205.531 31.4761C205.166 31.4266 204.845 31.4019 204.566 31.4019C203.552 31.4019 202.887 31.7451 202.572 32.4316V39H199.891V28.9619H202.423L202.498 30.1587C203.036 29.2371 203.781 28.7764 204.733 28.7764C205.03 28.7764 205.309 28.8166 205.568 28.897L205.531 31.4761ZM218.742 35.4561C218.742 34.9303 218.557 34.5283 218.186 34.25C217.814 33.9655 217.146 33.6686 216.182 33.3594C215.217 33.0439 214.453 32.7347 213.89 32.4316C212.356 31.6029 211.589 30.4865 211.589 29.0825C211.589 28.3527 211.793 27.7033 212.202 27.1343C212.616 26.5591 213.207 26.1107 213.974 25.7891C214.747 25.4674 215.613 25.3066 216.571 25.3066C217.536 25.3066 218.396 25.4829 219.15 25.8354C219.905 26.1818 220.489 26.6735 220.904 27.3105C221.324 27.9476 221.535 28.6712 221.535 29.4814H218.751C218.751 28.863 218.557 28.3836 218.167 28.0435C217.777 27.6971 217.23 27.5239 216.525 27.5239C215.845 27.5239 215.316 27.6693 214.938 27.96C214.561 28.2445 214.373 28.6217 214.373 29.0918C214.373 29.5309 214.592 29.8989 215.031 30.1958C215.477 30.4927 216.129 30.771 216.989 31.0308C218.572 31.507 219.726 32.0977 220.449 32.8027C221.173 33.5078 221.535 34.3861 221.535 35.4375C221.535 36.6064 221.092 37.5249 220.208 38.1929C219.324 38.8547 218.133 39.1855 216.636 39.1855C215.597 39.1855 214.651 38.9969 213.797 38.6196C212.944 38.2362 212.291 37.7135 211.84 37.0518C211.395 36.39 211.172 35.623 211.172 34.751H213.964C213.964 36.2415 214.855 36.9868 216.636 36.9868C217.298 36.9868 217.814 36.8538 218.186 36.5879C218.557 36.3158 218.742 35.9385 218.742 35.4561ZM226.999 35.2056L228.854 28.9619H231.73L227.695 40.5586L227.472 41.0874C226.872 42.3986 225.883 43.0542 224.503 43.0542C224.114 43.0542 223.718 42.9954 223.316 42.8779V40.8462L223.724 40.8555C224.231 40.8555 224.609 40.7782 224.856 40.6235C225.11 40.4689 225.307 40.2122 225.45 39.8535L225.765 39.0278L222.249 28.9619H225.134L226.999 35.2056ZM238.225 36.2261C238.225 35.8983 238.061 35.6416 237.733 35.4561C237.411 35.2643 236.892 35.0942 236.174 34.9458C233.787 34.4448 232.593 33.4305 232.593 31.9028C232.593 31.0122 232.961 30.27 233.697 29.6763C234.439 29.0763 235.407 28.7764 236.601 28.7764C237.875 28.7764 238.893 29.0763 239.653 29.6763C240.42 30.2762 240.804 31.0555 240.804 32.0142H238.123C238.123 31.6307 237.999 31.3153 237.751 31.0679C237.504 30.8143 237.118 30.6875 236.592 30.6875C236.14 30.6875 235.791 30.7896 235.543 30.9937C235.296 31.1978 235.172 31.4575 235.172 31.7729C235.172 32.0698 235.312 32.311 235.59 32.4966C235.874 32.6759 236.351 32.8337 237.019 32.9697C237.687 33.0996 238.249 33.248 238.707 33.415C240.123 33.9346 240.832 34.8345 240.832 36.1147C240.832 37.0301 240.439 37.7723 239.653 38.3413C238.868 38.9041 237.854 39.1855 236.61 39.1855C235.769 39.1855 235.021 39.0371 234.365 38.7402C233.716 38.4372 233.206 38.0259 232.834 37.5063C232.463 36.9806 232.278 36.4147 232.278 35.8086H234.82C234.845 36.2848 235.021 36.6497 235.349 36.9033C235.676 37.1569 236.116 37.2837 236.666 37.2837C237.179 37.2837 237.566 37.1878 237.826 36.9961C238.092 36.7982 238.225 36.5415 238.225 36.2261ZM245.776 26.4941V28.9619H247.493V30.9287H245.776V35.9385C245.776 36.3096 245.847 36.5755 245.99 36.7363C246.132 36.8971 246.404 36.9775 246.806 36.9775C247.103 36.9775 247.366 36.9559 247.595 36.9126V38.9443C247.069 39.1051 246.528 39.1855 245.971 39.1855C244.091 39.1855 243.132 38.2362 243.095 36.3374V30.9287H241.629V28.9619H243.095V26.4941H245.776ZM253.606 39.1855C252.134 39.1855 250.935 38.734 250.007 37.8311C249.085 36.9281 248.625 35.7251 248.625 34.2222V33.9624C248.625 32.9543 248.819 32.0544 249.209 31.2627C249.599 30.4648 250.149 29.8525 250.86 29.4258C251.578 28.9928 252.394 28.7764 253.31 28.7764C254.683 28.7764 255.762 29.2093 256.547 30.0752C257.339 30.9411 257.735 32.1688 257.735 33.7583V34.853H251.343C251.429 35.5086 251.689 36.0343 252.122 36.4302C252.561 36.826 253.115 37.0239 253.783 37.0239C254.816 37.0239 255.623 36.6497 256.204 35.9014L257.521 37.3765C257.119 37.9455 256.575 38.3908 255.889 38.7124C255.202 39.0278 254.441 39.1855 253.606 39.1855ZM253.3 30.9473C252.768 30.9473 252.335 31.1266 252.001 31.4854C251.674 31.8441 251.463 32.3574 251.371 33.0254H255.1V32.812C255.088 32.2183 254.927 31.7606 254.618 31.439C254.308 31.1112 253.869 30.9473 253.3 30.9473ZM261.78 28.9619L261.863 30.0845C262.575 29.2124 263.536 28.7764 264.749 28.7764C266.041 28.7764 266.929 29.2866 267.411 30.3071C268.116 29.2866 269.121 28.7764 270.426 28.7764C271.515 28.7764 272.325 29.0949 272.857 29.7319C273.389 30.3628 273.655 31.3153 273.655 32.5894V39H270.964V32.5986C270.964 32.0296 270.853 31.6152 270.63 31.3555C270.408 31.0895 270.015 30.9565 269.452 30.9565C268.648 30.9565 268.091 31.34 267.782 32.1069L267.792 39H265.11V32.6079C265.11 32.0265 264.996 31.606 264.767 31.3462C264.538 31.0864 264.149 30.9565 263.598 30.9565C262.837 30.9565 262.287 31.272 261.947 31.9028V39H259.266V28.9619H261.78Z" fill="white"/>
<rect x="345" y="18" width="40" height="6" rx="3" fill="#27AE61"/>
<rect x="345" y="38" width="40" height="6" rx="3" fill="#27AE61"/>
<rect x="345" y="28" width="40" height="6" rx="3" fill="#27AE61"/>
<rect x="15" y="30.6777" width="25" height="6" rx="3" transform="rotate(-45 15 30.6777)" fill="#27AE61"/>
<rect x="19.2427" y="26.3936" width="25" height="6" rx="3" transform="rotate(45 19.2427 26.3936)" fill="#27AE61"/>
<rect x="20" y="79" width="56" height="31" rx="14" fill="#3598DB"/>
<circle cx="60.5" cy="94.5" r="13.5" fill="#C4C4C4"/>
<mask id="mask0" mask-type="alpha" maskUnits="userSpaceOnUse" x="73" y="156" width="38" height="13">
<rect width="38" height="13" transform="matrix(1 0 0 -1 73 169)" fill="#C4C4C4"/>
</mask>
<g mask="url(#mask0)">
<circle cx="92.5" cy="173.5" r="14.5" fill="#F39C11"/>
</g>
<circle cx="176.5" cy="141.5" r="14.5" fill="#F39C11"/>
<circle cx="315.121" cy="140.879" r="13.8793" fill="#95A5A5"/>
<circle cx="307.879" cy="140.879" r="13.8793" fill="white"/>
<circle cx="246.121" cy="169.879" r="13.8793" fill="#95A5A5"/>
<circle cx="238.879" cy="169.879" r="13.8793" fill="white"/>
<rect x="240" y="170" width="26" height="14" fill="white"/>
<rect x="41.5" y="191.5" width="315" height="46" fill="#ECF0F1" stroke="#BEC3C7"/>
<path d="M246.129 186H245V181.648L243.652 182.066V181.148L246.008 180.305H246.129V186ZM251.848 180.945L249.648 186H248.457L250.66 181.227H247.832V180.312H251.848V180.945ZM252.676 185.445C252.676 185.266 252.736 185.12 252.855 185.008C252.978 184.896 253.13 184.84 253.312 184.84C253.497 184.84 253.65 184.896 253.77 185.008C253.892 185.12 253.953 185.266 253.953 185.445C253.953 185.622 253.893 185.767 253.773 185.879C253.654 185.988 253.5 186.043 253.312 186.043C253.128 186.043 252.975 185.988 252.855 185.879C252.736 185.767 252.676 185.622 252.676 185.445ZM252.676 182.246C252.676 182.066 252.736 181.921 252.855 181.809C252.978 181.697 253.13 181.641 253.312 181.641C253.497 181.641 253.65 181.697 253.77 181.809C253.892 181.921 253.953 182.066 253.953 182.246C253.953 182.423 253.893 182.568 253.773 182.68C253.654 182.789 253.5 182.844 253.312 182.844C253.128 182.844 252.975 182.789 252.855 182.68C252.736 182.568 252.676 182.423 252.676 182.246ZM258.66 183.648C258.66 184.435 258.497 185.036 258.172 185.453C257.846 185.87 257.37 186.078 256.742 186.078C256.122 186.078 255.648 185.874 255.32 185.465C254.992 185.056 254.824 184.47 254.816 183.707V182.66C254.816 181.866 254.98 181.263 255.309 180.852C255.639 180.44 256.115 180.234 256.734 180.234C257.354 180.234 257.828 180.439 258.156 180.848C258.484 181.254 258.652 181.839 258.66 182.602V183.648ZM257.531 182.5C257.531 182.029 257.466 181.686 257.336 181.473C257.208 181.257 257.008 181.148 256.734 181.148C256.469 181.148 256.272 181.251 256.145 181.457C256.02 181.66 255.953 181.979 255.945 182.414V183.797C255.945 184.26 256.008 184.605 256.133 184.832C256.26 185.056 256.464 185.168 256.742 185.168C257.018 185.168 257.217 185.06 257.34 184.844C257.462 184.628 257.526 184.297 257.531 183.852V182.5ZM263.254 183.648C263.254 184.435 263.091 185.036 262.766 185.453C262.44 185.87 261.964 186.078 261.336 186.078C260.716 186.078 260.242 185.874 259.914 185.465C259.586 185.056 259.418 184.47 259.41 183.707V182.66C259.41 181.866 259.574 181.263 259.902 180.852C260.233 180.44 260.708 180.234 261.328 180.234C261.948 180.234 262.422 180.439 262.75 180.848C263.078 181.254 263.246 181.839 263.254 182.602V183.648ZM262.125 182.5C262.125 182.029 262.06 181.686 261.93 181.473C261.802 181.257 261.602 181.148 261.328 181.148C261.062 181.148 260.866 181.251 260.738 181.457C260.613 181.66 260.547 181.979 260.539 182.414V183.797C260.539 184.26 260.602 184.605 260.727 184.832C260.854 185.056 261.057 185.168 261.336 185.168C261.612 185.168 261.811 185.06 261.934 184.844C262.056 184.628 262.12 184.297 262.125 183.852V182.5Z" fill="#2D3E50"/>
<path d="M315.285 186H311.387V185.227L313.227 183.266C313.479 182.99 313.665 182.749 313.785 182.543C313.908 182.337 313.969 182.142 313.969 181.957C313.969 181.704 313.905 181.507 313.777 181.363C313.65 181.217 313.467 181.145 313.23 181.145C312.975 181.145 312.773 181.233 312.625 181.41C312.479 181.585 312.406 181.815 312.406 182.102H311.273C311.273 181.755 311.355 181.439 311.52 181.152C311.686 180.866 311.921 180.642 312.223 180.48C312.525 180.316 312.867 180.234 313.25 180.234C313.836 180.234 314.29 180.375 314.613 180.656C314.939 180.938 315.102 181.335 315.102 181.848C315.102 182.129 315.029 182.415 314.883 182.707C314.737 182.999 314.487 183.339 314.133 183.727L312.84 185.09H315.285V186ZM319.879 186H315.98V185.227L317.82 183.266C318.073 182.99 318.259 182.749 318.379 182.543C318.501 182.337 318.562 182.142 318.562 181.957C318.562 181.704 318.499 181.507 318.371 181.363C318.243 181.217 318.061 181.145 317.824 181.145C317.569 181.145 317.367 181.233 317.219 181.41C317.073 181.585 317 181.815 317 182.102H315.867C315.867 181.755 315.949 181.439 316.113 181.152C316.28 180.866 316.514 180.642 316.816 180.48C317.118 180.316 317.461 180.234 317.844 180.234C318.43 180.234 318.884 180.375 319.207 180.656C319.533 180.938 319.695 181.335 319.695 181.848C319.695 182.129 319.622 182.415 319.477 182.707C319.331 182.999 319.081 183.339 318.727 183.727L317.434 185.09H319.879V186ZM320.676 185.445C320.676 185.266 320.736 185.12 320.855 185.008C320.978 184.896 321.13 184.84 321.312 184.84C321.497 184.84 321.65 184.896 321.77 185.008C321.892 185.12 321.953 185.266 321.953 185.445C321.953 185.622 321.893 185.767 321.773 185.879C321.654 185.988 321.5 186.043 321.312 186.043C321.128 186.043 320.975 185.988 320.855 185.879C320.736 185.767 320.676 185.622 320.676 185.445ZM320.676 182.246C320.676 182.066 320.736 181.921 320.855 181.809C320.978 181.697 321.13 181.641 321.312 181.641C321.497 181.641 321.65 181.697 321.77 181.809C321.892 181.921 321.953 182.066 321.953 182.246C321.953 182.423 321.893 182.568 321.773 182.68C321.654 182.789 321.5 182.844 321.312 182.844C321.128 182.844 320.975 182.789 320.855 182.68C320.736 182.568 320.676 182.423 320.676 182.246ZM326.66 183.648C326.66 184.435 326.497 185.036 326.172 185.453C325.846 185.87 325.37 186.078 324.742 186.078C324.122 186.078 323.648 185.874 323.32 185.465C322.992 185.056 322.824 184.47 322.816 183.707V182.66C322.816 181.866 322.98 181.263 323.309 180.852C323.639 180.44 324.115 180.234 324.734 180.234C325.354 180.234 325.828 180.439 326.156 180.848C326.484 181.254 326.652 181.839 326.66 182.602V183.648ZM325.531 182.5C325.531 182.029 325.466 181.686 325.336 181.473C325.208 181.257 325.008 181.148 324.734 181.148C324.469 181.148 324.272 181.251 324.145 181.457C324.02 181.66 323.953 181.979 323.945 182.414V183.797C323.945 184.26 324.008 184.605 324.133 184.832C324.26 185.056 324.464 185.168 324.742 185.168C325.018 185.168 325.217 185.06 325.34 184.844C325.462 184.628 325.526 184.297 325.531 183.852V182.5ZM331.254 183.648C331.254 184.435 331.091 185.036 330.766 185.453C330.44 185.87 329.964 186.078 329.336 186.078C328.716 186.078 328.242 185.874 327.914 185.465C327.586 185.056 327.418 184.47 327.41 183.707V182.66C327.41 181.866 327.574 181.263 327.902 180.852C328.233 180.44 328.708 180.234 329.328 180.234C329.948 180.234 330.422 180.439 330.75 180.848C331.078 181.254 331.246 181.839 331.254 182.602V183.648ZM330.125 182.5C330.125 182.029 330.06 181.686 329.93 181.473C329.802 181.257 329.602 181.148 329.328 181.148C329.062 181.148 328.866 181.251 328.738 181.457C328.613 181.66 328.547 181.979 328.539 182.414V183.797C328.539 184.26 328.602 184.605 328.727 184.832C328.854 185.056 329.057 185.168 329.336 185.168C329.612 185.168 329.811 185.06 329.934 184.844C330.056 184.628 330.12 184.297 330.125 183.852V182.5Z" fill="#2D3E50"/>
<rect x="96" y="195" width="43" height="38" fill="#27AE61"/>
<rect x="258" y="195" width="43" height="38" fill="#27AE61"/>
<rect x="178" y="195" width="26" height="38" fill="#E67F22"/>
<rect x="308" y="195" width="21" height="38" fill="#E67F22"/>
<circle cx="95.5" cy="252.5" r="6.5" fill="#3598DB"/>
<line x1="95.5" y1="195" x2="95.5" y2="252" stroke="#3598DB"/>
<circle cx="177.5" cy="252.5" r="6.5" fill="#3598DB"/>
<line x1="177.5" y1="195" x2="177.5" y2="252" stroke="#3598DB"/>
<circle cx="204.5" cy="252.5" r="6.5" fill="#3598DB"/>
<line x1="204.5" y1="195" x2="204.5" y2="252" stroke="#3598DB"/>
<circle cx="257.5" cy="252.5" r="6.5" fill="#3598DB"/>
<line x1="257.5" y1="195" x2="257.5" y2="252" stroke="#3598DB"/>
<circle cx="301.5" cy="252.5" r="6.5" fill="#3598DB"/>
<line x1="301.5" y1="195" x2="301.5" y2="252" stroke="#3598DB"/>
<circle cx="307.5" cy="252.5" r="6.5" fill="#3598DB"/>
<line x1="307.5" y1="195" x2="307.5" y2="252" stroke="#3598DB"/>
<circle cx="329.5" cy="252.5" r="6.5" fill="#3598DB"/>
<line x1="329.5" y1="195" x2="329.5" y2="252" stroke="#3598DB"/>
<circle cx="139.5" cy="252.5" r="6.5" fill="#3598DB"/>
<line x1="139.5" y1="195" x2="139.5" y2="252" stroke="#3598DB"/>
<rect x="29" y="313" width="24" height="24" rx="4" fill="#C4C4C4"/>
<rect x="33" y="317" width="16" height="16" rx="5" fill="#3595DB"/>
<rect x="29" y="391" width="24" height="24" rx="4" fill="#C4C4C4"/>
<rect x="76" y="425" width="101" height="24" rx="8" fill="#ECF0F1"/>
<rect x="29" y="352" width="24" height="24" rx="4" fill="#C4C4C4"/>
<circle cx="209.5" cy="362.5" r="8.5" fill="#006ACB"/>
<path d="M208.44 365.197C208.45 364.655 208.511 364.227 208.625 363.912C208.739 363.598 208.971 363.249 209.322 362.866L210.218 361.943C210.601 361.51 210.792 361.046 210.792 360.549C210.792 360.07 210.667 359.697 210.416 359.428C210.165 359.154 209.801 359.018 209.322 359.018C208.857 359.018 208.484 359.141 208.201 359.387C207.919 359.633 207.777 359.963 207.777 360.378H206.513C206.522 359.64 206.784 359.045 207.299 358.594C207.818 358.138 208.493 357.91 209.322 357.91C210.184 357.91 210.854 358.143 211.332 358.607C211.815 359.068 212.057 359.701 212.057 360.508C212.057 361.305 211.688 362.091 210.949 362.866L210.204 363.604C209.871 363.974 209.705 364.505 209.705 365.197H208.44ZM208.386 367.364C208.386 367.159 208.447 366.988 208.57 366.852C208.698 366.71 208.885 366.64 209.131 366.64C209.377 366.64 209.564 366.71 209.691 366.852C209.819 366.988 209.883 367.159 209.883 367.364C209.883 367.569 209.819 367.74 209.691 367.877C209.564 368.009 209.377 368.075 209.131 368.075C208.885 368.075 208.698 368.009 208.57 367.877C208.447 367.74 208.386 367.569 208.386 367.364Z" fill="white"/>
<path d="M96.8945 437.303H93.5195V439.588H97.4805V441H91.7617V432.469H97.4688V433.893H93.5195V435.926H96.8945V437.303ZM98.0195 437.783C98.0195 436.795 98.2402 436.008 98.6816 435.422C99.127 434.836 99.7344 434.543 100.504 434.543C101.121 434.543 101.631 434.773 102.033 435.234V432H103.732V441H102.203L102.121 440.326C101.699 440.854 101.156 441.117 100.492 441.117C99.7461 441.117 99.1465 440.824 98.6934 440.238C98.2441 439.648 98.0195 438.83 98.0195 437.783ZM99.7129 437.906C99.7129 438.5 99.8164 438.955 100.023 439.271C100.23 439.588 100.531 439.746 100.926 439.746C101.449 439.746 101.818 439.525 102.033 439.084V436.582C101.822 436.141 101.457 435.92 100.938 435.92C100.121 435.92 99.7129 436.582 99.7129 437.906ZM106.832 441H105.133V434.66H106.832V441ZM105.033 433.02C105.033 432.766 105.117 432.557 105.285 432.393C105.457 432.229 105.689 432.146 105.982 432.146C106.271 432.146 106.502 432.229 106.674 432.393C106.846 432.557 106.932 432.766 106.932 433.02C106.932 433.277 106.844 433.488 106.668 433.652C106.496 433.816 106.268 433.898 105.982 433.898C105.697 433.898 105.467 433.816 105.291 433.652C105.119 433.488 105.033 433.277 105.033 433.02ZM110.26 433.102V434.66H111.344V435.902H110.26V439.066C110.26 439.301 110.305 439.469 110.395 439.57C110.484 439.672 110.656 439.723 110.91 439.723C111.098 439.723 111.264 439.709 111.408 439.682V440.965C111.076 441.066 110.734 441.117 110.383 441.117C109.195 441.117 108.59 440.518 108.566 439.318V435.902H107.641V434.66H108.566V433.102H110.26ZM117.684 432.469L119.875 438.656L122.055 432.469H124.363V441H122.6V438.668L122.775 434.643L120.473 441H119.266L116.969 434.648L117.145 438.668V441H115.387V432.469H117.684ZM128.705 441.117C127.775 441.117 127.018 440.832 126.432 440.262C125.85 439.691 125.559 438.932 125.559 437.982V437.818C125.559 437.182 125.682 436.613 125.928 436.113C126.174 435.609 126.521 435.223 126.971 434.953C127.424 434.68 127.939 434.543 128.518 434.543C129.385 434.543 130.066 434.816 130.562 435.363C131.062 435.91 131.312 436.686 131.312 437.689V438.381H127.275C127.33 438.795 127.494 439.127 127.768 439.377C128.045 439.627 128.395 439.752 128.816 439.752C129.469 439.752 129.979 439.516 130.346 439.043L131.178 439.975C130.924 440.334 130.58 440.615 130.146 440.818C129.713 441.018 129.232 441.117 128.705 441.117ZM128.512 435.914C128.176 435.914 127.902 436.027 127.691 436.254C127.484 436.48 127.352 436.805 127.293 437.227H129.648V437.092C129.641 436.717 129.539 436.428 129.344 436.225C129.148 436.018 128.871 435.914 128.512 435.914ZM135.713 439.248C135.713 439.041 135.609 438.879 135.402 438.762C135.199 438.641 134.871 438.533 134.418 438.439C132.91 438.123 132.156 437.482 132.156 436.518C132.156 435.955 132.389 435.486 132.854 435.111C133.322 434.732 133.934 434.543 134.688 434.543C135.492 434.543 136.135 434.732 136.615 435.111C137.1 435.49 137.342 435.982 137.342 436.588H135.648C135.648 436.346 135.57 436.146 135.414 435.99C135.258 435.83 135.014 435.75 134.682 435.75C134.396 435.75 134.176 435.814 134.02 435.943C133.863 436.072 133.785 436.236 133.785 436.436C133.785 436.623 133.873 436.775 134.049 436.893C134.229 437.006 134.529 437.105 134.951 437.191C135.373 437.273 135.729 437.367 136.018 437.473C136.912 437.801 137.359 438.369 137.359 439.178C137.359 439.756 137.111 440.225 136.615 440.584C136.119 440.939 135.479 441.117 134.693 441.117C134.162 441.117 133.689 441.023 133.275 440.836C132.865 440.645 132.543 440.385 132.309 440.057C132.074 439.725 131.957 439.367 131.957 438.984H133.562C133.578 439.285 133.689 439.516 133.896 439.676C134.104 439.836 134.381 439.916 134.729 439.916C135.053 439.916 135.297 439.855 135.461 439.734C135.629 439.609 135.713 439.447 135.713 439.248ZM141.889 439.248C141.889 439.041 141.785 438.879 141.578 438.762C141.375 438.641 141.047 438.533 140.594 438.439C139.086 438.123 138.332 437.482 138.332 436.518C138.332 435.955 138.564 435.486 139.029 435.111C139.498 434.732 140.109 434.543 140.863 434.543C141.668 434.543 142.311 434.732 142.791 435.111C143.275 435.49 143.518 435.982 143.518 436.588H141.824C141.824 436.346 141.746 436.146 141.59 435.99C141.434 435.83 141.189 435.75 140.857 435.75C140.572 435.75 140.352 435.814 140.195 435.943C140.039 436.072 139.961 436.236 139.961 436.436C139.961 436.623 140.049 436.775 140.225 436.893C140.404 437.006 140.705 437.105 141.127 437.191C141.549 437.273 141.904 437.367 142.193 437.473C143.088 437.801 143.535 438.369 143.535 439.178C143.535 439.756 143.287 440.225 142.791 440.584C142.295 440.939 141.654 441.117 140.869 441.117C140.338 441.117 139.865 441.023 139.451 440.836C139.041 440.645 138.719 440.385 138.484 440.057C138.25 439.725 138.133 439.367 138.133 438.984H139.738C139.754 439.285 139.865 439.516 140.072 439.676C140.279 439.836 140.557 439.916 140.904 439.916C141.229 439.916 141.473 439.855 141.637 439.734C141.805 439.609 141.889 439.447 141.889 439.248ZM148.305 441C148.227 440.848 148.17 440.658 148.135 440.432C147.725 440.889 147.191 441.117 146.535 441.117C145.914 441.117 145.398 440.938 144.988 440.578C144.582 440.219 144.379 439.766 144.379 439.219C144.379 438.547 144.627 438.031 145.123 437.672C145.623 437.312 146.344 437.131 147.285 437.127H148.064V436.764C148.064 436.471 147.988 436.236 147.836 436.061C147.688 435.885 147.451 435.797 147.127 435.797C146.842 435.797 146.617 435.865 146.453 436.002C146.293 436.139 146.213 436.326 146.213 436.564H144.52C144.52 436.197 144.633 435.857 144.859 435.545C145.086 435.232 145.406 434.988 145.82 434.812C146.234 434.633 146.699 434.543 147.215 434.543C147.996 434.543 148.615 434.74 149.072 435.135C149.533 435.525 149.764 436.076 149.764 436.787V439.535C149.768 440.137 149.852 440.592 150.016 440.9V441H148.305ZM146.904 439.822C147.154 439.822 147.385 439.768 147.596 439.658C147.807 439.545 147.963 439.395 148.064 439.207V438.117H147.432C146.584 438.117 146.133 438.41 146.078 438.996L146.072 439.096C146.072 439.307 146.146 439.48 146.295 439.617C146.443 439.754 146.646 439.822 146.904 439.822ZM150.818 437.783C150.818 436.811 151.049 436.027 151.51 435.434C151.975 434.84 152.6 434.543 153.385 434.543C154.08 434.543 154.621 434.781 155.008 435.258L155.078 434.66H156.613V440.789C156.613 441.344 156.486 441.826 156.232 442.236C155.982 442.646 155.629 442.959 155.172 443.174C154.715 443.389 154.18 443.496 153.566 443.496C153.102 443.496 152.648 443.402 152.207 443.215C151.766 443.031 151.432 442.793 151.205 442.5L151.955 441.469C152.377 441.941 152.889 442.178 153.49 442.178C153.939 442.178 154.289 442.057 154.539 441.814C154.789 441.576 154.914 441.236 154.914 440.795V440.455C154.523 440.896 154.01 441.117 153.373 441.117C152.611 441.117 151.994 440.82 151.521 440.227C151.053 439.629 150.818 438.838 150.818 437.854V437.783ZM152.512 437.906C152.512 438.48 152.627 438.932 152.857 439.26C153.088 439.584 153.404 439.746 153.807 439.746C154.322 439.746 154.691 439.553 154.914 439.166V436.5C154.688 436.113 154.322 435.92 153.818 435.92C153.412 435.92 153.092 436.086 152.857 436.418C152.627 436.75 152.512 437.246 152.512 437.906ZM160.838 441.117C159.908 441.117 159.15 440.832 158.564 440.262C157.982 439.691 157.691 438.932 157.691 437.982V437.818C157.691 437.182 157.814 436.613 158.061 436.113C158.307 435.609 158.654 435.223 159.104 434.953C159.557 434.68 160.072 434.543 160.65 434.543C161.518 434.543 162.199 434.816 162.695 435.363C163.195 435.91 163.445 436.686 163.445 437.689V438.381H159.408C159.463 438.795 159.627 439.127 159.9 439.377C160.178 439.627 160.527 439.752 160.949 439.752C161.602 439.752 162.111 439.516 162.479 439.043L163.311 439.975C163.057 440.334 162.713 440.615 162.279 440.818C161.846 441.018 161.365 441.117 160.838 441.117ZM160.645 435.914C160.309 435.914 160.035 436.027 159.824 436.254C159.617 436.48 159.484 436.805 159.426 437.227H161.781V437.092C161.773 436.717 161.672 436.428 161.477 436.225C161.281 436.018 161.004 435.914 160.645 435.914Z" fill="#2D3E50"/>
<line x1="29" y1="514.5" x2="148" y2="514.5" stroke="#3595DB" stroke-width="3"/>
<line x1="234" y1="514.5" x2="353" y2="514.5" stroke="#3595DB" stroke-width="3"/>
<circle cx="192" cy="516" r="23" fill="#ECF0F1"/>
<rect x="190.2" y="528" width="24" height="3.6" rx="1.8" transform="rotate(-90 190.2 528)" fill="#3595DB"/>
<rect x="180" y="514.2" width="24" height="3.6" rx="1.8" fill="#3595DB"/>
<rect x="33" y="356" width="16" height="16" rx="5" fill="#3595DB"/>
</svg>
