<svg width="398" height="836" viewBox="0 0 398 836" fill="none" xmlns="http://www.w3.org/2000/svg">
<rect width="398" height="836" fill="url(#paint0_linear)"/>
<g filter="url(#filter0_dd)">
<rect x="33" y="538" width="331" height="170" rx="10" fill="white"/>
</g>
<path d="M110.567 643.482C117.491 643.482 123.105 637.887 123.105 630.985C123.105 624.084 117.491 618.489 110.567 618.489C103.643 618.489 98.0299 624.084 98.0299 630.985C98.0299 637.887 103.643 643.482 110.567 643.482Z" stroke="#2D3E50" stroke-width="7" stroke-miterlimit="10"/>
<path d="M79 625.981C83.8134 612.815 96.4627 604 110.567 604C124.56 604 137.209 612.815 142.022 625.87" stroke="#2D3E50" stroke-width="7" stroke-miterlimit="10" stroke-linecap="round" stroke-linejoin="round"/>
<path d="M162.061 632.25L143.858 663.779C140.732 669.193 134.955 672.529 128.703 672.529L92.297 672.529C86.0449 672.529 80.2676 669.193 77.1416 663.779L58.9386 632.25C55.8125 626.835 55.8125 620.165 58.9386 614.75L77.1416 583.221C80.2676 577.807 86.0449 574.471 92.297 574.471L128.703 574.471C134.955 574.471 140.732 577.807 143.858 583.221L162.061 614.75C165.188 620.165 165.188 626.835 162.061 632.25Z" stroke="#E94C3D" stroke-width="5"/>
<path d="M214.378 608.389L220.269 591.383H223.243L215.596 612H213.189L205.557 591.383H208.516L214.378 608.389ZM228.454 612H225.834V596.679H228.454V612ZM225.622 592.615C225.622 592.19 225.749 591.831 226.004 591.539C226.268 591.246 226.655 591.1 227.165 591.1C227.675 591.1 228.062 591.246 228.326 591.539C228.59 591.831 228.723 592.19 228.723 592.615C228.723 593.04 228.59 593.394 228.326 593.677C228.062 593.96 227.675 594.102 227.165 594.102C226.655 594.102 226.268 593.96 226.004 593.677C225.749 593.394 225.622 593.04 225.622 592.615ZM241.58 607.936C241.58 607.228 241.311 606.681 240.773 606.293C240.244 605.897 239.314 605.557 237.983 605.274C236.662 604.991 235.609 604.651 234.826 604.254C234.052 603.858 233.476 603.386 233.098 602.838C232.73 602.291 232.546 601.639 232.546 600.884C232.546 599.629 233.075 598.567 234.132 597.698C235.199 596.83 236.558 596.396 238.21 596.396C239.947 596.396 241.354 596.844 242.43 597.741C243.515 598.638 244.058 599.785 244.058 601.182H241.424C241.424 600.464 241.118 599.846 240.504 599.327C239.9 598.807 239.135 598.548 238.21 598.548C237.257 598.548 236.511 598.756 235.973 599.171C235.435 599.586 235.166 600.129 235.166 600.799C235.166 601.432 235.416 601.909 235.916 602.229C236.416 602.55 237.318 602.857 238.621 603.15C239.933 603.443 240.995 603.792 241.807 604.198C242.618 604.604 243.218 605.095 243.605 605.67C244.001 606.237 244.2 606.931 244.2 607.752C244.2 609.121 243.652 610.221 242.557 611.051C241.462 611.873 240.041 612.283 238.295 612.283C237.068 612.283 235.982 612.066 235.038 611.632C234.094 611.198 233.353 610.593 232.815 609.819C232.286 609.036 232.022 608.191 232.022 607.285H234.642C234.689 608.163 235.038 608.861 235.689 609.38C236.35 609.89 237.219 610.145 238.295 610.145C239.286 610.145 240.079 609.947 240.674 609.55C241.278 609.144 241.58 608.606 241.58 607.936ZM257.071 610.485C256.052 611.684 254.556 612.283 252.583 612.283C250.949 612.283 249.703 611.811 248.844 610.867C247.995 609.914 247.565 608.507 247.556 606.647V596.679H250.175V606.577C250.175 608.899 251.119 610.06 253.007 610.06C255.009 610.06 256.34 609.314 257 607.823V596.679H259.62V612H257.128L257.071 610.485ZM273.072 612C272.921 611.698 272.799 611.16 272.704 610.386C271.486 611.651 270.033 612.283 268.343 612.283C266.832 612.283 265.591 611.858 264.619 611.009C263.656 610.15 263.174 609.064 263.174 607.752C263.174 606.157 263.778 604.92 264.987 604.042C266.205 603.155 267.913 602.711 270.113 602.711H272.662V601.507C272.662 600.592 272.388 599.865 271.84 599.327C271.293 598.779 270.486 598.505 269.419 598.505C268.484 598.505 267.701 598.741 267.068 599.213C266.436 599.685 266.12 600.257 266.12 600.927H263.486C263.486 600.162 263.755 599.426 264.293 598.718C264.84 598 265.577 597.434 266.502 597.019C267.437 596.603 268.461 596.396 269.575 596.396C271.34 596.396 272.723 596.839 273.724 597.727C274.724 598.604 275.243 599.818 275.281 601.366V608.417C275.281 609.824 275.461 610.943 275.819 611.773V612H273.072ZM268.725 610.003C269.546 610.003 270.325 609.791 271.062 609.366C271.798 608.941 272.331 608.389 272.662 607.709V604.566H270.608C267.399 604.566 265.794 605.505 265.794 607.384C265.794 608.205 266.068 608.847 266.615 609.31C267.163 609.772 267.866 610.003 268.725 610.003ZM282.234 612H279.614V590.25H282.234V612ZM289.286 612H286.666V596.679H289.286V612ZM286.454 592.615C286.454 592.19 286.581 591.831 286.836 591.539C287.1 591.246 287.487 591.1 287.997 591.1C288.507 591.1 288.894 591.246 289.158 591.539C289.423 591.831 289.555 592.19 289.555 592.615C289.555 593.04 289.423 593.394 289.158 593.677C288.894 593.96 288.507 594.102 287.997 594.102C287.487 594.102 287.1 593.96 286.836 593.677C286.581 593.394 286.454 593.04 286.454 592.615ZM302.412 607.936C302.412 607.228 302.143 606.681 301.605 606.293C301.076 605.897 300.146 605.557 298.815 605.274C297.494 604.991 296.441 604.651 295.658 604.254C294.884 603.858 294.308 603.386 293.93 602.838C293.562 602.291 293.378 601.639 293.378 600.884C293.378 599.629 293.907 598.567 294.964 597.698C296.031 596.83 297.39 596.396 299.042 596.396C300.779 596.396 302.186 596.844 303.262 597.741C304.347 598.638 304.89 599.785 304.89 601.182H302.256C302.256 600.464 301.95 599.846 301.336 599.327C300.732 598.807 299.967 598.548 299.042 598.548C298.089 598.548 297.343 598.756 296.805 599.171C296.267 599.586 295.998 600.129 295.998 600.799C295.998 601.432 296.248 601.909 296.748 602.229C297.248 602.55 298.15 602.857 299.453 603.15C300.765 603.443 301.827 603.792 302.639 604.198C303.451 604.604 304.05 605.095 304.437 605.67C304.833 606.237 305.032 606.931 305.032 607.752C305.032 609.121 304.484 610.221 303.389 611.051C302.294 611.873 300.873 612.283 299.127 612.283C297.9 612.283 296.814 612.066 295.87 611.632C294.926 611.198 294.185 610.593 293.647 609.819C293.118 609.036 292.854 608.191 292.854 607.285H295.474C295.521 608.163 295.87 608.861 296.521 609.38C297.182 609.89 298.051 610.145 299.127 610.145C300.118 610.145 300.911 609.947 301.506 609.55C302.11 609.144 302.412 608.606 302.412 607.936ZM314.802 612.283C312.725 612.283 311.036 611.604 309.733 610.244C308.43 608.875 307.779 607.049 307.779 604.764V604.283C307.779 602.763 308.067 601.408 308.643 600.219C309.228 599.02 310.04 598.085 311.078 597.415C312.126 596.735 313.259 596.396 314.477 596.396C316.468 596.396 318.017 597.052 319.121 598.364C320.226 599.676 320.778 601.555 320.778 604V605.09H310.398C310.436 606.6 310.875 607.823 311.715 608.757C312.565 609.682 313.641 610.145 314.944 610.145C315.869 610.145 316.653 609.956 317.294 609.579C317.936 609.201 318.498 608.701 318.979 608.078L320.58 609.324C319.296 611.297 317.37 612.283 314.802 612.283ZM314.477 598.548C313.419 598.548 312.532 598.935 311.814 599.709C311.097 600.474 310.653 601.55 310.483 602.938H318.158V602.739C318.083 601.408 317.724 600.379 317.082 599.652C316.44 598.916 315.572 598.548 314.477 598.548ZM216.233 627.62H209.606V646H206.902V627.62H200.289V625.383H216.233V627.62ZM221.501 632.534C222.662 631.108 224.173 630.396 226.032 630.396C229.27 630.396 230.903 632.222 230.932 635.875V646H228.312V635.861C228.303 634.757 228.048 633.94 227.547 633.412C227.056 632.883 226.287 632.619 225.239 632.619C224.39 632.619 223.644 632.845 223.002 633.298C222.36 633.751 221.86 634.346 221.501 635.083V646H218.881V624.25H221.501V632.534ZM241.212 646.283C239.135 646.283 237.445 645.604 236.143 644.244C234.84 642.875 234.188 641.049 234.188 638.764V638.283C234.188 636.763 234.476 635.408 235.052 634.219C235.638 633.02 236.449 632.085 237.488 631.415C238.536 630.735 239.668 630.396 240.886 630.396C242.878 630.396 244.426 631.052 245.531 632.364C246.635 633.676 247.188 635.555 247.188 638V639.09H236.808C236.846 640.6 237.285 641.823 238.125 642.757C238.975 643.682 240.051 644.145 241.354 644.145C242.279 644.145 243.062 643.956 243.704 643.579C244.346 643.201 244.908 642.701 245.389 642.078L246.989 643.324C245.705 645.297 243.78 646.283 241.212 646.283ZM240.886 632.548C239.829 632.548 238.942 632.935 238.224 633.709C237.507 634.474 237.063 635.55 236.893 636.938H244.568V636.739C244.492 635.408 244.134 634.379 243.492 633.652C242.85 632.916 241.981 632.548 240.886 632.548ZM264.661 642.389L270.552 625.383H273.525L265.879 646H263.472L255.839 625.383H258.799L264.661 642.389ZM274.545 638.198C274.545 636.697 274.838 635.347 275.423 634.148C276.018 632.949 276.839 632.024 277.887 631.373C278.944 630.721 280.148 630.396 281.498 630.396C283.584 630.396 285.269 631.118 286.553 632.562C287.846 634.006 288.493 635.927 288.493 638.325V638.509C288.493 640.001 288.205 641.341 287.629 642.531C287.062 643.711 286.246 644.631 285.179 645.292C284.122 645.953 282.904 646.283 281.526 646.283C279.449 646.283 277.764 645.561 276.471 644.117C275.187 642.672 274.545 640.761 274.545 638.382V638.198ZM277.179 638.509C277.179 640.208 277.57 641.573 278.354 642.602C279.147 643.631 280.204 644.145 281.526 644.145C282.857 644.145 283.914 643.626 284.698 642.587C285.481 641.54 285.873 640.076 285.873 638.198C285.873 636.517 285.472 635.158 284.669 634.12C283.876 633.072 282.819 632.548 281.498 632.548C280.204 632.548 279.161 633.062 278.368 634.091C277.575 635.12 277.179 636.593 277.179 638.509ZM294.624 646H292.004V630.679H294.624V646ZM291.792 626.615C291.792 626.19 291.919 625.831 292.174 625.539C292.439 625.246 292.826 625.1 293.335 625.1C293.845 625.1 294.232 625.246 294.497 625.539C294.761 625.831 294.893 626.19 294.893 626.615C294.893 627.04 294.761 627.394 294.497 627.677C294.232 627.96 293.845 628.102 293.335 628.102C292.826 628.102 292.439 627.96 292.174 627.677C291.919 627.394 291.792 627.04 291.792 626.615ZM304.975 644.145C305.91 644.145 306.726 643.862 307.425 643.295C308.123 642.729 308.51 642.021 308.586 641.171H311.064C311.017 642.049 310.715 642.885 310.158 643.678C309.601 644.471 308.855 645.103 307.92 645.575C306.995 646.047 306.014 646.283 304.975 646.283C302.889 646.283 301.227 645.589 299.991 644.202C298.764 642.805 298.15 640.898 298.15 638.481V638.042C298.15 636.55 298.424 635.224 298.971 634.063C299.519 632.902 300.302 632 301.322 631.358C302.351 630.716 303.564 630.396 304.961 630.396C306.679 630.396 308.104 630.91 309.237 631.939C310.38 632.968 310.988 634.304 311.064 635.946H308.586C308.51 634.955 308.133 634.143 307.453 633.511C306.783 632.869 305.952 632.548 304.961 632.548C303.63 632.548 302.596 633.029 301.86 633.992C301.133 634.946 300.77 636.329 300.77 638.141V638.637C300.77 640.402 301.133 641.761 301.86 642.715C302.587 643.668 303.625 644.145 304.975 644.145ZM320.367 646.283C318.29 646.283 316.601 645.604 315.298 644.244C313.995 642.875 313.344 641.049 313.344 638.764V638.283C313.344 636.763 313.632 635.408 314.208 634.219C314.793 633.02 315.605 632.085 316.643 631.415C317.691 630.735 318.824 630.396 320.042 630.396C322.033 630.396 323.582 631.052 324.686 632.364C325.791 633.676 326.343 635.555 326.343 638V639.09H315.963C316.001 640.6 316.44 641.823 317.28 642.757C318.13 643.682 319.206 644.145 320.509 644.145C321.434 644.145 322.217 643.956 322.859 643.579C323.501 643.201 324.063 642.701 324.544 642.078L326.145 643.324C324.861 645.297 322.935 646.283 320.367 646.283ZM320.042 632.548C318.984 632.548 318.097 632.935 317.379 633.709C316.662 634.474 316.218 635.55 316.048 636.938H323.723V636.739C323.648 635.408 323.289 634.379 322.647 633.652C322.005 632.916 321.137 632.548 320.042 632.548Z" fill="#2D3E50"/>
<g filter="url(#filter1_ii)">
<rect x="33" y="325" width="331" height="170" rx="10" fill="white"/>
</g>
<path d="M110.183 428.656C117.107 428.656 122.721 423.06 122.721 416.159C122.721 409.257 117.107 403.662 110.183 403.662C103.259 403.662 97.6459 409.257 97.6459 416.159C97.6459 423.06 103.259 428.656 110.183 428.656Z" stroke="#2D3E50" stroke-width="7" stroke-miterlimit="10"/>
<path d="M78.616 414.154C83.4295 400.988 96.0787 392.173 110.183 392.173C124.176 392.173 136.825 400.988 141.638 414.043" stroke="#2D3E50" stroke-width="7" stroke-miterlimit="10"/>
<path d="M162.061 401.75C165.188 407.165 165.188 413.835 162.061 419.25L143.858 450.779C140.732 456.193 134.955 459.529 128.703 459.529L92.297 459.529C86.0449 459.529 80.2676 456.193 77.1416 450.779L58.9386 419.25C55.8125 413.835 55.8125 407.165 58.9386 401.75L77.1416 370.221C80.2676 364.807 86.0449 361.471 92.297 361.471L128.703 361.471C134.955 361.471 140.732 364.807 143.858 370.221L162.061 401.75Z" stroke="#E94C3D" stroke-width="5"/>
<path d="M214.378 395.389L220.269 378.383H223.243L215.596 399H213.189L205.557 378.383H208.516L214.378 395.389ZM228.454 399H225.834V383.679H228.454V399ZM225.622 379.615C225.622 379.19 225.749 378.831 226.004 378.539C226.268 378.246 226.655 378.1 227.165 378.1C227.675 378.1 228.062 378.246 228.326 378.539C228.59 378.831 228.723 379.19 228.723 379.615C228.723 380.04 228.59 380.394 228.326 380.677C228.062 380.96 227.675 381.102 227.165 381.102C226.655 381.102 226.268 380.96 226.004 380.677C225.749 380.394 225.622 380.04 225.622 379.615ZM241.58 394.936C241.58 394.228 241.311 393.681 240.773 393.293C240.244 392.897 239.314 392.557 237.983 392.274C236.662 391.991 235.609 391.651 234.826 391.254C234.052 390.858 233.476 390.386 233.098 389.838C232.73 389.291 232.546 388.639 232.546 387.884C232.546 386.629 233.075 385.567 234.132 384.698C235.199 383.83 236.558 383.396 238.21 383.396C239.947 383.396 241.354 383.844 242.43 384.741C243.515 385.638 244.058 386.785 244.058 388.182H241.424C241.424 387.464 241.118 386.846 240.504 386.327C239.9 385.807 239.135 385.548 238.21 385.548C237.257 385.548 236.511 385.756 235.973 386.171C235.435 386.586 235.166 387.129 235.166 387.799C235.166 388.432 235.416 388.909 235.916 389.229C236.416 389.55 237.318 389.857 238.621 390.15C239.933 390.443 240.995 390.792 241.807 391.198C242.618 391.604 243.218 392.095 243.605 392.67C244.001 393.237 244.2 393.931 244.2 394.752C244.2 396.121 243.652 397.221 242.557 398.051C241.462 398.873 240.041 399.283 238.295 399.283C237.068 399.283 235.982 399.066 235.038 398.632C234.094 398.198 233.353 397.593 232.815 396.819C232.286 396.036 232.022 395.191 232.022 394.285H234.642C234.689 395.163 235.038 395.861 235.689 396.38C236.35 396.89 237.219 397.145 238.295 397.145C239.286 397.145 240.079 396.947 240.674 396.55C241.278 396.144 241.58 395.606 241.58 394.936ZM257.071 397.485C256.052 398.684 254.556 399.283 252.583 399.283C250.949 399.283 249.703 398.811 248.844 397.867C247.995 396.914 247.565 395.507 247.556 393.647V383.679H250.175V393.577C250.175 395.899 251.119 397.06 253.007 397.06C255.009 397.06 256.34 396.314 257 394.823V383.679H259.62V399H257.128L257.071 397.485ZM273.072 399C272.921 398.698 272.799 398.16 272.704 397.386C271.486 398.651 270.033 399.283 268.343 399.283C266.832 399.283 265.591 398.858 264.619 398.009C263.656 397.15 263.174 396.064 263.174 394.752C263.174 393.157 263.778 391.92 264.987 391.042C266.205 390.155 267.913 389.711 270.113 389.711H272.662V388.507C272.662 387.592 272.388 386.865 271.84 386.327C271.293 385.779 270.486 385.505 269.419 385.505C268.484 385.505 267.701 385.741 267.068 386.213C266.436 386.685 266.12 387.257 266.12 387.927H263.486C263.486 387.162 263.755 386.426 264.293 385.718C264.84 385 265.577 384.434 266.502 384.019C267.437 383.603 268.461 383.396 269.575 383.396C271.34 383.396 272.723 383.839 273.724 384.727C274.724 385.604 275.243 386.818 275.281 388.366V395.417C275.281 396.824 275.461 397.943 275.819 398.773V399H273.072ZM268.725 397.003C269.546 397.003 270.325 396.791 271.062 396.366C271.798 395.941 272.331 395.389 272.662 394.709V391.566H270.608C267.399 391.566 265.794 392.505 265.794 394.384C265.794 395.205 266.068 395.847 266.615 396.31C267.163 396.772 267.866 397.003 268.725 397.003ZM282.234 399H279.614V377.25H282.234V399ZM289.286 399H286.666V383.679H289.286V399ZM286.454 379.615C286.454 379.19 286.581 378.831 286.836 378.539C287.1 378.246 287.487 378.1 287.997 378.1C288.507 378.1 288.894 378.246 289.158 378.539C289.423 378.831 289.555 379.19 289.555 379.615C289.555 380.04 289.423 380.394 289.158 380.677C288.894 380.96 288.507 381.102 287.997 381.102C287.487 381.102 287.1 380.96 286.836 380.677C286.581 380.394 286.454 380.04 286.454 379.615ZM302.412 394.936C302.412 394.228 302.143 393.681 301.605 393.293C301.076 392.897 300.146 392.557 298.815 392.274C297.494 391.991 296.441 391.651 295.658 391.254C294.884 390.858 294.308 390.386 293.93 389.838C293.562 389.291 293.378 388.639 293.378 387.884C293.378 386.629 293.907 385.567 294.964 384.698C296.031 383.83 297.39 383.396 299.042 383.396C300.779 383.396 302.186 383.844 303.262 384.741C304.347 385.638 304.89 386.785 304.89 388.182H302.256C302.256 387.464 301.95 386.846 301.336 386.327C300.732 385.807 299.967 385.548 299.042 385.548C298.089 385.548 297.343 385.756 296.805 386.171C296.267 386.586 295.998 387.129 295.998 387.799C295.998 388.432 296.248 388.909 296.748 389.229C297.248 389.55 298.15 389.857 299.453 390.15C300.765 390.443 301.827 390.792 302.639 391.198C303.451 391.604 304.05 392.095 304.437 392.67C304.833 393.237 305.032 393.931 305.032 394.752C305.032 396.121 304.484 397.221 303.389 398.051C302.294 398.873 300.873 399.283 299.127 399.283C297.9 399.283 296.814 399.066 295.87 398.632C294.926 398.198 294.185 397.593 293.647 396.819C293.118 396.036 292.854 395.191 292.854 394.285H295.474C295.521 395.163 295.87 395.861 296.521 396.38C297.182 396.89 298.051 397.145 299.127 397.145C300.118 397.145 300.911 396.947 301.506 396.55C302.11 396.144 302.412 395.606 302.412 394.936ZM314.802 399.283C312.725 399.283 311.036 398.604 309.733 397.244C308.43 395.875 307.779 394.049 307.779 391.764V391.283C307.779 389.763 308.067 388.408 308.643 387.219C309.228 386.02 310.04 385.085 311.078 384.415C312.126 383.735 313.259 383.396 314.477 383.396C316.468 383.396 318.017 384.052 319.121 385.364C320.226 386.676 320.778 388.555 320.778 391V392.09H310.398C310.436 393.6 310.875 394.823 311.715 395.757C312.565 396.682 313.641 397.145 314.944 397.145C315.869 397.145 316.653 396.956 317.294 396.579C317.936 396.201 318.498 395.701 318.979 395.078L320.58 396.324C319.296 398.297 317.37 399.283 314.802 399.283ZM314.477 385.548C313.419 385.548 312.532 385.935 311.814 386.709C311.097 387.474 310.653 388.55 310.483 389.938H318.158V389.739C318.083 388.408 317.724 387.379 317.082 386.652C316.44 385.916 315.572 385.548 314.477 385.548ZM216.233 414.62H209.606V433H206.902V414.62H200.289V412.383H216.233V414.62ZM221.501 419.534C222.662 418.108 224.173 417.396 226.032 417.396C229.27 417.396 230.903 419.222 230.932 422.875V433H228.312V422.861C228.303 421.757 228.048 420.94 227.547 420.412C227.056 419.883 226.287 419.619 225.239 419.619C224.39 419.619 223.644 419.845 223.002 420.298C222.36 420.751 221.86 421.346 221.501 422.083V433H218.881V411.25H221.501V419.534ZM241.212 433.283C239.135 433.283 237.445 432.604 236.143 431.244C234.84 429.875 234.188 428.049 234.188 425.764V425.283C234.188 423.763 234.476 422.408 235.052 421.219C235.638 420.02 236.449 419.085 237.488 418.415C238.536 417.735 239.668 417.396 240.886 417.396C242.878 417.396 244.426 418.052 245.531 419.364C246.635 420.676 247.188 422.555 247.188 425V426.09H236.808C236.846 427.6 237.285 428.823 238.125 429.757C238.975 430.682 240.051 431.145 241.354 431.145C242.279 431.145 243.062 430.956 243.704 430.579C244.346 430.201 244.908 429.701 245.389 429.078L246.989 430.324C245.705 432.297 243.78 433.283 241.212 433.283ZM240.886 419.548C239.829 419.548 238.942 419.935 238.224 420.709C237.507 421.474 237.063 422.55 236.893 423.938H244.568V423.739C244.492 422.408 244.134 421.379 243.492 420.652C242.85 419.916 241.981 419.548 240.886 419.548ZM264.661 429.389L270.552 412.383H273.525L265.879 433H263.472L255.839 412.383H258.799L264.661 429.389ZM274.545 425.198C274.545 423.697 274.838 422.347 275.423 421.148C276.018 419.949 276.839 419.024 277.887 418.373C278.944 417.721 280.148 417.396 281.498 417.396C283.584 417.396 285.269 418.118 286.553 419.562C287.846 421.006 288.493 422.927 288.493 425.325V425.509C288.493 427.001 288.205 428.341 287.629 429.531C287.062 430.711 286.246 431.631 285.179 432.292C284.122 432.953 282.904 433.283 281.526 433.283C279.449 433.283 277.764 432.561 276.471 431.117C275.187 429.672 274.545 427.761 274.545 425.382V425.198ZM277.179 425.509C277.179 427.208 277.57 428.573 278.354 429.602C279.147 430.631 280.204 431.145 281.526 431.145C282.857 431.145 283.914 430.626 284.698 429.587C285.481 428.54 285.873 427.076 285.873 425.198C285.873 423.517 285.472 422.158 284.669 421.12C283.876 420.072 282.819 419.548 281.498 419.548C280.204 419.548 279.161 420.062 278.368 421.091C277.575 422.12 277.179 423.593 277.179 425.509ZM294.624 433H292.004V417.679H294.624V433ZM291.792 413.615C291.792 413.19 291.919 412.831 292.174 412.539C292.439 412.246 292.826 412.1 293.335 412.1C293.845 412.1 294.232 412.246 294.497 412.539C294.761 412.831 294.893 413.19 294.893 413.615C294.893 414.04 294.761 414.394 294.497 414.677C294.232 414.96 293.845 415.102 293.335 415.102C292.826 415.102 292.439 414.96 292.174 414.677C291.919 414.394 291.792 414.04 291.792 413.615ZM304.975 431.145C305.91 431.145 306.726 430.862 307.425 430.295C308.123 429.729 308.51 429.021 308.586 428.171H311.064C311.017 429.049 310.715 429.885 310.158 430.678C309.601 431.471 308.855 432.103 307.92 432.575C306.995 433.047 306.014 433.283 304.975 433.283C302.889 433.283 301.227 432.589 299.991 431.202C298.764 429.805 298.15 427.898 298.15 425.481V425.042C298.15 423.55 298.424 422.224 298.971 421.063C299.519 419.902 300.302 419 301.322 418.358C302.351 417.716 303.564 417.396 304.961 417.396C306.679 417.396 308.104 417.91 309.237 418.939C310.38 419.968 310.988 421.304 311.064 422.946H308.586C308.51 421.955 308.133 421.143 307.453 420.511C306.783 419.869 305.952 419.548 304.961 419.548C303.63 419.548 302.596 420.029 301.86 420.992C301.133 421.946 300.77 423.329 300.77 425.141V425.637C300.77 427.402 301.133 428.761 301.86 429.715C302.587 430.668 303.625 431.145 304.975 431.145ZM320.367 433.283C318.29 433.283 316.601 432.604 315.298 431.244C313.995 429.875 313.344 428.049 313.344 425.764V425.283C313.344 423.763 313.632 422.408 314.208 421.219C314.793 420.02 315.605 419.085 316.643 418.415C317.691 417.735 318.824 417.396 320.042 417.396C322.033 417.396 323.582 418.052 324.686 419.364C325.791 420.676 326.343 422.555 326.343 425V426.09H315.963C316.001 427.6 316.44 428.823 317.28 429.757C318.13 430.682 319.206 431.145 320.509 431.145C321.434 431.145 322.217 430.956 322.859 430.579C323.501 430.201 324.063 429.701 324.544 429.078L326.145 430.324C324.861 432.297 322.935 433.283 320.367 433.283ZM320.042 419.548C318.984 419.548 318.097 419.935 317.379 420.709C316.662 421.474 316.218 422.55 316.048 423.938H323.723V423.739C323.648 422.408 323.289 421.379 322.647 420.652C322.005 419.916 321.137 419.548 320.042 419.548Z" fill="#2D3E50"/>
<g filter="url(#filter2_d)">
<rect x="33" y="112" width="331" height="170" rx="10" fill="white"/>
</g>
<path d="M163.061 206.25L144.358 238.645C141.232 244.059 135.455 247.395 129.203 247.395L91.797 247.395C85.5449 247.395 79.7676 244.059 76.6416 238.645L57.9386 206.25C54.8125 200.835 54.8125 194.165 57.9386 188.75L76.6416 156.355C79.7676 150.941 85.5449 147.605 91.797 147.605L129.203 147.605C135.455 147.605 141.232 150.941 144.358 156.355L163.061 188.75C166.187 194.165 166.187 200.835 163.061 206.25Z" stroke="#4186C6" stroke-width="5"/>
<mask id="path-14-inside-1" fill="white">
<path d="M119.222 167.401C120.326 165.488 122.804 164.808 124.485 166.241C127.113 168.481 129.191 171.323 130.527 174.548C132.377 179.013 132.701 183.963 131.45 188.631C130.199 193.299 127.443 197.424 123.609 200.366C119.775 203.308 115.077 204.903 110.245 204.903C105.412 204.903 100.714 203.308 96.8802 200.366C93.0462 197.424 90.29 193.3 89.0392 188.631C87.7884 183.963 88.1128 179.013 89.9622 174.548C91.2982 171.323 93.3761 168.481 96.0046 166.241C97.6859 164.808 100.163 165.488 101.268 167.401L107.364 177.96C107.993 179.05 107.509 180.454 107.028 181.617V181.617C106.734 182.325 106.683 183.11 106.881 183.851C107.079 184.591 107.517 185.245 108.125 185.712C108.733 186.179 109.478 186.432 110.245 186.432C111.011 186.432 111.756 186.179 112.365 185.712C112.973 185.245 113.41 184.591 113.608 183.851C113.807 183.11 113.755 182.325 113.462 181.617V181.617C112.98 180.454 112.496 179.05 113.125 177.96L119.222 167.401Z"/>
</mask>
<path d="M119.222 167.401C120.326 165.488 122.804 164.808 124.485 166.241C127.113 168.481 129.191 171.323 130.527 174.548C132.377 179.013 132.701 183.963 131.45 188.631C130.199 193.299 127.443 197.424 123.609 200.366C119.775 203.308 115.077 204.903 110.245 204.903C105.412 204.903 100.714 203.308 96.8802 200.366C93.0462 197.424 90.29 193.3 89.0392 188.631C87.7884 183.963 88.1128 179.013 89.9622 174.548C91.2982 171.323 93.3761 168.481 96.0046 166.241C97.6859 164.808 100.163 165.488 101.268 167.401L107.364 177.96C107.993 179.05 107.509 180.454 107.028 181.617V181.617C106.734 182.325 106.683 183.11 106.881 183.851C107.079 184.591 107.517 185.245 108.125 185.712C108.733 186.179 109.478 186.432 110.245 186.432C111.011 186.432 111.756 186.179 112.365 185.712C112.973 185.245 113.41 184.591 113.608 183.851C113.807 183.11 113.755 182.325 113.462 181.617V181.617C112.98 180.454 112.496 179.05 113.125 177.96L119.222 167.401Z" stroke="#2D3E50" stroke-width="14" mask="url(#path-14-inside-1)"/>
<mask id="path-15-inside-2" fill="white">
<rect x="101" y="198" width="19" height="37" rx="4"/>
</mask>
<rect x="101" y="198" width="19" height="37" rx="4" stroke="#2D3E50" stroke-width="14" stroke-linecap="round" stroke-linejoin="round" mask="url(#path-15-inside-2)"/>
<path d="M228.312 167.62H221.685V186H218.98V167.62H212.368V165.383H228.312V167.62ZM237.29 173.029C236.893 172.963 236.464 172.93 236.001 172.93C234.283 172.93 233.117 173.662 232.503 175.125V186H229.884V170.679H232.433L232.475 172.449C233.334 171.08 234.552 170.396 236.128 170.396C236.638 170.396 237.025 170.462 237.29 170.594V173.029ZM248.604 186C248.452 185.698 248.33 185.16 248.235 184.386C247.018 185.651 245.564 186.283 243.874 186.283C242.364 186.283 241.122 185.858 240.15 185.009C239.187 184.15 238.706 183.064 238.706 181.752C238.706 180.157 239.31 178.92 240.518 178.042C241.736 177.155 243.444 176.711 245.644 176.711H248.193V175.507C248.193 174.592 247.919 173.865 247.372 173.327C246.824 172.779 246.017 172.505 244.95 172.505C244.016 172.505 243.232 172.741 242.6 173.213C241.967 173.685 241.651 174.257 241.651 174.927H239.017C239.017 174.162 239.286 173.426 239.824 172.718C240.372 172 241.108 171.434 242.033 171.019C242.968 170.603 243.992 170.396 245.106 170.396C246.871 170.396 248.254 170.839 249.255 171.727C250.256 172.604 250.775 173.818 250.812 175.366V182.417C250.812 183.824 250.992 184.943 251.351 185.773V186H248.604ZM244.256 184.003C245.078 184.003 245.856 183.791 246.593 183.366C247.329 182.941 247.862 182.389 248.193 181.709V178.566H246.14C242.93 178.566 241.325 179.505 241.325 181.384C241.325 182.205 241.599 182.847 242.146 183.31C242.694 183.772 243.397 184.003 244.256 184.003ZM257.765 186H255.146V170.679H257.765V186ZM254.933 166.615C254.933 166.19 255.061 165.831 255.315 165.539C255.58 165.246 255.967 165.1 256.477 165.1C256.986 165.1 257.373 165.246 257.638 165.539C257.902 165.831 258.034 166.19 258.034 166.615C258.034 167.04 257.902 167.394 257.638 167.677C257.373 167.96 256.986 168.102 256.477 168.102C255.967 168.102 255.58 167.96 255.315 167.677C255.061 167.394 254.933 167.04 254.933 166.615ZM264.449 170.679L264.534 172.604C265.704 171.132 267.234 170.396 269.122 170.396C272.36 170.396 273.993 172.222 274.021 175.875V186H271.401V175.861C271.392 174.757 271.137 173.94 270.637 173.412C270.146 172.883 269.376 172.619 268.329 172.619C267.479 172.619 266.733 172.845 266.091 173.298C265.449 173.751 264.949 174.346 264.59 175.083V186H261.971V170.679H264.449ZM280.818 186H278.198V170.679H280.818V186ZM277.986 166.615C277.986 166.19 278.113 165.831 278.368 165.539C278.632 165.246 279.02 165.1 279.529 165.1C280.039 165.1 280.426 165.246 280.69 165.539C280.955 165.831 281.087 166.19 281.087 166.615C281.087 167.04 280.955 167.394 280.69 167.677C280.426 167.96 280.039 168.102 279.529 168.102C279.02 168.102 278.632 167.96 278.368 167.677C278.113 167.394 277.986 167.04 277.986 166.615ZM287.501 170.679L287.586 172.604C288.757 171.132 290.286 170.396 292.174 170.396C295.412 170.396 297.045 172.222 297.074 175.875V186H294.454V175.861C294.445 174.757 294.19 173.94 293.689 173.412C293.199 172.883 292.429 172.619 291.381 172.619C290.532 172.619 289.786 172.845 289.144 173.298C288.502 173.751 288.002 174.346 287.643 175.083V186H285.023V170.679H287.501ZM300.401 178.212C300.401 175.824 300.954 173.926 302.058 172.52C303.163 171.104 304.626 170.396 306.448 170.396C308.317 170.396 309.775 171.056 310.823 172.378L310.951 170.679H313.344V185.632C313.344 187.614 312.754 189.177 311.574 190.319C310.403 191.461 308.827 192.032 306.844 192.032C305.74 192.032 304.659 191.796 303.602 191.324C302.544 190.852 301.737 190.206 301.18 189.384L302.54 187.812C303.663 189.2 305.036 189.894 306.66 189.894C307.935 189.894 308.926 189.535 309.634 188.818C310.351 188.1 310.71 187.09 310.71 185.788V184.471C309.662 185.679 308.232 186.283 306.419 186.283C304.626 186.283 303.172 185.561 302.058 184.117C300.954 182.672 300.401 180.704 300.401 178.212ZM303.035 178.509C303.035 180.237 303.389 181.596 304.097 182.587C304.805 183.569 305.796 184.06 307.071 184.06C308.723 184.06 309.936 183.31 310.71 181.809V174.813C309.908 173.35 308.704 172.619 307.099 172.619C305.825 172.619 304.829 173.114 304.111 174.105C303.394 175.097 303.035 176.565 303.035 178.509ZM244.653 201.62H238.026V220H235.321V201.62H228.708V199.383H244.653V201.62ZM245.191 212.198C245.191 210.697 245.484 209.347 246.069 208.148C246.664 206.949 247.485 206.024 248.533 205.373C249.59 204.721 250.794 204.396 252.144 204.396C254.23 204.396 255.915 205.118 257.199 206.562C258.492 208.006 259.139 209.927 259.139 212.325V212.509C259.139 214.001 258.851 215.341 258.275 216.531C257.708 217.711 256.892 218.631 255.825 219.292C254.768 219.953 253.55 220.283 252.172 220.283C250.095 220.283 248.41 219.561 247.117 218.117C245.833 216.672 245.191 214.761 245.191 212.382V212.198ZM247.825 212.509C247.825 214.208 248.216 215.573 249 216.602C249.793 217.631 250.85 218.145 252.172 218.145C253.503 218.145 254.56 217.626 255.344 216.587C256.127 215.54 256.519 214.076 256.519 212.198C256.519 210.517 256.118 209.158 255.315 208.12C254.522 207.072 253.465 206.548 252.144 206.548C250.85 206.548 249.807 207.062 249.014 208.091C248.221 209.12 247.825 210.593 247.825 212.509ZM261.73 212.198C261.73 210.697 262.023 209.347 262.608 208.148C263.203 206.949 264.024 206.024 265.072 205.373C266.129 204.721 267.333 204.396 268.683 204.396C270.769 204.396 272.454 205.118 273.738 206.562C275.031 208.006 275.678 209.927 275.678 212.325V212.509C275.678 214.001 275.39 215.341 274.814 216.531C274.248 217.711 273.431 218.631 272.364 219.292C271.307 219.953 270.089 220.283 268.711 220.283C266.634 220.283 264.949 219.561 263.656 218.117C262.372 216.672 261.73 214.761 261.73 212.382V212.198ZM264.364 212.509C264.364 214.208 264.756 215.573 265.539 216.602C266.332 217.631 267.389 218.145 268.711 218.145C270.042 218.145 271.099 217.626 271.883 216.587C272.666 215.54 273.058 214.076 273.058 212.198C273.058 210.517 272.657 209.158 271.854 208.12C271.062 207.072 270.004 206.548 268.683 206.548C267.389 206.548 266.346 207.062 265.553 208.091C264.76 209.12 264.364 210.593 264.364 212.509ZM281.809 220H279.189V198.25H281.809V220ZM294.936 215.936C294.936 215.228 294.667 214.681 294.128 214.293C293.6 213.897 292.67 213.557 291.339 213.274C290.017 212.991 288.965 212.651 288.181 212.254C287.407 211.858 286.831 211.386 286.454 210.838C286.085 210.291 285.901 209.639 285.901 208.884C285.901 207.629 286.43 206.567 287.487 205.698C288.554 204.83 289.913 204.396 291.565 204.396C293.302 204.396 294.709 204.844 295.785 205.741C296.871 206.638 297.414 207.785 297.414 209.182H294.78C294.78 208.464 294.473 207.846 293.859 207.327C293.255 206.807 292.491 206.548 291.565 206.548C290.612 206.548 289.866 206.756 289.328 207.171C288.79 207.586 288.521 208.129 288.521 208.799C288.521 209.432 288.771 209.909 289.271 210.229C289.772 210.55 290.673 210.857 291.976 211.15C293.288 211.443 294.35 211.792 295.162 212.198C295.974 212.604 296.573 213.095 296.96 213.67C297.357 214.237 297.555 214.931 297.555 215.752C297.555 217.121 297.008 218.221 295.913 219.051C294.818 219.873 293.397 220.283 291.65 220.283C290.423 220.283 289.338 220.066 288.394 219.632C287.45 219.198 286.708 218.593 286.17 217.819C285.642 217.036 285.377 216.191 285.377 215.285H287.997C288.044 216.163 288.394 216.861 289.045 217.38C289.706 217.89 290.574 218.145 291.65 218.145C292.642 218.145 293.435 217.947 294.029 217.55C294.633 217.144 294.936 216.606 294.936 215.936Z" fill="#2D3E50"/>
<defs>
<filter id="filter0_dd" x="17" y="522" width="369" height="208" filterUnits="userSpaceOnUse" color-interpolation-filters="sRGB">
<feFlood flood-opacity="0" result="BackgroundImageFix"/>
<feColorMatrix in="SourceAlpha" type="matrix" values="0 0 0 0 0 0 0 0 0 0 0 0 0 0 0 0 0 0 127 0"/>
<feOffset dx="6" dy="6"/>
<feGaussianBlur stdDeviation="8"/>
<feColorMatrix type="matrix" values="0 0 0 0 0 0 0 0 0 0.552941 0 0 0 0 0.180392 0 0 0 1 0"/>
<feBlend mode="normal" in2="BackgroundImageFix" result="effect1_dropShadow"/>
<feColorMatrix in="SourceAlpha" type="matrix" values="0 0 0 0 0 0 0 0 0 0 0 0 0 0 0 0 0 0 127 0"/>
<feOffset dx="-6" dy="-6"/>
<feGaussianBlur stdDeviation="5"/>
<feColorMatrix type="matrix" values="0 0 0 0 0.392157 0 0 0 0 1 0 0 0 0 0.678431 0 0 0 1 0"/>
<feBlend mode="normal" in2="effect1_dropShadow" result="effect2_dropShadow"/>
<feBlend mode="normal" in="SourceGraphic" in2="effect2_dropShadow" result="shape"/>
</filter>
<filter id="filter1_ii" x="27" y="319" width="343" height="182" filterUnits="userSpaceOnUse" color-interpolation-filters="sRGB">
<feFlood flood-opacity="0" result="BackgroundImageFix"/>
<feBlend mode="normal" in="SourceGraphic" in2="BackgroundImageFix" result="shape"/>
<feColorMatrix in="SourceAlpha" type="matrix" values="0 0 0 0 0 0 0 0 0 0 0 0 0 0 0 0 0 0 127 0" result="hardAlpha"/>
<feOffset dx="6" dy="6"/>
<feGaussianBlur stdDeviation="8"/>
<feComposite in2="hardAlpha" operator="arithmetic" k2="-1" k3="1"/>
<feColorMatrix type="matrix" values="0 0 0 0 0.623529 0 0 0 0 0.623529 0 0 0 0 0.623529 0 0 0 1 0"/>
<feBlend mode="normal" in2="shape" result="effect1_innerShadow"/>
<feColorMatrix in="SourceAlpha" type="matrix" values="0 0 0 0 0 0 0 0 0 0 0 0 0 0 0 0 0 0 127 0" result="hardAlpha"/>
<feOffset dx="-6" dy="-6"/>
<feGaussianBlur stdDeviation="5"/>
<feComposite in2="hardAlpha" operator="arithmetic" k2="-1" k3="1"/>
<feColorMatrix type="matrix" values="0 0 0 0 0.929412 0 0 0 0 0.929412 0 0 0 0 0.929412 0 0 0 0.76 0"/>
<feBlend mode="normal" in2="effect1_innerShadow" result="effect2_innerShadow"/>
</filter>
<filter id="filter2_d" x="7" y="101" width="387" height="226" filterUnits="userSpaceOnUse" color-interpolation-filters="sRGB">
<feFlood flood-opacity="0" result="BackgroundImageFix"/>
<feColorMatrix in="SourceAlpha" type="matrix" values="0 0 0 0 0 0 0 0 0 0 0 0 0 0 0 0 0 0 127 0"/>
<feOffset dx="2" dy="17"/>
<feGaussianBlur stdDeviation="14"/>
<feColorMatrix type="matrix" values="0 0 0 0 0 0 0 0 0 0 0 0 0 0 0 0 0 0 0.25 0"/>
<feBlend mode="normal" in2="BackgroundImageFix" result="effect1_dropShadow"/>
<feBlend mode="normal" in="SourceGraphic" in2="effect1_dropShadow" result="shape"/>
</filter>
<linearGradient id="paint0_linear" x1="0" y1="0" x2="458.079" y2="720.566" gradientUnits="userSpaceOnUse">
<stop stop-color="#43FC91"/>
<stop offset="1" stop-color="#2DCC70"/>
</linearGradient>
</defs>
</svg>
