<svg width="398" height="603" viewBox="0 0 398 603" fill="none" xmlns="http://www.w3.org/2000/svg">
<rect width="398" height="603" fill="#ECF0F1"/>
<g filter="url(#filter0_dd)">
<path d="M172.5 245.588C189.208 235.942 209.792 235.942 226.5 245.588L275.99 274.162C292.698 283.808 302.99 301.635 302.99 320.927V378.073C302.99 397.365 292.698 415.192 275.99 424.838L226.5 453.412C209.792 463.058 189.208 463.058 172.5 453.412L123.01 424.838C106.302 415.192 96.01 397.365 96.01 378.073V320.927C96.01 301.635 106.302 283.808 123.01 274.162L172.5 245.588Z" fill="#FFC224"/>
</g>
<path d="M34.1758 114.127C31.9245 113.48 30.2839 112.687 29.2539 111.748C28.2331 110.8 27.7227 109.633 27.7227 108.248C27.7227 106.68 28.347 105.386 29.5957 104.365C30.8535 103.335 32.485 102.82 34.4902 102.82C35.8574 102.82 37.0742 103.085 38.1406 103.613C39.2161 104.142 40.0456 104.871 40.6289 105.801C41.2214 106.73 41.5176 107.747 41.5176 108.85H38.8789C38.8789 107.646 38.4961 106.703 37.7305 106.02C36.9648 105.327 35.8848 104.98 34.4902 104.98C33.196 104.98 32.1842 105.268 31.4551 105.842C30.735 106.407 30.375 107.195 30.375 108.207C30.375 109.018 30.7168 109.706 31.4004 110.271C32.0931 110.827 33.2643 111.338 34.9141 111.803C36.5729 112.268 37.8672 112.783 38.7969 113.348C39.7357 113.904 40.4284 114.555 40.875 115.303C41.3307 116.05 41.5586 116.93 41.5586 117.941C41.5586 119.555 40.9297 120.849 39.6719 121.824C38.4141 122.79 36.7324 123.273 34.627 123.273C33.2598 123.273 31.9837 123.014 30.7988 122.494C29.6139 121.965 28.6979 121.245 28.0508 120.334C27.4128 119.423 27.0938 118.388 27.0938 117.23H29.7324C29.7324 118.434 30.1745 119.386 31.0586 120.088C31.9518 120.781 33.1413 121.127 34.627 121.127C36.0124 121.127 37.0742 120.844 37.8125 120.279C38.5508 119.714 38.9199 118.944 38.9199 117.969C38.9199 116.993 38.5781 116.242 37.8945 115.713C37.2109 115.175 35.9714 114.646 34.1758 114.127ZM53.6719 123C53.526 122.708 53.4076 122.189 53.3164 121.441C52.1406 122.663 50.737 123.273 49.1055 123.273C47.6471 123.273 46.4486 122.863 45.5098 122.043C44.5801 121.214 44.1152 120.165 44.1152 118.898C44.1152 117.358 44.6986 116.164 45.8652 115.316C47.041 114.46 48.6908 114.031 50.8145 114.031H53.2754V112.869C53.2754 111.985 53.0111 111.283 52.4824 110.764C51.9538 110.235 51.1745 109.971 50.1445 109.971C49.2422 109.971 48.4857 110.199 47.875 110.654C47.2643 111.11 46.959 111.661 46.959 112.309H44.416C44.416 111.57 44.6758 110.859 45.1953 110.176C45.724 109.483 46.4349 108.936 47.3281 108.535C48.2305 108.134 49.2194 107.934 50.2949 107.934C51.9993 107.934 53.3346 108.362 54.3008 109.219C55.2669 110.066 55.7682 111.238 55.8047 112.732V119.541C55.8047 120.899 55.9779 121.979 56.3242 122.781V123H53.6719ZM49.4746 121.072C50.2676 121.072 51.0195 120.867 51.7305 120.457C52.4414 120.047 52.9564 119.514 53.2754 118.857V115.822H51.293C48.194 115.822 46.6445 116.729 46.6445 118.543C46.6445 119.336 46.9089 119.956 47.4375 120.402C47.9661 120.849 48.6452 121.072 49.4746 121.072ZM64.3906 119.295L67.8359 108.207H70.543L64.5957 125.283C63.6751 127.744 62.2122 128.975 60.207 128.975L59.7285 128.934L58.7852 128.756V126.705L59.4688 126.76C60.3255 126.76 60.9909 126.587 61.4648 126.24C61.9479 125.894 62.3444 125.26 62.6543 124.34L63.2148 122.836L57.9375 108.207H60.6992L64.3906 119.295ZM85.8965 123.273C83.8913 123.273 82.2598 122.617 81.002 121.305C79.7441 119.983 79.1152 118.219 79.1152 116.014V115.549C79.1152 114.081 79.3932 112.773 79.9492 111.625C80.5143 110.467 81.2982 109.565 82.3008 108.918C83.3125 108.262 84.4062 107.934 85.582 107.934C87.5052 107.934 89 108.567 90.0664 109.834C91.1328 111.101 91.666 112.915 91.666 115.275V116.328H81.6445C81.681 117.786 82.1048 118.967 82.916 119.869C83.7363 120.762 84.7754 121.209 86.0332 121.209C86.9264 121.209 87.6829 121.027 88.3027 120.662C88.9225 120.298 89.4648 119.814 89.9297 119.213L91.4746 120.416C90.235 122.321 88.3757 123.273 85.8965 123.273ZM85.582 110.012C84.5612 110.012 83.7044 110.385 83.0117 111.133C82.319 111.871 81.8906 112.91 81.7266 114.25H89.1367V114.059C89.0638 112.773 88.7174 111.78 88.0977 111.078C87.4779 110.367 86.6393 110.012 85.582 110.012ZM103.738 123C103.592 122.708 103.474 122.189 103.383 121.441C102.207 122.663 100.803 123.273 99.1719 123.273C97.7135 123.273 96.515 122.863 95.5762 122.043C94.6465 121.214 94.1816 120.165 94.1816 118.898C94.1816 117.358 94.765 116.164 95.9316 115.316C97.1074 114.46 98.7572 114.031 100.881 114.031H103.342V112.869C103.342 111.985 103.077 111.283 102.549 110.764C102.02 110.235 101.241 109.971 100.211 109.971C99.3086 109.971 98.5521 110.199 97.9414 110.654C97.3307 111.11 97.0254 111.661 97.0254 112.309H94.4824C94.4824 111.57 94.7422 110.859 95.2617 110.176C95.7904 109.483 96.5013 108.936 97.3945 108.535C98.2969 108.134 99.2858 107.934 100.361 107.934C102.066 107.934 103.401 108.362 104.367 109.219C105.333 110.066 105.835 111.238 105.871 112.732V119.541C105.871 120.899 106.044 121.979 106.391 122.781V123H103.738ZM99.541 121.072C100.334 121.072 101.086 120.867 101.797 120.457C102.508 120.047 103.023 119.514 103.342 118.857V115.822H101.359C98.2604 115.822 96.7109 116.729 96.7109 118.543C96.7109 119.336 96.9753 119.956 97.5039 120.402C98.0326 120.849 98.7116 121.072 99.541 121.072ZM115.77 121.209C116.672 121.209 117.46 120.936 118.135 120.389C118.809 119.842 119.183 119.158 119.256 118.338H121.648C121.603 119.186 121.311 119.992 120.773 120.758C120.236 121.523 119.516 122.134 118.613 122.59C117.72 123.046 116.772 123.273 115.77 123.273C113.755 123.273 112.151 122.604 110.957 121.264C109.772 119.915 109.18 118.074 109.18 115.74V115.316C109.18 113.876 109.444 112.596 109.973 111.475C110.501 110.354 111.258 109.483 112.242 108.863C113.236 108.243 114.407 107.934 115.756 107.934C117.415 107.934 118.791 108.43 119.885 109.424C120.988 110.417 121.576 111.707 121.648 113.293H119.256C119.183 112.336 118.818 111.552 118.162 110.941C117.515 110.322 116.713 110.012 115.756 110.012C114.471 110.012 113.473 110.477 112.762 111.406C112.06 112.327 111.709 113.662 111.709 115.412V115.891C111.709 117.595 112.06 118.908 112.762 119.828C113.464 120.749 114.466 121.209 115.77 121.209ZM127.021 109.998C128.143 108.622 129.601 107.934 131.396 107.934C134.523 107.934 136.1 109.697 136.127 113.225V123H133.598V113.211C133.589 112.145 133.342 111.356 132.859 110.846C132.385 110.335 131.643 110.08 130.631 110.08C129.811 110.08 129.09 110.299 128.471 110.736C127.851 111.174 127.368 111.748 127.021 112.459V123H124.492V102H127.021V109.998ZM151.74 119.568L155.404 108.207H157.988L152.684 123H150.756L145.396 108.207H147.98L151.74 119.568ZM159.533 115.467C159.533 114.018 159.816 112.714 160.381 111.557C160.955 110.399 161.748 109.506 162.76 108.877C163.781 108.248 164.943 107.934 166.246 107.934C168.26 107.934 169.887 108.631 171.127 110.025C172.376 111.42 173 113.275 173 115.59V115.768C173 117.208 172.722 118.502 172.166 119.65C171.619 120.79 170.831 121.678 169.801 122.316C168.78 122.954 167.604 123.273 166.273 123.273C164.268 123.273 162.641 122.576 161.393 121.182C160.153 119.787 159.533 117.941 159.533 115.645V115.467ZM162.076 115.768C162.076 117.408 162.454 118.725 163.211 119.719C163.977 120.712 164.997 121.209 166.273 121.209C167.559 121.209 168.579 120.708 169.336 119.705C170.092 118.693 170.471 117.281 170.471 115.467C170.471 113.844 170.083 112.532 169.309 111.529C168.543 110.518 167.522 110.012 166.246 110.012C164.997 110.012 163.99 110.508 163.225 111.502C162.459 112.495 162.076 113.917 162.076 115.768ZM189.27 119.514L192.113 108.207H194.643L190.336 123H188.285L184.689 111.789L181.189 123H179.139L174.846 108.207H177.361L180.273 119.281L183.719 108.207H185.756L189.27 119.514ZM203.365 123.273C201.36 123.273 199.729 122.617 198.471 121.305C197.213 119.983 196.584 118.219 196.584 116.014V115.549C196.584 114.081 196.862 112.773 197.418 111.625C197.983 110.467 198.767 109.565 199.77 108.918C200.781 108.262 201.875 107.934 203.051 107.934C204.974 107.934 206.469 108.567 207.535 109.834C208.602 111.101 209.135 112.915 209.135 115.275V116.328H199.113C199.15 117.786 199.574 118.967 200.385 119.869C201.205 120.762 202.244 121.209 203.502 121.209C204.395 121.209 205.152 121.027 205.771 120.662C206.391 120.298 206.934 119.814 207.398 119.213L208.943 120.416C207.704 122.321 205.844 123.273 203.365 123.273ZM203.051 110.012C202.03 110.012 201.173 110.385 200.48 111.133C199.788 111.871 199.359 112.91 199.195 114.25H206.605V114.059C206.533 112.773 206.186 111.78 205.566 111.078C204.947 110.367 204.108 110.012 203.051 110.012ZM214.822 123H212.293V102H214.822V123ZM218.801 126.965L217.365 125.98C218.222 124.786 218.669 123.556 218.705 122.289V120.006H221.18V121.988C221.18 122.909 220.952 123.829 220.496 124.75C220.049 125.671 219.484 126.409 218.801 126.965ZM234.756 104.625V108.207H237.518V110.162H234.756V119.336C234.756 119.928 234.879 120.375 235.125 120.676C235.371 120.967 235.79 121.113 236.383 121.113C236.674 121.113 237.076 121.059 237.586 120.949V123C236.921 123.182 236.273 123.273 235.645 123.273C234.514 123.273 233.662 122.932 233.088 122.248C232.514 121.564 232.227 120.594 232.227 119.336V110.162H229.533V108.207H232.227V104.625H234.756ZM247.635 110.477C247.252 110.413 246.837 110.381 246.391 110.381C244.732 110.381 243.606 111.087 243.014 112.5V123H240.484V108.207H242.945L242.986 109.916C243.816 108.594 244.992 107.934 246.514 107.934C247.006 107.934 247.38 107.997 247.635 108.125V110.477ZM255.059 119.295L258.504 108.207H261.211L255.264 125.283C254.343 127.744 252.88 128.975 250.875 128.975L250.396 128.934L249.453 128.756V126.705L250.137 126.76C250.993 126.76 251.659 126.587 252.133 126.24C252.616 125.894 253.012 125.26 253.322 124.34L253.883 122.836L248.605 108.207H251.367L255.059 119.295ZM273.857 104.625V108.207H276.619V110.162H273.857V119.336C273.857 119.928 273.98 120.375 274.227 120.676C274.473 120.967 274.892 121.113 275.484 121.113C275.776 121.113 276.177 121.059 276.688 120.949V123C276.022 123.182 275.375 123.273 274.746 123.273C273.616 123.273 272.764 122.932 272.189 122.248C271.615 121.564 271.328 120.594 271.328 119.336V110.162H268.635V108.207H271.328V104.625H273.857ZM278.643 115.467C278.643 114.018 278.925 112.714 279.49 111.557C280.064 110.399 280.857 109.506 281.869 108.877C282.89 108.248 284.052 107.934 285.355 107.934C287.37 107.934 288.997 108.631 290.236 110.025C291.485 111.42 292.109 113.275 292.109 115.59V115.768C292.109 117.208 291.831 118.502 291.275 119.65C290.729 120.79 289.94 121.678 288.91 122.316C287.889 122.954 286.714 123.273 285.383 123.273C283.378 123.273 281.751 122.576 280.502 121.182C279.262 119.787 278.643 117.941 278.643 115.645V115.467ZM281.186 115.768C281.186 117.408 281.564 118.725 282.32 119.719C283.086 120.712 284.107 121.209 285.383 121.209C286.668 121.209 287.689 120.708 288.445 119.705C289.202 118.693 289.58 117.281 289.58 115.467C289.58 113.844 289.193 112.532 288.418 111.529C287.652 110.518 286.632 110.012 285.355 110.012C284.107 110.012 283.1 110.508 282.334 111.502C281.568 112.495 281.186 113.917 281.186 115.768ZM311.359 121.537C310.375 122.695 308.93 123.273 307.025 123.273C305.449 123.273 304.245 122.818 303.416 121.906C302.596 120.986 302.181 119.628 302.172 117.832V108.207H304.701V117.764C304.701 120.006 305.613 121.127 307.436 121.127C309.368 121.127 310.653 120.407 311.291 118.967V108.207H313.82V123H311.414L311.359 121.537ZM326.289 119.076C326.289 118.393 326.029 117.864 325.51 117.49C324.999 117.107 324.102 116.779 322.816 116.506C321.54 116.232 320.524 115.904 319.768 115.521C319.02 115.139 318.464 114.683 318.1 114.154C317.744 113.626 317.566 112.997 317.566 112.268C317.566 111.055 318.077 110.03 319.098 109.191C320.128 108.353 321.44 107.934 323.035 107.934C324.712 107.934 326.07 108.367 327.109 109.232C328.158 110.098 328.682 111.206 328.682 112.555H326.139C326.139 111.862 325.842 111.265 325.25 110.764C324.667 110.262 323.928 110.012 323.035 110.012C322.115 110.012 321.395 110.212 320.875 110.613C320.355 111.014 320.096 111.538 320.096 112.186C320.096 112.796 320.337 113.257 320.82 113.566C321.303 113.876 322.174 114.173 323.432 114.455C324.699 114.738 325.724 115.075 326.508 115.467C327.292 115.859 327.87 116.333 328.244 116.889C328.627 117.436 328.818 118.105 328.818 118.898C328.818 120.22 328.29 121.282 327.232 122.084C326.175 122.877 324.803 123.273 323.117 123.273C321.932 123.273 320.884 123.064 319.973 122.645C319.061 122.225 318.346 121.642 317.826 120.895C317.316 120.138 317.061 119.322 317.061 118.447H319.59C319.635 119.295 319.973 119.969 320.602 120.471C321.24 120.963 322.078 121.209 323.117 121.209C324.074 121.209 324.84 121.018 325.414 120.635C325.997 120.243 326.289 119.723 326.289 119.076ZM338.252 123.273C336.247 123.273 334.615 122.617 333.357 121.305C332.1 119.983 331.471 118.219 331.471 116.014V115.549C331.471 114.081 331.749 112.773 332.305 111.625C332.87 110.467 333.654 109.565 334.656 108.918C335.668 108.262 336.762 107.934 337.938 107.934C339.861 107.934 341.355 108.567 342.422 109.834C343.488 111.101 344.021 112.915 344.021 115.275V116.328H334C334.036 117.786 334.46 118.967 335.271 119.869C336.092 120.762 337.131 121.209 338.389 121.209C339.282 121.209 340.038 121.027 340.658 120.662C341.278 120.298 341.82 119.814 342.285 119.213L343.83 120.416C342.59 122.321 340.731 123.273 338.252 123.273ZM337.938 110.012C336.917 110.012 336.06 110.385 335.367 111.133C334.674 111.871 334.246 112.91 334.082 114.25H341.492V114.059C341.419 112.773 341.073 111.78 340.453 111.078C339.833 110.367 338.995 110.012 337.938 110.012ZM31.3457 137.625V141.207H34.1074V143.162H31.3457V152.336C31.3457 152.928 31.4688 153.375 31.7148 153.676C31.9609 153.967 32.3802 154.113 32.9727 154.113C33.2643 154.113 33.6654 154.059 34.1758 153.949V156C33.5104 156.182 32.8633 156.273 32.2344 156.273C31.1042 156.273 30.252 155.932 29.6777 155.248C29.1035 154.564 28.8164 153.594 28.8164 152.336V143.162H26.123V141.207H28.8164V137.625H31.3457ZM39.6035 142.998C40.7246 141.622 42.1829 140.934 43.9785 140.934C47.1048 140.934 48.6816 142.697 48.709 146.225V156H46.1797V146.211C46.1706 145.145 45.9245 144.356 45.4414 143.846C44.9674 143.335 44.2246 143.08 43.2129 143.08C42.3926 143.08 41.6725 143.299 41.0527 143.736C40.4329 144.174 39.9499 144.748 39.6035 145.459V156H37.0742V135H39.6035V142.998ZM58.6348 156.273C56.6296 156.273 54.998 155.617 53.7402 154.305C52.4824 152.983 51.8535 151.219 51.8535 149.014V148.549C51.8535 147.081 52.1315 145.773 52.6875 144.625C53.2526 143.467 54.0365 142.565 55.0391 141.918C56.0508 141.262 57.1445 140.934 58.3203 140.934C60.2435 140.934 61.7383 141.567 62.8047 142.834C63.8711 144.101 64.4043 145.915 64.4043 148.275V149.328H54.3828C54.4193 150.786 54.8431 151.967 55.6543 152.869C56.4746 153.762 57.5137 154.209 58.7715 154.209C59.6647 154.209 60.4212 154.027 61.041 153.662C61.6608 153.298 62.2031 152.814 62.668 152.213L64.2129 153.416C62.9733 155.321 61.1139 156.273 58.6348 156.273ZM58.3203 143.012C57.2995 143.012 56.4427 143.385 55.75 144.133C55.0573 144.871 54.6289 145.91 54.4648 147.25H61.875V147.059C61.8021 145.773 61.4557 144.78 60.8359 144.078C60.2161 143.367 59.3776 143.012 58.3203 143.012ZM87.3867 152.514L90.2305 141.207H92.7598L88.4531 156H86.4023L82.8066 144.789L79.3066 156H77.2559L72.9629 141.207H75.4785L78.3906 152.281L81.8359 141.207H83.873L87.3867 152.514ZM97.873 142.998C98.9941 141.622 100.452 140.934 102.248 140.934C105.374 140.934 106.951 142.697 106.979 146.225V156H104.449V146.211C104.44 145.145 104.194 144.356 103.711 143.846C103.237 143.335 102.494 143.08 101.482 143.08C100.662 143.08 99.9421 143.299 99.3223 143.736C98.7025 144.174 98.2194 144.748 97.873 145.459V156H95.3438V135H97.873V142.998ZM110.096 148.467C110.096 147.018 110.378 145.714 110.943 144.557C111.518 143.399 112.311 142.506 113.322 141.877C114.343 141.248 115.505 140.934 116.809 140.934C118.823 140.934 120.45 141.631 121.689 143.025C122.938 144.42 123.562 146.275 123.562 148.59V148.768C123.562 150.208 123.285 151.502 122.729 152.65C122.182 153.79 121.393 154.678 120.363 155.316C119.342 155.954 118.167 156.273 116.836 156.273C114.831 156.273 113.204 155.576 111.955 154.182C110.715 152.787 110.096 150.941 110.096 148.645V148.467ZM112.639 148.768C112.639 150.408 113.017 151.725 113.773 152.719C114.539 153.712 115.56 154.209 116.836 154.209C118.121 154.209 119.142 153.708 119.898 152.705C120.655 151.693 121.033 150.281 121.033 148.467C121.033 146.844 120.646 145.532 119.871 144.529C119.105 143.518 118.085 143.012 116.809 143.012C115.56 143.012 114.553 143.508 113.787 144.502C113.021 145.495 112.639 146.917 112.639 148.768ZM129.482 156H126.953V135H129.482V156ZM139.682 156.273C137.676 156.273 136.045 155.617 134.787 154.305C133.529 152.983 132.9 151.219 132.9 149.014V148.549C132.9 147.081 133.178 145.773 133.734 144.625C134.299 143.467 135.083 142.565 136.086 141.918C137.098 141.262 138.191 140.934 139.367 140.934C141.29 140.934 142.785 141.567 143.852 142.834C144.918 144.101 145.451 145.915 145.451 148.275V149.328H135.43C135.466 150.786 135.89 151.967 136.701 152.869C137.521 153.762 138.561 154.209 139.818 154.209C140.712 154.209 141.468 154.027 142.088 153.662C142.708 153.298 143.25 152.814 143.715 152.213L145.26 153.416C144.02 155.321 142.161 156.273 139.682 156.273ZM139.367 143.012C138.346 143.012 137.49 143.385 136.797 144.133C136.104 144.871 135.676 145.91 135.512 147.25H142.922V147.059C142.849 145.773 142.503 144.78 141.883 144.078C141.263 143.367 140.424 143.012 139.367 143.012ZM167.859 148.768C167.859 151.028 167.34 152.846 166.301 154.223C165.262 155.59 163.867 156.273 162.117 156.273C160.249 156.273 158.804 155.613 157.783 154.291L157.66 156H155.336V135H157.865V142.834C158.886 141.567 160.294 140.934 162.09 140.934C163.885 140.934 165.294 141.613 166.314 142.971C167.344 144.329 167.859 146.188 167.859 148.549V148.768ZM165.33 148.48C165.33 146.758 164.997 145.427 164.332 144.488C163.667 143.549 162.71 143.08 161.461 143.08C159.793 143.08 158.594 143.855 157.865 145.404V151.803C158.64 153.352 159.848 154.127 161.488 154.127C162.701 154.127 163.644 153.658 164.318 152.719C164.993 151.78 165.33 150.367 165.33 148.48ZM178.209 143.477C177.826 143.413 177.411 143.381 176.965 143.381C175.306 143.381 174.18 144.087 173.588 145.5V156H171.059V141.207H173.52L173.561 142.916C174.39 141.594 175.566 140.934 177.088 140.934C177.58 140.934 177.954 140.997 178.209 141.125V143.477ZM186.412 156.273C184.407 156.273 182.775 155.617 181.518 154.305C180.26 152.983 179.631 151.219 179.631 149.014V148.549C179.631 147.081 179.909 145.773 180.465 144.625C181.03 143.467 181.814 142.565 182.816 141.918C183.828 141.262 184.922 140.934 186.098 140.934C188.021 140.934 189.516 141.567 190.582 142.834C191.648 144.101 192.182 145.915 192.182 148.275V149.328H182.16C182.197 150.786 182.62 151.967 183.432 152.869C184.252 153.762 185.291 154.209 186.549 154.209C187.442 154.209 188.199 154.027 188.818 153.662C189.438 153.298 189.98 152.814 190.445 152.213L191.99 153.416C190.751 155.321 188.891 156.273 186.412 156.273ZM186.098 143.012C185.077 143.012 184.22 143.385 183.527 144.133C182.835 144.871 182.406 145.91 182.242 147.25H189.652V147.059C189.579 145.773 189.233 144.78 188.613 144.078C187.993 143.367 187.155 143.012 186.098 143.012ZM204.254 156C204.108 155.708 203.99 155.189 203.898 154.441C202.723 155.663 201.319 156.273 199.688 156.273C198.229 156.273 197.031 155.863 196.092 155.043C195.162 154.214 194.697 153.165 194.697 151.898C194.697 150.358 195.281 149.164 196.447 148.316C197.623 147.46 199.273 147.031 201.396 147.031H203.857V145.869C203.857 144.985 203.593 144.283 203.064 143.764C202.536 143.235 201.757 142.971 200.727 142.971C199.824 142.971 199.068 143.199 198.457 143.654C197.846 144.11 197.541 144.661 197.541 145.309H194.998C194.998 144.57 195.258 143.859 195.777 143.176C196.306 142.483 197.017 141.936 197.91 141.535C198.812 141.134 199.801 140.934 200.877 140.934C202.581 140.934 203.917 141.362 204.883 142.219C205.849 143.066 206.35 144.238 206.387 145.732V152.541C206.387 153.899 206.56 154.979 206.906 155.781V156H204.254ZM200.057 154.072C200.85 154.072 201.602 153.867 202.312 153.457C203.023 153.047 203.538 152.514 203.857 151.857V148.822H201.875C198.776 148.822 197.227 149.729 197.227 151.543C197.227 152.336 197.491 152.956 198.02 153.402C198.548 153.849 199.227 154.072 200.057 154.072ZM213.783 137.625V141.207H216.545V143.162H213.783V152.336C213.783 152.928 213.906 153.375 214.152 153.676C214.398 153.967 214.818 154.113 215.41 154.113C215.702 154.113 216.103 154.059 216.613 153.949V156C215.948 156.182 215.301 156.273 214.672 156.273C213.542 156.273 212.689 155.932 212.115 155.248C211.541 154.564 211.254 153.594 211.254 152.336V143.162H208.561V141.207H211.254V137.625H213.783ZM222.041 142.998C223.162 141.622 224.62 140.934 226.416 140.934C229.542 140.934 231.119 142.697 231.146 146.225V156H228.617V146.211C228.608 145.145 228.362 144.356 227.879 143.846C227.405 143.335 226.662 143.08 225.65 143.08C224.83 143.08 224.11 143.299 223.49 143.736C222.87 144.174 222.387 144.748 222.041 145.459V156H219.512V135H222.041V142.998ZM244.627 156H242.098V141.207H244.627V156ZM241.893 137.283C241.893 136.873 242.016 136.527 242.262 136.244C242.517 135.962 242.891 135.82 243.383 135.82C243.875 135.82 244.249 135.962 244.504 136.244C244.759 136.527 244.887 136.873 244.887 137.283C244.887 137.693 244.759 138.035 244.504 138.309C244.249 138.582 243.875 138.719 243.383 138.719C242.891 138.719 242.517 138.582 242.262 138.309C242.016 138.035 241.893 137.693 241.893 137.283ZM251.08 141.207L251.162 143.066C252.292 141.645 253.769 140.934 255.592 140.934C258.718 140.934 260.295 142.697 260.322 146.225V156H257.793V146.211C257.784 145.145 257.538 144.356 257.055 143.846C256.581 143.335 255.838 143.08 254.826 143.08C254.006 143.08 253.286 143.299 252.666 143.736C252.046 144.174 251.563 144.748 251.217 145.459V156H248.688V141.207H251.08ZM274.514 137.625V141.207H277.275V143.162H274.514V152.336C274.514 152.928 274.637 153.375 274.883 153.676C275.129 153.967 275.548 154.113 276.141 154.113C276.432 154.113 276.833 154.059 277.344 153.949V156C276.678 156.182 276.031 156.273 275.402 156.273C274.272 156.273 273.42 155.932 272.846 155.248C272.271 154.564 271.984 153.594 271.984 152.336V143.162H269.291V141.207H271.984V137.625H274.514ZM282.99 156H280.461V141.207H282.99V156ZM280.256 137.283C280.256 136.873 280.379 136.527 280.625 136.244C280.88 135.962 281.254 135.82 281.746 135.82C282.238 135.82 282.612 135.962 282.867 136.244C283.122 136.527 283.25 136.873 283.25 137.283C283.25 137.693 283.122 138.035 282.867 138.309C282.612 138.582 282.238 138.719 281.746 138.719C281.254 138.719 280.88 138.582 280.625 138.309C280.379 138.035 280.256 137.693 280.256 137.283ZM289.43 141.207L289.498 142.848C290.583 141.572 292.046 140.934 293.887 140.934C295.956 140.934 297.364 141.727 298.111 143.312C298.604 142.602 299.242 142.027 300.025 141.59C300.818 141.152 301.753 140.934 302.828 140.934C306.073 140.934 307.723 142.652 307.777 146.088V156H305.248V146.238C305.248 145.181 305.007 144.393 304.523 143.873C304.04 143.344 303.229 143.08 302.09 143.08C301.151 143.08 300.372 143.363 299.752 143.928C299.132 144.484 298.772 145.236 298.672 146.184V156H296.129V146.307C296.129 144.156 295.076 143.08 292.971 143.08C291.312 143.08 290.177 143.786 289.566 145.199V156H287.037V141.207H289.43ZM317.744 156.273C315.739 156.273 314.107 155.617 312.85 154.305C311.592 152.983 310.963 151.219 310.963 149.014V148.549C310.963 147.081 311.241 145.773 311.797 144.625C312.362 143.467 313.146 142.565 314.148 141.918C315.16 141.262 316.254 140.934 317.43 140.934C319.353 140.934 320.848 141.567 321.914 142.834C322.98 144.101 323.514 145.915 323.514 148.275V149.328H313.492C313.529 150.786 313.952 151.967 314.764 152.869C315.584 153.762 316.623 154.209 317.881 154.209C318.774 154.209 319.531 154.027 320.15 153.662C320.77 153.298 321.312 152.814 321.777 152.213L323.322 153.416C322.083 155.321 320.223 156.273 317.744 156.273ZM317.43 143.012C316.409 143.012 315.552 143.385 314.859 144.133C314.167 144.871 313.738 145.91 313.574 147.25H320.984V147.059C320.911 145.773 320.565 144.78 319.945 144.078C319.326 143.367 318.487 143.012 317.43 143.012ZM41.0117 185.514L43.8555 174.207H46.3848L42.0781 189H40.0273L36.4316 177.789L32.9316 189H30.8809L26.5879 174.207H29.1035L32.0156 185.281L35.4609 174.207H37.498L41.0117 185.514ZM51.7168 189H49.1875V174.207H51.7168V189ZM48.9824 170.283C48.9824 169.873 49.1055 169.527 49.3516 169.244C49.6068 168.962 49.9805 168.82 50.4727 168.82C50.9648 168.82 51.3385 168.962 51.5938 169.244C51.849 169.527 51.9766 169.873 51.9766 170.283C51.9766 170.693 51.849 171.035 51.5938 171.309C51.3385 171.582 50.9648 171.719 50.4727 171.719C49.9805 171.719 49.6068 171.582 49.3516 171.309C49.1055 171.035 48.9824 170.693 48.9824 170.283ZM59.209 170.625V174.207H61.9707V176.162H59.209V185.336C59.209 185.928 59.332 186.375 59.5781 186.676C59.8242 186.967 60.2435 187.113 60.8359 187.113C61.1276 187.113 61.5286 187.059 62.0391 186.949V189C61.3737 189.182 60.7266 189.273 60.0977 189.273C58.9674 189.273 58.1152 188.932 57.541 188.248C56.9668 187.564 56.6797 186.594 56.6797 185.336V176.162H53.9863V174.207H56.6797V170.625H59.209ZM67.4668 175.998C68.5879 174.622 70.0462 173.934 71.8418 173.934C74.9681 173.934 76.5449 175.697 76.5723 179.225V189H74.043V179.211C74.0339 178.145 73.7878 177.356 73.3047 176.846C72.8307 176.335 72.0879 176.08 71.0762 176.08C70.2559 176.08 69.5358 176.299 68.916 176.736C68.2962 177.174 67.8132 177.748 67.4668 178.459V189H64.9375V168H67.4668V175.998ZM90.7363 170.625V174.207H93.498V176.162H90.7363V185.336C90.7363 185.928 90.8594 186.375 91.1055 186.676C91.3516 186.967 91.7708 187.113 92.3633 187.113C92.6549 187.113 93.056 187.059 93.5664 186.949V189C92.901 189.182 92.2539 189.273 91.625 189.273C90.4948 189.273 89.6426 188.932 89.0684 188.248C88.4941 187.564 88.207 186.594 88.207 185.336V176.162H85.5137V174.207H88.207V170.625H90.7363ZM98.9941 175.998C100.115 174.622 101.574 173.934 103.369 173.934C106.495 173.934 108.072 175.697 108.1 179.225V189H105.57V179.211C105.561 178.145 105.315 177.356 104.832 176.846C104.358 176.335 103.615 176.08 102.604 176.08C101.783 176.08 101.063 176.299 100.443 176.736C99.8236 177.174 99.3405 177.748 98.9941 178.459V189H96.4648V168H98.9941V175.998ZM118.025 189.273C116.02 189.273 114.389 188.617 113.131 187.305C111.873 185.983 111.244 184.219 111.244 182.014V181.549C111.244 180.081 111.522 178.773 112.078 177.625C112.643 176.467 113.427 175.565 114.43 174.918C115.441 174.262 116.535 173.934 117.711 173.934C119.634 173.934 121.129 174.567 122.195 175.834C123.262 177.101 123.795 178.915 123.795 181.275V182.328H113.773C113.81 183.786 114.234 184.967 115.045 185.869C115.865 186.762 116.904 187.209 118.162 187.209C119.055 187.209 119.812 187.027 120.432 186.662C121.051 186.298 121.594 185.814 122.059 185.213L123.604 186.416C122.364 188.321 120.505 189.273 118.025 189.273ZM117.711 176.012C116.69 176.012 115.833 176.385 115.141 177.133C114.448 177.871 114.02 178.91 113.855 180.25H121.266V180.059C121.193 178.773 120.846 177.78 120.227 177.078C119.607 176.367 118.768 176.012 117.711 176.012ZM142.293 185.076C142.293 184.393 142.033 183.864 141.514 183.49C141.003 183.107 140.105 182.779 138.82 182.506C137.544 182.232 136.528 181.904 135.771 181.521C135.024 181.139 134.468 180.683 134.104 180.154C133.748 179.626 133.57 178.997 133.57 178.268C133.57 177.055 134.081 176.03 135.102 175.191C136.132 174.353 137.444 173.934 139.039 173.934C140.716 173.934 142.074 174.367 143.113 175.232C144.161 176.098 144.686 177.206 144.686 178.555H142.143C142.143 177.862 141.846 177.265 141.254 176.764C140.671 176.262 139.932 176.012 139.039 176.012C138.118 176.012 137.398 176.212 136.879 176.613C136.359 177.014 136.1 177.538 136.1 178.186C136.1 178.796 136.341 179.257 136.824 179.566C137.307 179.876 138.178 180.173 139.436 180.455C140.702 180.738 141.728 181.075 142.512 181.467C143.296 181.859 143.874 182.333 144.248 182.889C144.631 183.436 144.822 184.105 144.822 184.898C144.822 186.22 144.294 187.282 143.236 188.084C142.179 188.877 140.807 189.273 139.121 189.273C137.936 189.273 136.888 189.064 135.977 188.645C135.065 188.225 134.35 187.642 133.83 186.895C133.32 186.138 133.064 185.322 133.064 184.447H135.594C135.639 185.295 135.977 185.969 136.605 186.471C137.243 186.963 138.082 187.209 139.121 187.209C140.078 187.209 140.844 187.018 141.418 186.635C142.001 186.243 142.293 185.723 142.293 185.076ZM150.646 175.998C151.768 174.622 153.226 173.934 155.021 173.934C158.148 173.934 159.725 175.697 159.752 179.225V189H157.223V179.211C157.214 178.145 156.967 177.356 156.484 176.846C156.01 176.335 155.268 176.08 154.256 176.08C153.436 176.08 152.715 176.299 152.096 176.736C151.476 177.174 150.993 177.748 150.646 178.459V189H148.117V168H150.646V175.998ZM172.672 189C172.526 188.708 172.408 188.189 172.316 187.441C171.141 188.663 169.737 189.273 168.105 189.273C166.647 189.273 165.449 188.863 164.51 188.043C163.58 187.214 163.115 186.165 163.115 184.898C163.115 183.358 163.699 182.164 164.865 181.316C166.041 180.46 167.691 180.031 169.814 180.031H172.275V178.869C172.275 177.985 172.011 177.283 171.482 176.764C170.954 176.235 170.174 175.971 169.145 175.971C168.242 175.971 167.486 176.199 166.875 176.654C166.264 177.11 165.959 177.661 165.959 178.309H163.416C163.416 177.57 163.676 176.859 164.195 176.176C164.724 175.483 165.435 174.936 166.328 174.535C167.23 174.134 168.219 173.934 169.295 173.934C170.999 173.934 172.335 174.362 173.301 175.219C174.267 176.066 174.768 177.238 174.805 178.732V185.541C174.805 186.899 174.978 187.979 175.324 188.781V189H172.672ZM168.475 187.072C169.268 187.072 170.02 186.867 170.73 186.457C171.441 186.047 171.956 185.514 172.275 184.857V181.822H170.293C167.194 181.822 165.645 182.729 165.645 184.543C165.645 185.336 165.909 185.956 166.438 186.402C166.966 186.849 167.645 187.072 168.475 187.072ZM191.266 181.768C191.266 184.019 190.751 185.833 189.721 187.209C188.691 188.585 187.296 189.273 185.537 189.273C183.742 189.273 182.329 188.704 181.299 187.564V194.688H178.77V174.207H181.08L181.203 175.848C182.233 174.572 183.664 173.934 185.496 173.934C187.273 173.934 188.677 174.604 189.707 175.943C190.746 177.283 191.266 179.147 191.266 181.535V181.768ZM188.736 181.48C188.736 179.812 188.381 178.495 187.67 177.529C186.959 176.563 185.984 176.08 184.744 176.08C183.213 176.08 182.064 176.759 181.299 178.117V185.186C182.055 186.535 183.213 187.209 184.771 187.209C185.984 187.209 186.945 186.73 187.656 185.773C188.376 184.807 188.736 183.376 188.736 181.48ZM200.631 189.273C198.626 189.273 196.994 188.617 195.736 187.305C194.479 185.983 193.85 184.219 193.85 182.014V181.549C193.85 180.081 194.128 178.773 194.684 177.625C195.249 176.467 196.033 175.565 197.035 174.918C198.047 174.262 199.141 173.934 200.316 173.934C202.24 173.934 203.734 174.567 204.801 175.834C205.867 177.101 206.4 178.915 206.4 181.275V182.328H196.379C196.415 183.786 196.839 184.967 197.65 185.869C198.471 186.762 199.51 187.209 200.768 187.209C201.661 187.209 202.417 187.027 203.037 186.662C203.657 186.298 204.199 185.814 204.664 185.213L206.209 186.416C204.969 188.321 203.11 189.273 200.631 189.273ZM200.316 176.012C199.296 176.012 198.439 176.385 197.746 177.133C197.053 177.871 196.625 178.91 196.461 180.25H203.871V180.059C203.798 178.773 203.452 177.78 202.832 177.078C202.212 176.367 201.374 176.012 200.316 176.012ZM228.809 181.768C228.809 184.028 228.289 185.846 227.25 187.223C226.211 188.59 224.816 189.273 223.066 189.273C221.198 189.273 219.753 188.613 218.732 187.291L218.609 189H216.285V168H218.814V175.834C219.835 174.567 221.243 173.934 223.039 173.934C224.835 173.934 226.243 174.613 227.264 175.971C228.294 177.329 228.809 179.188 228.809 181.549V181.768ZM226.279 181.48C226.279 179.758 225.947 178.427 225.281 177.488C224.616 176.549 223.659 176.08 222.41 176.08C220.742 176.08 219.544 176.855 218.814 178.404V184.803C219.589 186.352 220.797 187.127 222.438 187.127C223.65 187.127 224.593 186.658 225.268 185.719C225.942 184.78 226.279 183.367 226.279 181.48ZM238.146 189.273C236.141 189.273 234.51 188.617 233.252 187.305C231.994 185.983 231.365 184.219 231.365 182.014V181.549C231.365 180.081 231.643 178.773 232.199 177.625C232.764 176.467 233.548 175.565 234.551 174.918C235.562 174.262 236.656 173.934 237.832 173.934C239.755 173.934 241.25 174.567 242.316 175.834C243.383 177.101 243.916 178.915 243.916 181.275V182.328H233.895C233.931 183.786 234.355 184.967 235.166 185.869C235.986 186.762 237.025 187.209 238.283 187.209C239.176 187.209 239.933 187.027 240.553 186.662C241.173 186.298 241.715 185.814 242.18 185.213L243.725 186.416C242.485 188.321 240.626 189.273 238.146 189.273ZM237.832 176.012C236.811 176.012 235.954 176.385 235.262 177.133C234.569 177.871 234.141 178.91 233.977 180.25H241.387V180.059C241.314 178.773 240.967 177.78 240.348 177.078C239.728 176.367 238.889 176.012 237.832 176.012ZM249.604 189H247.074V168H249.604V189ZM256.412 189H253.883V168H256.412V189ZM259.803 181.467C259.803 180.018 260.085 178.714 260.65 177.557C261.225 176.399 262.018 175.506 263.029 174.877C264.05 174.248 265.212 173.934 266.516 173.934C268.53 173.934 270.157 174.631 271.396 176.025C272.645 177.42 273.27 179.275 273.27 181.59V181.768C273.27 183.208 272.992 184.502 272.436 185.65C271.889 186.79 271.1 187.678 270.07 188.316C269.049 188.954 267.874 189.273 266.543 189.273C264.538 189.273 262.911 188.576 261.662 187.182C260.423 185.787 259.803 183.941 259.803 181.645V181.467ZM262.346 181.768C262.346 183.408 262.724 184.725 263.48 185.719C264.246 186.712 265.267 187.209 266.543 187.209C267.828 187.209 268.849 186.708 269.605 185.705C270.362 184.693 270.74 183.281 270.74 181.467C270.74 179.844 270.353 178.532 269.578 177.529C268.812 176.518 267.792 176.012 266.516 176.012C265.267 176.012 264.26 176.508 263.494 177.502C262.729 178.495 262.346 179.917 262.346 181.768ZM289.539 185.514L292.383 174.207H294.912L290.605 189H288.555L284.959 177.789L281.459 189H279.408L275.115 174.207H277.631L280.543 185.281L283.988 174.207H286.025L289.539 185.514ZM295.855 187.674C295.855 187.236 295.983 186.872 296.238 186.58C296.503 186.288 296.895 186.143 297.414 186.143C297.934 186.143 298.326 186.288 298.59 186.58C298.863 186.872 299 187.236 299 187.674C299 188.093 298.863 188.444 298.59 188.727C298.326 189.009 297.934 189.15 297.414 189.15C296.895 189.15 296.503 189.009 296.238 188.727C295.983 188.444 295.855 188.093 295.855 187.674Z" fill="black"/>
<path d="M192.868 345.863H195.951C197.419 345.863 198.507 345.496 199.214 344.762C199.921 344.028 200.275 343.054 200.275 341.839C200.275 340.665 199.921 339.751 199.214 339.097C198.52 338.443 197.559 338.116 196.331 338.116C195.223 338.116 194.296 338.423 193.548 339.037C192.801 339.637 192.427 340.425 192.427 341.399H186.642C186.642 339.877 187.049 338.516 187.863 337.315C188.69 336.1 189.838 335.153 191.306 334.472C192.788 333.792 194.416 333.451 196.191 333.451C199.274 333.451 201.69 334.192 203.438 335.673C205.186 337.141 206.061 339.17 206.061 341.759C206.061 343.094 205.653 344.322 204.839 345.443C204.025 346.564 202.958 347.425 201.636 348.025C203.278 348.613 204.499 349.493 205.3 350.668C206.114 351.842 206.521 353.23 206.521 354.832C206.521 357.421 205.573 359.497 203.678 361.058C201.796 362.62 199.301 363.4 196.191 363.4C193.281 363.4 190.899 362.633 189.044 361.098C187.202 359.563 186.281 357.535 186.281 355.012H192.067C192.067 356.107 192.474 357.001 193.288 357.695C194.116 358.389 195.13 358.736 196.331 358.736C197.706 358.736 198.78 358.375 199.554 357.655C200.342 356.921 200.735 355.953 200.735 354.752C200.735 351.842 199.134 350.388 195.931 350.388H192.868V345.863ZM211.065 360.157C211.065 359.236 211.372 358.489 211.986 357.915C212.614 357.341 213.394 357.054 214.329 357.054C215.276 357.054 216.057 357.341 216.671 357.915C217.298 358.489 217.612 359.236 217.612 360.157C217.612 361.065 217.305 361.806 216.691 362.379C216.077 362.94 215.29 363.22 214.329 363.22C213.381 363.22 212.6 362.94 211.986 362.379C211.372 361.806 211.065 361.065 211.065 360.157ZM222.997 360.157C222.997 359.236 223.304 358.489 223.918 357.915C224.545 357.341 225.326 357.054 226.26 357.054C227.208 357.054 227.989 357.341 228.603 357.915C229.23 358.489 229.543 359.236 229.543 360.157C229.543 361.065 229.236 361.806 228.623 362.379C228.009 362.94 227.221 363.22 226.26 363.22C225.313 363.22 224.532 362.94 223.918 362.379C223.304 361.806 222.997 361.065 222.997 360.157ZM234.929 360.157C234.929 359.236 235.236 358.489 235.85 357.915C236.477 357.341 237.258 357.054 238.192 357.054C239.139 357.054 239.92 357.341 240.534 357.915C241.161 358.489 241.475 359.236 241.475 360.157C241.475 361.065 241.168 361.806 240.554 362.379C239.94 362.94 239.153 363.22 238.192 363.22C237.244 363.22 236.464 362.94 235.85 362.379C235.236 361.806 234.929 361.065 234.929 360.157Z" fill="#2D3E50"/>
<g filter="url(#filter1_dd)">
<rect x="19" y="545" width="64" height="16" rx="6" fill="#2DCC70"/>
</g>
<g filter="url(#filter2_dd)">
<rect x="93" y="545" width="64" height="16" rx="6" fill="#2DCC70"/>
</g>
<g filter="url(#filter3_ii)">
<rect x="241" y="545" width="64" height="16" rx="6" fill="#C4C4C4"/>
</g>
<g filter="url(#filter4_ii)">
<rect x="315" y="545" width="64" height="16" rx="6" fill="#C4C4C4"/>
</g>
<g filter="url(#filter5_dd)">
<rect x="167" y="545" width="64" height="16" rx="6" fill="#2DCC70"/>
</g>
<rect width="398" height="62" fill="#2DCC70"/>
<path d="M92.4219 39V25.4922H97.1533C98.7923 25.4922 100.035 25.8076 100.883 26.4385C101.73 27.0632 102.154 27.9816 102.154 29.1938C102.154 29.8556 101.984 30.4401 101.644 30.9473C101.303 31.4482 100.83 31.8162 100.224 32.0513C100.917 32.2244 101.461 32.5739 101.857 33.0996C102.259 33.6253 102.46 34.2686 102.46 35.0293C102.46 36.3281 102.046 37.3115 101.217 37.9795C100.388 38.6475 99.2067 38.9876 97.6729 39H92.4219ZM95.2051 33.1182V36.7642H97.5894C98.245 36.7642 98.7552 36.6095 99.1201 36.3003C99.4912 35.9849 99.6768 35.5519 99.6768 35.0015C99.6768 33.7645 99.0366 33.1367 97.7563 33.1182H95.2051ZM95.2051 31.1514H97.2646C98.6686 31.1266 99.3706 30.5669 99.3706 29.4722C99.3706 28.8599 99.1912 28.4207 98.8325 28.1548C98.48 27.8826 97.9202 27.7466 97.1533 27.7466H95.2051V31.1514ZM110.021 31.4761C109.656 31.4266 109.334 31.4019 109.056 31.4019C108.042 31.4019 107.377 31.7451 107.062 32.4316V39H104.38V28.9619H106.913L106.987 30.1587C107.525 29.2371 108.271 28.7764 109.223 28.7764C109.52 28.7764 109.798 28.8166 110.058 28.897L110.021 31.4761ZM115.754 39.1855C114.282 39.1855 113.083 38.734 112.155 37.8311C111.233 36.9281 110.772 35.7251 110.772 34.2222V33.9624C110.772 32.9543 110.967 32.0544 111.357 31.2627C111.747 30.4648 112.297 29.8525 113.008 29.4258C113.726 28.9928 114.542 28.7764 115.458 28.7764C116.831 28.7764 117.91 29.2093 118.695 30.0752C119.487 30.9411 119.883 32.1688 119.883 33.7583V34.853H113.491C113.577 35.5086 113.837 36.0343 114.27 36.4302C114.709 36.826 115.263 37.0239 115.931 37.0239C116.964 37.0239 117.771 36.6497 118.352 35.9014L119.669 37.3765C119.267 37.9455 118.723 38.3908 118.037 38.7124C117.35 39.0278 116.589 39.1855 115.754 39.1855ZM115.448 30.9473C114.916 30.9473 114.483 31.1266 114.149 31.4854C113.822 31.8441 113.611 32.3574 113.519 33.0254H117.248V32.812C117.236 32.2183 117.075 31.7606 116.766 31.439C116.456 31.1112 116.017 30.9473 115.448 30.9473ZM127.23 39C127.107 38.7588 127.017 38.4588 126.961 38.1001C126.312 38.8237 125.468 39.1855 124.429 39.1855C123.445 39.1855 122.629 38.901 121.979 38.332C121.336 37.763 121.015 37.0456 121.015 36.1797C121.015 35.1159 121.407 34.2995 122.193 33.7305C122.985 33.1615 124.126 32.8739 125.616 32.8677H126.85V32.2925C126.85 31.8286 126.729 31.4575 126.488 31.1792C126.253 30.9009 125.879 30.7617 125.366 30.7617C124.914 30.7617 124.559 30.87 124.299 31.0864C124.045 31.3029 123.918 31.5998 123.918 31.9771H121.237C121.237 31.3957 121.417 30.8576 121.775 30.3628C122.134 29.868 122.641 29.4814 123.297 29.2031C123.952 28.9186 124.688 28.7764 125.505 28.7764C126.742 28.7764 127.722 29.0887 128.446 29.7134C129.176 30.3319 129.541 31.2039 129.541 32.3296V36.6807C129.547 37.6331 129.68 38.3537 129.939 38.8423V39H127.23ZM125.013 37.1353C125.409 37.1353 125.774 37.0487 126.108 36.8755C126.442 36.6961 126.689 36.458 126.85 36.1611V34.4355H125.848C124.506 34.4355 123.792 34.8994 123.705 35.8271L123.696 35.9849C123.696 36.3188 123.813 36.5941 124.048 36.8105C124.283 37.027 124.605 37.1353 125.013 37.1353ZM134.81 26.4941V28.9619H136.526V30.9287H134.81V35.9385C134.81 36.3096 134.881 36.5755 135.023 36.7363C135.166 36.8971 135.438 36.9775 135.84 36.9775C136.137 36.9775 136.4 36.9559 136.628 36.9126V38.9443C136.103 39.1051 135.562 39.1855 135.005 39.1855C133.125 39.1855 132.166 38.2362 132.129 36.3374V30.9287H130.663V28.9619H132.129V26.4941H134.81ZM140.636 30.0566C141.347 29.2031 142.241 28.7764 143.317 28.7764C145.494 28.7764 146.598 30.0412 146.629 32.5708V39H143.948V32.645C143.948 32.0698 143.825 31.6462 143.577 31.374C143.33 31.0957 142.918 30.9565 142.343 30.9565C141.558 30.9565 140.989 31.2596 140.636 31.8657V39H137.955V24.75H140.636V30.0566ZM163.171 27.7466H159.033V39H156.25V27.7466H152.168V25.4922H163.171V27.7466ZM168.375 39.1855C166.903 39.1855 165.704 38.734 164.776 37.8311C163.854 36.9281 163.394 35.7251 163.394 34.2222V33.9624C163.394 32.9543 163.588 32.0544 163.978 31.2627C164.368 30.4648 164.918 29.8525 165.629 29.4258C166.347 28.9928 167.163 28.7764 168.079 28.7764C169.452 28.7764 170.531 29.2093 171.316 30.0752C172.108 30.9411 172.504 32.1688 172.504 33.7583V34.853H166.112C166.198 35.5086 166.458 36.0343 166.891 36.4302C167.33 36.826 167.884 37.0239 168.552 37.0239C169.585 37.0239 170.392 36.6497 170.973 35.9014L172.291 37.3765C171.889 37.9455 171.344 38.3908 170.658 38.7124C169.971 39.0278 169.21 39.1855 168.375 39.1855ZM168.069 30.9473C167.537 30.9473 167.104 31.1266 166.771 31.4854C166.443 31.8441 166.232 32.3574 166.14 33.0254H169.869V32.812C169.857 32.2183 169.696 31.7606 169.387 31.439C169.077 31.1112 168.638 30.9473 168.069 30.9473ZM176.502 28.9619L176.586 30.1216C177.303 29.2248 178.265 28.7764 179.471 28.7764C180.535 28.7764 181.327 29.0887 181.846 29.7134C182.366 30.3381 182.632 31.272 182.644 32.5151V39H179.963V32.5801C179.963 32.0111 179.839 31.5998 179.592 31.3462C179.344 31.0864 178.933 30.9565 178.358 30.9565C177.603 30.9565 177.037 31.2782 176.66 31.9214V39H173.979V28.9619H176.502ZM190.122 36.2261C190.122 35.8983 189.958 35.6416 189.63 35.4561C189.308 35.2643 188.789 35.0942 188.071 34.9458C185.684 34.4448 184.49 33.4305 184.49 31.9028C184.49 31.0122 184.858 30.27 185.594 29.6763C186.336 29.0763 187.304 28.7764 188.498 28.7764C189.772 28.7764 190.79 29.0763 191.55 29.6763C192.317 30.2762 192.701 31.0555 192.701 32.0142H190.02C190.02 31.6307 189.896 31.3153 189.648 31.0679C189.401 30.8143 189.014 30.6875 188.489 30.6875C188.037 30.6875 187.688 30.7896 187.44 30.9937C187.193 31.1978 187.069 31.4575 187.069 31.7729C187.069 32.0698 187.208 32.311 187.487 32.4966C187.771 32.6759 188.248 32.8337 188.916 32.9697C189.583 33.0996 190.146 33.248 190.604 33.415C192.02 33.9346 192.729 34.8345 192.729 36.1147C192.729 37.0301 192.336 37.7723 191.55 38.3413C190.765 38.9041 189.75 39.1855 188.507 39.1855C187.666 39.1855 186.918 39.0371 186.262 38.7402C185.613 38.4372 185.103 38.0259 184.731 37.5063C184.36 36.9806 184.175 36.4147 184.175 35.8086H186.717C186.742 36.2848 186.918 36.6497 187.246 36.9033C187.573 37.1569 188.013 37.2837 188.563 37.2837C189.076 37.2837 189.463 37.1878 189.723 36.9961C189.989 36.7982 190.122 36.5415 190.122 36.2261ZM197.293 39H194.603V28.9619H197.293V39ZM194.445 26.3643C194.445 25.9622 194.578 25.6313 194.844 25.3716C195.116 25.1118 195.484 24.9819 195.948 24.9819C196.405 24.9819 196.77 25.1118 197.042 25.3716C197.315 25.6313 197.451 25.9622 197.451 26.3643C197.451 26.7725 197.312 27.1064 197.033 27.3662C196.761 27.626 196.399 27.7559 195.948 27.7559C195.496 27.7559 195.131 27.626 194.853 27.3662C194.581 27.1064 194.445 26.7725 194.445 26.3643ZM199.093 33.8882C199.093 32.8924 199.285 32.0049 199.668 31.2256C200.051 30.4463 200.602 29.8433 201.319 29.4165C202.043 28.9897 202.881 28.7764 203.833 28.7764C205.188 28.7764 206.292 29.1908 207.146 30.0195C208.005 30.8483 208.485 31.974 208.583 33.3965L208.602 34.083C208.602 35.623 208.172 36.86 207.312 37.7939C206.453 38.7217 205.299 39.1855 203.852 39.1855C202.405 39.1855 201.248 38.7217 200.382 37.7939C199.523 36.8662 199.093 35.6045 199.093 34.0088V33.8882ZM201.774 34.083C201.774 35.0355 201.953 35.7653 202.312 36.2725C202.671 36.7734 203.184 37.0239 203.852 37.0239C204.501 37.0239 205.009 36.7765 205.374 36.2817C205.738 35.7808 205.921 34.9829 205.921 33.8882C205.921 32.9543 205.738 32.2306 205.374 31.7173C205.009 31.2039 204.495 30.9473 203.833 30.9473C203.178 30.9473 202.671 31.2039 202.312 31.7173C201.953 32.2244 201.774 33.013 201.774 34.083ZM212.721 28.9619L212.805 30.1216C213.522 29.2248 214.484 28.7764 215.69 28.7764C216.754 28.7764 217.545 29.0887 218.065 29.7134C218.584 30.3381 218.85 31.272 218.863 32.5151V39H216.182V32.5801C216.182 32.0111 216.058 31.5998 215.811 31.3462C215.563 31.0864 215.152 30.9565 214.577 30.9565C213.822 30.9565 213.256 31.2782 212.879 31.9214V39H210.198V28.9619H212.721ZM233.938 33.146H228.595V36.7642H234.866V39H225.812V25.4922H234.848V27.7466H228.595V30.9658H233.938V33.146ZM240.145 31.9585L241.833 28.9619H244.7L241.843 33.8789L244.821 39H241.945L240.154 35.8457L238.373 39H235.488L238.466 33.8789L235.618 28.9619H238.494L240.145 31.9585ZM249.979 37.0239C250.474 37.0239 250.876 36.8879 251.185 36.6157C251.494 36.3436 251.655 35.9818 251.667 35.5303H254.182C254.175 36.2106 253.99 36.8353 253.625 37.4043C253.26 37.9671 252.759 38.4062 252.122 38.7217C251.491 39.0309 250.792 39.1855 250.025 39.1855C248.59 39.1855 247.459 38.731 246.63 37.8218C245.801 36.9064 245.387 35.6447 245.387 34.0366V33.8604C245.387 32.3141 245.798 31.0802 246.621 30.1587C247.443 29.2371 248.572 28.7764 250.007 28.7764C251.262 28.7764 252.267 29.1351 253.022 29.8525C253.783 30.5638 254.169 31.5132 254.182 32.7007H251.667C251.655 32.1812 251.494 31.7606 251.185 31.439C250.876 31.1112 250.468 30.9473 249.96 30.9473C249.336 30.9473 248.863 31.1761 248.541 31.6338C248.226 32.0853 248.068 32.8213 248.068 33.8418V34.1201C248.068 35.153 248.226 35.8952 248.541 36.3467C248.856 36.7982 249.336 37.0239 249.979 37.0239ZM260.333 39.1855C258.861 39.1855 257.661 38.734 256.733 37.8311C255.811 36.9281 255.351 35.7251 255.351 34.2222V33.9624C255.351 32.9543 255.545 32.0544 255.935 31.2627C256.325 30.4648 256.875 29.8525 257.586 29.4258C258.304 28.9928 259.12 28.7764 260.036 28.7764C261.409 28.7764 262.488 29.2093 263.273 30.0752C264.065 30.9411 264.461 32.1688 264.461 33.7583V34.853H258.069C258.155 35.5086 258.415 36.0343 258.848 36.4302C259.287 36.826 259.841 37.0239 260.509 37.0239C261.542 37.0239 262.349 36.6497 262.93 35.9014L264.248 37.3765C263.846 37.9455 263.301 38.3908 262.615 38.7124C261.928 39.0278 261.167 39.1855 260.333 39.1855ZM260.026 30.9473C259.494 30.9473 259.062 31.1266 258.728 31.4854C258.4 31.8441 258.189 32.3574 258.097 33.0254H261.826V32.812C261.814 32.2183 261.653 31.7606 261.344 31.439C261.035 31.1112 260.595 30.9473 260.026 30.9473ZM271.632 31.4761C271.267 31.4266 270.946 31.4019 270.667 31.4019C269.653 31.4019 268.988 31.7451 268.673 32.4316V39H265.992V28.9619H268.524L268.599 30.1587C269.137 29.2371 269.882 28.7764 270.834 28.7764C271.131 28.7764 271.41 28.8166 271.669 28.897L271.632 31.4761ZM278.368 36.2261C278.368 35.8983 278.204 35.6416 277.876 35.4561C277.554 35.2643 277.035 35.0942 276.317 34.9458C273.93 34.4448 272.736 33.4305 272.736 31.9028C272.736 31.0122 273.104 30.27 273.84 29.6763C274.583 29.0763 275.55 28.7764 276.744 28.7764C278.018 28.7764 279.036 29.0763 279.796 29.6763C280.563 30.2762 280.947 31.0555 280.947 32.0142H278.266C278.266 31.6307 278.142 31.3153 277.895 31.0679C277.647 30.8143 277.261 30.6875 276.735 30.6875C276.283 30.6875 275.934 30.7896 275.687 30.9937C275.439 31.1978 275.315 31.4575 275.315 31.7729C275.315 32.0698 275.455 32.311 275.733 32.4966C276.017 32.6759 276.494 32.8337 277.162 32.9697C277.83 33.0996 278.392 33.248 278.85 33.415C280.266 33.9346 280.975 34.8345 280.975 36.1147C280.975 37.0301 280.582 37.7723 279.796 38.3413C279.011 38.9041 277.997 39.1855 276.753 39.1855C275.912 39.1855 275.164 39.0371 274.508 38.7402C273.859 38.4372 273.349 38.0259 272.978 37.5063C272.606 36.9806 272.421 36.4147 272.421 35.8086H274.963C274.988 36.2848 275.164 36.6497 275.492 36.9033C275.819 37.1569 276.259 37.2837 276.809 37.2837C277.322 37.2837 277.709 37.1878 277.969 36.9961C278.235 36.7982 278.368 36.5415 278.368 36.2261ZM285.539 39H282.849V28.9619H285.539V39ZM282.691 26.3643C282.691 25.9622 282.824 25.6313 283.09 25.3716C283.362 25.1118 283.73 24.9819 284.194 24.9819C284.652 24.9819 285.016 25.1118 285.289 25.3716C285.561 25.6313 285.697 25.9622 285.697 26.3643C285.697 26.7725 285.558 27.1064 285.279 27.3662C285.007 27.626 284.645 27.7559 284.194 27.7559C283.742 27.7559 283.377 27.626 283.099 27.3662C282.827 27.1064 282.691 26.7725 282.691 26.3643ZM293.193 36.2261C293.193 35.8983 293.029 35.6416 292.701 35.4561C292.38 35.2643 291.86 35.0942 291.143 34.9458C288.755 34.4448 287.562 33.4305 287.562 31.9028C287.562 31.0122 287.93 30.27 288.666 29.6763C289.408 29.0763 290.376 28.7764 291.569 28.7764C292.843 28.7764 293.861 29.0763 294.622 29.6763C295.389 30.2762 295.772 31.0555 295.772 32.0142H293.091C293.091 31.6307 292.967 31.3153 292.72 31.0679C292.472 30.8143 292.086 30.6875 291.56 30.6875C291.109 30.6875 290.759 30.7896 290.512 30.9937C290.264 31.1978 290.141 31.4575 290.141 31.7729C290.141 32.0698 290.28 32.311 290.558 32.4966C290.843 32.6759 291.319 32.8337 291.987 32.9697C292.655 33.0996 293.218 33.248 293.675 33.415C295.092 33.9346 295.8 34.8345 295.8 36.1147C295.8 37.0301 295.407 37.7723 294.622 38.3413C293.836 38.9041 292.822 39.1855 291.579 39.1855C290.737 39.1855 289.989 39.0371 289.333 38.7402C288.684 38.4372 288.174 38.0259 287.803 37.5063C287.432 36.9806 287.246 36.4147 287.246 35.8086H289.788C289.813 36.2848 289.989 36.6497 290.317 36.9033C290.645 37.1569 291.084 37.2837 291.634 37.2837C292.148 37.2837 292.534 37.1878 292.794 36.9961C293.06 36.7982 293.193 36.5415 293.193 36.2261ZM302.155 39.1855C300.683 39.1855 299.483 38.734 298.555 37.8311C297.634 36.9281 297.173 35.7251 297.173 34.2222V33.9624C297.173 32.9543 297.368 32.0544 297.757 31.2627C298.147 30.4648 298.697 29.8525 299.409 29.4258C300.126 28.9928 300.943 28.7764 301.858 28.7764C303.231 28.7764 304.31 29.2093 305.096 30.0752C305.887 30.9411 306.283 32.1688 306.283 33.7583V34.853H299.891C299.978 35.5086 300.237 36.0343 300.67 36.4302C301.11 36.826 301.663 37.0239 302.331 37.0239C303.364 37.0239 304.171 36.6497 304.752 35.9014L306.07 37.3765C305.668 37.9455 305.124 38.3908 304.437 38.7124C303.75 39.0278 302.99 39.1855 302.155 39.1855ZM301.849 30.9473C301.317 30.9473 300.884 31.1266 300.55 31.4854C300.222 31.8441 300.012 32.3574 299.919 33.0254H303.648V32.812C303.636 32.2183 303.475 31.7606 303.166 31.439C302.857 31.1112 302.418 30.9473 301.849 30.9473Z" fill="white"/>
<rect x="345" y="18" width="40" height="6" rx="3" fill="#27AE61"/>
<rect x="345" y="38" width="40" height="6" rx="3" fill="#27AE61"/>
<rect x="345" y="28" width="40" height="6" rx="3" fill="#27AE61"/>
<rect x="15" y="30.6777" width="25" height="6" rx="3" transform="rotate(-45 15 30.6777)" fill="#27AE61"/>
<rect x="19.2427" y="26.3936" width="25" height="6" rx="3" transform="rotate(45 19.2427 26.3936)" fill="#27AE61"/>
<defs>
<filter id="filter0_dd" x="84.01" y="226.354" width="230.98" height="246.292" filterUnits="userSpaceOnUse" color-interpolation-filters="sRGB">
<feFlood flood-opacity="0" result="BackgroundImageFix"/>
<feColorMatrix in="SourceAlpha" type="matrix" values="0 0 0 0 0 0 0 0 0 0 0 0 0 0 0 0 0 0 127 0"/>
<feOffset dx="4" dy="4"/>
<feGaussianBlur stdDeviation="4"/>
<feColorMatrix type="matrix" values="0 0 0 0 0 0 0 0 0 0 0 0 0 0 0 0 0 0 0.25 0"/>
<feBlend mode="normal" in2="BackgroundImageFix" result="effect1_dropShadow"/>
<feColorMatrix in="SourceAlpha" type="matrix" values="0 0 0 0 0 0 0 0 0 0 0 0 0 0 0 0 0 0 127 0"/>
<feOffset dx="-4" dy="-4"/>
<feGaussianBlur stdDeviation="4"/>
<feColorMatrix type="matrix" values="0 0 0 0 1 0 0 0 0 1 0 0 0 0 1 0 0 0 1 0"/>
<feBlend mode="normal" in2="effect1_dropShadow" result="effect2_dropShadow"/>
<feBlend mode="normal" in="SourceGraphic" in2="effect2_dropShadow" result="shape"/>
</filter>
<filter id="filter1_dd" x="7" y="533" width="82" height="34" filterUnits="userSpaceOnUse" color-interpolation-filters="sRGB">
<feFlood flood-opacity="0" result="BackgroundImageFix"/>
<feColorMatrix in="SourceAlpha" type="matrix" values="0 0 0 0 0 0 0 0 0 0 0 0 0 0 0 0 0 0 127 0"/>
<feOffset dx="2" dy="2"/>
<feGaussianBlur stdDeviation="2"/>
<feColorMatrix type="matrix" values="0 0 0 0 0.67451 0 0 0 0 0.690196 0 0 0 0 0.694118 0 0 0 1 0"/>
<feBlend mode="normal" in2="BackgroundImageFix" result="effect1_dropShadow"/>
<feColorMatrix in="SourceAlpha" type="matrix" values="0 0 0 0 0 0 0 0 0 0 0 0 0 0 0 0 0 0 127 0"/>
<feOffset dx="-4" dy="-4"/>
<feGaussianBlur stdDeviation="4"/>
<feColorMatrix type="matrix" values="0 0 0 0 1 0 0 0 0 1 0 0 0 0 1 0 0 0 1 0"/>
<feBlend mode="normal" in2="effect1_dropShadow" result="effect2_dropShadow"/>
<feBlend mode="normal" in="SourceGraphic" in2="effect2_dropShadow" result="shape"/>
</filter>
<filter id="filter2_dd" x="81" y="533" width="82" height="34" filterUnits="userSpaceOnUse" color-interpolation-filters="sRGB">
<feFlood flood-opacity="0" result="BackgroundImageFix"/>
<feColorMatrix in="SourceAlpha" type="matrix" values="0 0 0 0 0 0 0 0 0 0 0 0 0 0 0 0 0 0 127 0"/>
<feOffset dx="2" dy="2"/>
<feGaussianBlur stdDeviation="2"/>
<feColorMatrix type="matrix" values="0 0 0 0 0.67451 0 0 0 0 0.690196 0 0 0 0 0.694118 0 0 0 1 0"/>
<feBlend mode="normal" in2="BackgroundImageFix" result="effect1_dropShadow"/>
<feColorMatrix in="SourceAlpha" type="matrix" values="0 0 0 0 0 0 0 0 0 0 0 0 0 0 0 0 0 0 127 0"/>
<feOffset dx="-4" dy="-4"/>
<feGaussianBlur stdDeviation="4"/>
<feColorMatrix type="matrix" values="0 0 0 0 1 0 0 0 0 1 0 0 0 0 1 0 0 0 1 0"/>
<feBlend mode="normal" in2="effect1_dropShadow" result="effect2_dropShadow"/>
<feBlend mode="normal" in="SourceGraphic" in2="effect2_dropShadow" result="shape"/>
</filter>
<filter id="filter3_ii" x="239" y="543" width="68" height="20" filterUnits="userSpaceOnUse" color-interpolation-filters="sRGB">
<feFlood flood-opacity="0" result="BackgroundImageFix"/>
<feBlend mode="normal" in="SourceGraphic" in2="BackgroundImageFix" result="shape"/>
<feColorMatrix in="SourceAlpha" type="matrix" values="0 0 0 0 0 0 0 0 0 0 0 0 0 0 0 0 0 0 127 0" result="hardAlpha"/>
<feOffset dx="2" dy="2"/>
<feGaussianBlur stdDeviation="2"/>
<feComposite in2="hardAlpha" operator="arithmetic" k2="-1" k3="1"/>
<feColorMatrix type="matrix" values="0 0 0 0 0.552941 0 0 0 0 0.568627 0 0 0 0 0.572549 0 0 0 1 0"/>
<feBlend mode="normal" in2="shape" result="effect1_innerShadow"/>
<feColorMatrix in="SourceAlpha" type="matrix" values="0 0 0 0 0 0 0 0 0 0 0 0 0 0 0 0 0 0 127 0" result="hardAlpha"/>
<feOffset dx="-2" dy="-2"/>
<feGaussianBlur stdDeviation="2"/>
<feComposite in2="hardAlpha" operator="arithmetic" k2="-1" k3="1"/>
<feColorMatrix type="matrix" values="0 0 0 0 0.92549 0 0 0 0 0.941176 0 0 0 0 0.945098 0 0 0 0.76 0"/>
<feBlend mode="normal" in2="effect1_innerShadow" result="effect2_innerShadow"/>
</filter>
<filter id="filter4_ii" x="313" y="543" width="68" height="20" filterUnits="userSpaceOnUse" color-interpolation-filters="sRGB">
<feFlood flood-opacity="0" result="BackgroundImageFix"/>
<feBlend mode="normal" in="SourceGraphic" in2="BackgroundImageFix" result="shape"/>
<feColorMatrix in="SourceAlpha" type="matrix" values="0 0 0 0 0 0 0 0 0 0 0 0 0 0 0 0 0 0 127 0" result="hardAlpha"/>
<feOffset dx="2" dy="2"/>
<feGaussianBlur stdDeviation="2"/>
<feComposite in2="hardAlpha" operator="arithmetic" k2="-1" k3="1"/>
<feColorMatrix type="matrix" values="0 0 0 0 0.552941 0 0 0 0 0.568627 0 0 0 0 0.572549 0 0 0 1 0"/>
<feBlend mode="normal" in2="shape" result="effect1_innerShadow"/>
<feColorMatrix in="SourceAlpha" type="matrix" values="0 0 0 0 0 0 0 0 0 0 0 0 0 0 0 0 0 0 127 0" result="hardAlpha"/>
<feOffset dx="-2" dy="-2"/>
<feGaussianBlur stdDeviation="2"/>
<feComposite in2="hardAlpha" operator="arithmetic" k2="-1" k3="1"/>
<feColorMatrix type="matrix" values="0 0 0 0 0.92549 0 0 0 0 0.941176 0 0 0 0 0.945098 0 0 0 0.76 0"/>
<feBlend mode="normal" in2="effect1_innerShadow" result="effect2_innerShadow"/>
</filter>
<filter id="filter5_dd" x="161" y="539" width="76" height="28" filterUnits="userSpaceOnUse" color-interpolation-filters="sRGB">
<feFlood flood-opacity="0" result="BackgroundImageFix"/>
<feColorMatrix in="SourceAlpha" type="matrix" values="0 0 0 0 0 0 0 0 0 0 0 0 0 0 0 0 0 0 127 0"/>
<feOffset dx="2" dy="2"/>
<feGaussianBlur stdDeviation="2"/>
<feColorMatrix type="matrix" values="0 0 0 0 0.67451 0 0 0 0 0.690196 0 0 0 0 0.694118 0 0 0 1 0"/>
<feBlend mode="normal" in2="BackgroundImageFix" result="effect1_dropShadow"/>
<feColorMatrix in="SourceAlpha" type="matrix" values="0 0 0 0 0 0 0 0 0 0 0 0 0 0 0 0 0 0 127 0"/>
<feOffset dx="-2" dy="-2"/>
<feGaussianBlur stdDeviation="2"/>
<feColorMatrix type="matrix" values="0 0 0 0 1 0 0 0 0 1 0 0 0 0 1 0 0 0 1 0"/>
<feBlend mode="normal" in2="effect1_dropShadow" result="effect2_dropShadow"/>
<feBlend mode="normal" in="SourceGraphic" in2="effect2_dropShadow" result="shape"/>
</filter>
</defs>
</svg>
