<svg width="121" height="121" viewBox="0 0 121 121" fill="none" xmlns="http://www.w3.org/2000/svg">
<path d="M113.061 51.75C116.188 57.1645 116.188 63.8355 113.061 69.25L94.3584 101.645C91.2324 107.059 85.4551 110.395 79.203 110.395L41.797 110.395C35.5449 110.395 29.7676 107.059 26.6416 101.645L7.93857 69.25C4.8125 63.8355 4.8125 57.1645 7.93857 51.75L26.6416 19.3555C29.7676 13.9409 35.5449 10.6055 41.797 10.6055L79.203 10.6055C85.4551 10.6055 91.2324 13.9409 94.3584 19.3555L113.061 51.75Z" stroke="#49BA6E" stroke-width="5"/>
<path d="M61.958 67.4452H58.9253C53.0215 67.4452 47.4283 61.4369 47.4283 53.0976V39.2279C47.4283 38.3995 48.0999 37.7279 48.9283 37.7279H72.0717C72.9002 37.7279 73.5717 38.3995 73.5717 39.2279V53.0812C73.4599 61.4402 67.8588 67.4452 61.958 67.4452Z" stroke="#2D3E50" stroke-width="5" stroke-miterlimit="10"/>
<path d="M65.6933 66.8293H54.8191V78.6097H65.6933V66.8293Z" stroke="#2D3E50" stroke-width="5" stroke-miterlimit="10"/>
<path d="M72.0759 78.6099H49.011C46.4617 78.6099 44.398 82.0943 44.398 86.3987V87.2186H76.5675V86.3987C76.5675 82.0943 74.5038 78.6099 72.0759 78.6099Z" stroke="#2D3E50" stroke-width="5" stroke-miterlimit="10"/>
<path d="M34.6646 46.3861C34.6646 52.5057 40.0847 57.8983 47.5338 58.2383V42.8018C47.5338 41.9733 46.8622 41.3018 46.0338 41.3018H36.1646C35.3361 41.3018 34.6646 41.9733 34.6646 42.8018V46.3861Z" stroke="#2D3E50" stroke-width="5" stroke-miterlimit="10"/>
<path d="M86.8249 46.3861C86.8249 52.5057 81.4047 57.8983 73.9557 58.2383V42.8018C73.9557 41.9733 74.6273 41.3018 75.4557 41.3018H85.3249C86.1533 41.3018 86.8249 41.9733 86.8249 42.8018V46.3861Z" stroke="#2D3E50" stroke-width="5" stroke-miterlimit="10"/>
</svg>
