<svg width="121" height="121" viewBox="0 0 121 121" fill="none" xmlns="http://www.w3.org/2000/svg">
<path d="M113.061 51.75C116.187 57.1645 116.187 63.8355 113.061 69.25L94.3584 101.645C91.2324 107.059 85.4551 110.395 79.203 110.395L41.797 110.395C35.5449 110.395 29.7676 107.059 26.6416 101.645L7.93857 69.25C4.8125 63.8355 4.8125 57.1645 7.93857 51.75L26.6416 19.3555C29.7676 13.9409 35.5449 10.6055 41.797 10.6055L79.203 10.6055C85.4551 10.6055 91.2324 13.9409 94.3584 19.3555L113.061 51.75Z" stroke="#4186C6" stroke-width="5"/>
<mask id="path-2-inside-1" fill="white">
<path d="M69.2215 30.4011C70.3261 28.4879 72.8035 27.8077 74.4849 29.2406C77.1133 31.4808 79.1912 34.3226 80.5272 37.548C82.3766 42.0129 82.701 46.9632 81.4502 51.6313C80.1994 56.2994 77.4433 60.4243 73.6092 63.3663C69.7751 66.3082 65.0774 67.9029 60.2447 67.9029C55.412 67.9029 50.7143 66.3082 46.8802 63.3663C43.0462 60.4243 40.29 56.2994 39.0392 51.6313C37.7884 46.9633 38.1128 42.0129 39.9622 37.548C41.2982 34.3227 43.3761 31.4808 46.0046 29.2407C47.6859 27.8077 50.1633 28.4879 51.2679 30.4011L57.364 40.9598C57.9934 42.0499 57.5092 43.4538 57.0275 44.6167C56.7342 45.3249 56.6827 46.1101 56.8811 46.8506C57.0795 47.591 57.5167 48.2453 58.1248 48.712C58.733 49.1786 59.4781 49.4316 60.2447 49.4316C61.0113 49.4316 61.7564 49.1786 62.3646 48.712C62.9727 48.2453 63.4099 47.591 63.6083 46.8506C63.8067 46.1101 63.7553 45.3249 63.4619 44.6167C62.9802 43.4538 62.496 42.0499 63.1254 40.9598L69.2215 30.4011Z"/>
</mask>
<path d="M69.2215 30.4011C70.3261 28.4879 72.8035 27.8077 74.4849 29.2406C77.1133 31.4808 79.1912 34.3226 80.5272 37.548C82.3766 42.0129 82.701 46.9632 81.4502 51.6313C80.1994 56.2994 77.4433 60.4243 73.6092 63.3663C69.7751 66.3082 65.0774 67.9029 60.2447 67.9029C55.412 67.9029 50.7143 66.3082 46.8802 63.3663C43.0462 60.4243 40.29 56.2994 39.0392 51.6313C37.7884 46.9633 38.1128 42.0129 39.9622 37.548C41.2982 34.3227 43.3761 31.4808 46.0046 29.2407C47.6859 27.8077 50.1633 28.4879 51.2679 30.4011L57.364 40.9598C57.9934 42.0499 57.5092 43.4538 57.0275 44.6167C56.7342 45.3249 56.6827 46.1101 56.8811 46.8506C57.0795 47.591 57.5167 48.2453 58.1248 48.712C58.733 49.1786 59.4781 49.4316 60.2447 49.4316C61.0113 49.4316 61.7564 49.1786 62.3646 48.712C62.9727 48.2453 63.4099 47.591 63.6083 46.8506C63.8067 46.1101 63.7553 45.3249 63.4619 44.6167C62.9802 43.4538 62.496 42.0499 63.1254 40.9598L69.2215 30.4011Z" stroke="#2D3E50" stroke-width="14" mask="url(#path-2-inside-1)"/>
<mask id="path-3-inside-2" fill="white">
<rect x="51" y="61" width="19" height="37" rx="4"/>
</mask>
<rect x="51" y="61" width="19" height="37" rx="4" stroke="#2D3E50" stroke-width="14" stroke-linecap="round" stroke-linejoin="round" mask="url(#path-3-inside-2)"/>
</svg>
