<svg width="119" height="119" viewBox="0 0 119 119" fill="none" xmlns="http://www.w3.org/2000/svg">
<path d="M59.5672 79.4824C66.4914 79.4824 72.1046 73.8874 72.1046 66.9855C72.1046 60.0836 66.4914 54.4885 59.5672 54.4885C52.643 54.4885 47.0299 60.0836 47.0299 66.9855C47.0299 73.8874 52.643 79.4824 59.5672 79.4824Z" stroke="#2D3E50" stroke-width="7" stroke-miterlimit="10"/>
<path d="M28 61.9812C32.8134 48.8148 45.4627 40 59.5672 40C73.5598 40 86.209 48.8148 91.0225 61.8697" stroke="#2D3E50" stroke-width="7" stroke-miterlimit="10" stroke-linecap="round" stroke-linejoin="round"/>
<path d="M111.061 50.75C114.188 56.1645 114.188 62.8355 111.061 68.25L92.8584 99.7785C89.7324 105.193 83.9551 108.529 77.703 108.529L41.297 108.529C35.0449 108.529 29.2676 105.193 26.1416 99.7785L7.93857 68.25C4.8125 62.8355 4.81251 56.1645 7.93857 50.75L26.1416 19.2215C29.2676 13.807 35.0449 10.4715 41.297 10.4715L77.703 10.4715C83.9551 10.4715 89.7324 13.807 92.8584 19.2215L111.061 50.75Z" stroke="#E94C3D" stroke-width="5"/>
</svg>
